<svg width="344" height="580" viewBox="0 0 344 580" fill="none" xmlns="http://www.w3.org/2000/svg">
    <path
        d="M313.409 380.173C297.618 380.173 284.817 367.372 284.817 351.582C284.817 335.791 297.618 322.99 313.409 322.99C329.199 322.99 342 335.791 342 351.582C342 367.372 329.199 380.173 313.409 380.173Z"
        fill="black" stroke="black" stroke-width="3.68388" />
    <path
        d="M302.233 206.817C312.546 250.163 321.076 332.511 311.77 340.343C302.465 348.175 275.326 281.49 265.013 238.143C254.7 194.797 261.213 174.792 270.518 166.96C279.823 159.128 291.92 163.47 302.233 206.817Z"
        stroke="black" stroke-width="5.42573" />
    <path
        d="M98.4231 384.336C95.9634 443.089 107.746 547.153 120.578 548.354C133.41 549.556 147.291 447.894 149.75 389.142C152.21 330.39 143.249 314.549 130.417 313.347C117.585 312.146 100.883 325.584 98.4231 384.336Z"
        stroke="black" stroke-width="6.23413" />
    <path
        d="M78.8813 576.718H163.335C163.335 561.546 163.334 546.374 156.414 534.39C149.494 522.406 135.653 513.611 121.535 514.215C107.416 514.82 93.0205 524.825 85.8652 536.809C78.7099 548.793 78.7956 562.755 78.8384 569.737C78.8811 576.718 78.8813 576.718 78.8813 576.718Z"
        fill="#797979" stroke="black" stroke-width="4.8024" />
    <path
        d="M245.578 384.34C248.038 443.093 236.255 547.157 223.423 548.358C210.59 549.56 196.71 447.898 194.251 389.146C191.791 330.394 200.752 314.553 213.584 313.351C226.416 312.15 243.118 325.588 245.578 384.34Z"
        stroke="black" stroke-width="6.23413" />
    <path
        d="M265.12 576.722H180.666C180.666 561.55 180.666 546.378 187.587 534.394C194.507 522.41 208.347 513.615 222.466 514.219C236.585 514.824 250.98 524.829 258.136 536.813C265.291 548.797 265.205 562.759 265.163 569.741C265.12 576.722 265.12 576.722 265.12 576.722Z"
        fill="#797979" stroke="black" stroke-width="4.8024" />
    <path
        d="M30.5913 380.176C46.3819 380.176 59.1827 367.375 59.1827 351.584C59.1827 335.794 46.3819 322.993 30.5913 322.993C14.8008 322.993 2 335.794 2 351.584C2 367.375 14.8008 380.176 30.5913 380.176Z"
        fill="black" stroke="black" stroke-width="3.68388" />
    <path
        d="M41.767 206.819C31.4539 250.166 22.9244 332.514 32.2297 340.346C41.535 348.178 68.6743 281.492 78.9874 238.146C89.3005 194.8 82.7872 174.795 73.4819 166.963C64.1766 159.131 52.0802 163.473 41.767 206.819Z"
        stroke="black" stroke-width="5.42573" />
    <path
        d="M215.828 36.1504C224.346 57.5325 224.346 98.7687 207.076 119.388C189.805 140.006 155.266 140.006 137.995 119.446C120.724 98.8865 120.725 57.7669 129.477 36.3847C138.23 15.0026 155.735 13.3579 173.005 13.2991C190.275 13.2405 207.311 14.7684 215.828 36.1504Z"
        stroke="black" stroke-width="5.19655" />
    <path
        d="M269.17 198.624C286.805 198.624 301.1 185.034 301.1 168.269C301.1 151.505 286.805 137.915 269.17 137.915C251.535 137.915 237.239 151.505 237.239 168.269C237.239 185.034 251.535 198.624 269.17 198.624Z"
        fill="#241C1C" stroke="white" stroke-width="0.843382" stroke-linecap="round"
        stroke-linejoin="round" />
    <path
        d="M77.7107 197.172C95.3456 197.172 109.641 183.582 109.641 166.818C109.641 150.054 95.3456 136.464 77.7107 136.464C60.0758 136.464 45.78 150.054 45.78 166.818C45.78 183.582 60.0758 197.172 77.7107 197.172Z"
        fill="#241C1C" stroke="white" stroke-width="0.843382" stroke-linecap="round"
        stroke-linejoin="round" />
    <path
        d="M49.2961 150.521C43.5427 171.993 37.7893 193.465 39.5581 205.446C41.327 217.427 36.9163 216.245 59.8129 222.38C82.7096 228.516 78.3357 227.344 85.7883 217.834C93.2409 208.323 98.9326 186.835 104.624 165.346L49.2961 150.521Z"
        fill="#241C1C" stroke="#565656" stroke-width="2.82551" />
    <path
        d="M296.196 151.011C301.949 172.483 307.703 193.955 305.934 205.936C304.165 217.917 308.576 216.735 285.679 222.87C262.782 229.005 267.156 227.833 259.704 218.323C252.251 208.813 246.559 187.325 240.868 165.836L296.196 151.011Z"
        fill="#241C1C" stroke="#575757" stroke-width="2.82551" />
    <path
        d="M91.5134 141.194C91.5134 204.313 91.5133 267.431 105.169 298.99C118.825 330.55 105.86 330.55 173.166 330.55C240.472 330.55 227.614 330.55 241.065 298.991C254.516 267.431 254.335 204.313 254.154 141.194H91.5134Z"
        fill="#4D4D4D" stroke="black" stroke-width="8.03535" stroke-linecap="round"
        stroke-linejoin="round" />
    <path
        d="M199.79 142.251C199.79 147.649 198.496 152.951 196.04 157.626C193.583 162.3 190.05 166.181 185.796 168.88C181.541 171.579 176.714 173 171.801 173C166.888 173 162.061 171.579 157.806 168.88C153.552 166.181 150.018 162.3 147.562 157.626C145.105 152.951 143.812 147.649 143.812 142.251H171.801H199.79Z"
        fill="#241C1C" stroke="#595959" stroke-width="0.843382" stroke-linecap="round"
        stroke-linejoin="round" />
    <path
        d="M120.603 63.896C120.554 67.1294 121.215 75.9376 117.183 73.8128C113.414 71.6055 112.164 69.6046 109.635 65.2406C107.093 61.181 107.157 54.3846 111.52 52.6789C116.015 50.7453 119.612 57.9327 120.604 63.9072L120.603 63.896Z"
        stroke="black" stroke-width="1.48031" stroke-linecap="round" stroke-linejoin="round" />
    <path
        d="M223.021 63.8926C223.07 67.126 222.409 75.9342 226.44 73.8094C230.209 71.6021 231.46 69.6012 233.988 65.2373C236.53 61.1777 236.466 54.3811 232.104 52.6755C227.608 50.7419 224.012 57.9292 223.02 63.9038L223.021 63.8926Z"
        stroke="black" stroke-width="1.48031" stroke-linecap="round" stroke-linejoin="round" />
    <path
        d="M117.503 41.8095C117.503 33.4299 117.503 16.6708 135.678 8.29123C153.854 -0.0883327 190.203 -0.0883737 208.378 8.23902C226.553 16.5663 226.553 33.2203 226.553 49.8746C190.203 49.9789 153.853 50.0843 135.678 50.1368C117.503 50.189 117.503 50.1889 117.503 41.8095Z"
        fill="black" stroke="black" stroke-width="2.33226" />
    <path
        d="M157.339 78.838C159.826 78.7191 161.745 76.607 161.626 74.1206C161.507 71.6341 159.395 69.7149 156.909 69.8338C154.422 69.9527 152.503 72.0647 152.622 74.5512C152.741 77.0376 154.853 78.9569 157.339 78.838Z"
        fill="#BEF7F6" stroke="black" stroke-width="0.537162" />
    <path
        d="M157.189 77.3994C155.675 77.3994 154.448 76.0496 154.448 74.3844C154.448 72.7193 155.675 71.3694 157.189 71.3694C158.702 71.3694 159.93 72.7193 159.93 74.3844C159.93 76.0496 158.702 77.3994 157.189 77.3994Z"
        fill="black" />
    <path
        d="M166.302 74.159C163.169 73.6238 156.903 72.5534 152.224 70.4639C147.544 68.3745 144.451 65.2665 142.894 63.6666C141.338 62.0666 141.33 62.0258 145.531 61.7754C149.733 61.5251 153.413 61.3681 156.604 61.9974C159.795 62.6267 163.314 64.9237 165.286 67.1733C167.258 69.4228 168.346 72.0594 168.89 73.3769C169.433 74.6946 169.435 74.6943 166.302 74.159Z"
        fill="black" stroke="black" stroke-width="0.39597" />
    <path
        d="M168.9 62.4205C163.623 59.6688 158.345 56.9172 152.782 55.842C147.219 54.7667 137.059 55.811 137.023 55.9128C136.986 56.0143 146.665 56.3158 152.65 57.9922C158.634 59.6685 170.633 65.6327 170.977 65.7553C171.322 65.8779 169.742 63.6227 168.9 62.4205Z"
        fill="black" />
    <path
        d="M170.162 79.3038C168.751 81.7991 155.306 84.0444 148.52 80.9009C141.734 77.7574 135.274 65.976 136.546 63.7253C137.818 61.4746 152.652 59.5354 158.957 62.4561C165.262 65.3769 171.572 76.8084 170.162 79.3038Z"
        stroke="black" stroke-width="0.666729" />
    <path
        d="M188.195 78.8234C185.709 78.7045 183.79 76.5924 183.909 74.1059C184.028 71.6195 186.14 69.7002 188.626 69.8191C191.113 69.938 193.032 72.0501 192.913 74.5365C192.794 77.023 190.682 78.9423 188.195 78.8234Z"
        fill="#BEF7F6" stroke="black" stroke-width="0.537162" />
    <path
        d="M188.346 77.3845C189.86 77.3845 191.087 76.0346 191.087 74.3695C191.087 72.7043 189.86 71.3545 188.346 71.3545C186.832 71.3545 185.605 72.7043 185.605 74.3695C185.605 76.0346 186.832 77.3845 188.346 77.3845Z"
        fill="black" />
    <path
        d="M179.233 74.1439C182.366 73.6087 188.631 72.5382 193.311 70.4488C197.991 68.3593 201.084 65.2514 202.64 63.6514C204.197 62.0515 204.205 62.0107 200.004 61.7603C195.802 61.5099 192.121 61.353 188.93 61.9823C185.739 62.6116 182.221 64.9085 180.248 67.1581C178.276 69.4077 177.189 72.0442 176.645 73.3618C176.101 74.6795 176.1 74.6792 179.233 74.1439Z"
        fill="black" stroke="black" stroke-width="0.39597" />
    <path
        d="M176.635 62.4056C181.912 59.654 187.189 56.9023 192.753 55.8271C198.316 54.7518 208.476 55.7961 208.512 55.8979C208.549 55.9994 198.87 56.3009 192.885 57.9773C186.901 59.6536 174.902 65.6178 174.558 65.7404C174.213 65.863 175.793 63.6078 176.635 62.4056Z"
        fill="black" />
    <path
        d="M175.373 79.2891C176.784 81.7844 190.229 84.0297 197.015 80.8862C203.801 77.7427 210.261 65.9614 208.988 63.7107C207.716 61.4599 192.883 59.5207 186.577 62.4415C180.272 65.3622 173.962 76.7938 175.373 79.2891Z"
        stroke="black" stroke-width="0.666729" />
    <path
        d="M191.763 110.485C187.938 111.338 180.289 113.045 172.777 113.1C165.264 113.154 157.889 111.556 154.12 110.757C150.35 109.958 150.187 109.958 153.833 109.041C157.48 108.123 164.935 106.288 172.529 106.234C180.123 106.18 187.855 107.906 191.721 108.769C195.587 109.632 195.587 109.632 191.763 110.485ZM194.507 109.572C187.155 108.514 179.803 107.455 172.576 107.513C165.349 107.571 158.247 108.745 151.145 109.919"
        fill="black" />
    <path
        d="M165.18 113.535C167.669 114.009 170.158 114.482 172.542 114.496C174.926 114.511 177.204 114.064 179.482 113.619"
        stroke="black" stroke-width="0.10454" stroke-linecap="round" />
    <path
        d="M174.432 83.8909C170.147 88.5466 165.863 93.2025 166.177 95.359C166.491 97.5155 171.404 97.1727 176.317 96.83"
        stroke="black" stroke-width="1.84574" />
</svg>
    