<svg width="378" height="378" viewBox="0 0 378 378" fill="none" xmlns="http://www.w3.org/2000/svg">
    <g clip-path="url(#clip0_463_1464)">
        <path
            d="M84.7311 266.896C80.1798 265.596 127.209 280.55 168.712 280.983C210.215 281.416 246.191 267.329 262.77 264.946C279.35 262.562 276.532 271.881 263.095 280.225C249.658 288.569 225.602 295.937 185.507 290.844C145.413 285.751 89.2823 268.196 84.7311 266.896Z"
            fill="black" />
        <path
            d="M277.316 255.761C280.075 256.065 285.591 256.68 288.273 259.899C290.955 263.117 290.802 268.94 288.043 268.634C285.284 268.33 279.921 261.891 277.239 258.673C274.558 255.455 274.557 255.455 277.316 255.761Z"
            fill="black" />
        <path
            d="M169.675 199.509C168.06 207.166 168.187 229.327 177.199 221.678C183.086 216.681 193.318 216.772 200.57 221.561C205.414 224.759 203.496 206.78 203.41 199.579C190.963 194.135 180.822 194.246 169.675 199.509Z"
            stroke="black" stroke-width="4.36914" />
        <path
            d="M61.0189 72.9909C4.05501 130.087 27.3879 240.778 62.4629 296.125C97.5377 351.472 75.3128 351.472 190.683 351.472C306.053 351.472 284.014 351.472 317.571 294.375C351.128 237.279 371.816 123.087 313.531 67.7409C255.245 12.3947 117.983 15.8947 61.0189 72.9909Z"
            stroke="black" stroke-width="21.6229" />
        <path
            d="M86.3666 151.59C78.649 145.604 107.649 129.683 129.047 127.814C150.445 125.945 168.648 135.71 178.051 143.003C187.454 150.297 188.061 155.152 166.811 157.008C145.561 158.863 94.0841 157.576 86.3666 151.59Z"
            stroke="black" stroke-width="4.3687" stroke-linecap="round" />
        <path
            d="M86.704 152.439C78.8875 146.997 107.603 132.639 129.001 130.771C150.399 128.902 168.843 137.34 178.367 143.971C187.89 150.601 188.497 155.456 167.247 157.312C145.997 159.168 94.5205 157.881 86.704 152.439Z"
            stroke="black" stroke-width="4.3687" stroke-linecap="round" />
        <path
            d="M138.453 157.643C148.34 157.643 156.355 151.247 156.355 143.358C156.355 135.468 148.34 129.072 138.453 129.072C128.566 129.072 120.551 135.468 120.551 143.358C120.551 151.247 128.566 157.643 138.453 157.643Z"
            fill="black" stroke="black" stroke-width="2.04903" stroke-linecap="round" />
        <path
            d="M295.112 152.565C302.829 146.579 273.829 130.657 252.431 128.789C231.033 126.92 212.83 136.684 203.427 143.978C194.024 151.271 193.417 156.126 214.667 157.982C235.917 159.838 287.394 158.551 295.112 152.565Z"
            stroke="black" stroke-width="4.3687" stroke-linecap="round" />
        <path
            d="M294.774 153.414C302.591 147.972 273.875 133.614 252.477 131.745C231.079 129.877 212.635 138.315 203.112 144.945C193.588 151.576 192.981 156.431 214.231 158.287C235.481 160.142 286.958 158.855 294.774 153.414Z"
            stroke="black" stroke-width="4.36914" stroke-linecap="round" />
        <path
            d="M243.025 158.617C233.138 158.617 225.123 152.222 225.123 144.332C225.123 136.443 233.138 130.047 243.025 130.047C252.912 130.047 260.927 136.443 260.927 144.332C260.927 152.222 252.912 158.617 243.025 158.617Z"
            fill="black" stroke="black" stroke-width="2.04903" stroke-linecap="round" />
        <path
            d="M201.767 155.129C200.333 154.95 198.033 152.826 197.914 150.995C197.795 149.164 199.858 147.626 201.269 147.762C202.68 147.898 203.439 149.708 203.277 150.179C203.114 150.649 202.029 149.78 201.242 149.562C200.455 149.345 199.966 149.779 199.867 150.313C199.767 150.847 200.057 151.48 200.489 152.074C200.922 152.668 201.497 153.223 202.163 153.167C202.828 153.111 203.583 152.443 203.676 152.992C203.769 153.541 203.202 155.308 201.767 155.129Z"
            fill="black" />
        <path
            d="M179.711 154.154C181.145 153.975 183.446 151.851 183.564 150.02C183.683 148.189 181.62 146.651 180.209 146.787C178.798 146.923 178.039 148.733 178.202 149.204C178.365 149.674 179.45 148.805 180.237 148.588C181.023 148.37 181.512 148.804 181.611 149.338C181.711 149.872 181.421 150.505 180.989 151.1C180.556 151.694 179.981 152.249 179.316 152.192C178.65 152.136 177.896 151.468 177.802 152.018C177.709 152.567 178.277 154.333 179.711 154.154Z"
            fill="black" />
        <path
            d="M105.047 104.192C117.035 104.73 141.011 105.806 153.153 109.034C165.295 112.262 165.603 117.641 153.307 120.331C141.011 123.02 116.113 123.02 103.971 119.792C91.8294 116.565 92.4443 110.11 92.7516 106.882C93.0592 103.655 93.0582 103.655 105.047 104.192Z"
            fill="black" />
        <path
            d="M272.876 106.419C261.387 106.934 238.409 107.965 226.772 111.058C215.136 114.152 214.841 119.307 226.625 121.885C238.408 124.462 262.27 124.462 273.906 121.369C285.542 118.276 284.953 112.089 284.659 108.996C284.364 105.903 284.365 105.903 272.876 106.419Z"
            fill="black" />
        <path
            d="M64.7559 141.148C67.8675 141.851 74.0906 143.256 77.1444 144.478C80.1981 145.699 80.0824 146.736 76.7729 146.631C73.4634 146.526 66.9603 145.278 63.9066 144.057C60.8529 142.835 61.2487 141.64 61.4466 141.043C61.6446 140.445 61.6443 140.445 64.7559 141.148Z"
            fill="black" />
        <path
            d="M71.1281 137.703C72.9915 138.307 76.7183 139.515 78.4836 140.356C80.2489 141.197 80.0528 141.67 77.9942 141.327C75.9357 140.984 72.0148 139.824 70.2495 138.983C68.4842 138.143 68.8745 137.621 69.0696 137.36C69.2648 137.099 69.2646 137.099 71.1281 137.703Z"
            fill="black" />
        <path
            d="M69.4055 148.207C71.3557 148.021 75.2558 147.65 77.2099 147.721C79.1639 147.792 79.1718 148.304 77.1462 148.806C75.1206 149.309 71.0617 149.802 69.1077 149.731C67.1537 149.66 67.3046 149.026 67.3801 148.709C67.4556 148.392 67.4554 148.392 69.4055 148.207Z"
            fill="black" />
        <path
            d="M315.506 144.108C312.395 144.811 306.171 146.217 303.118 147.438C300.064 148.66 300.18 149.697 303.489 149.592C306.799 149.486 313.302 148.239 316.355 147.017C319.409 145.796 319.013 144.601 318.815 144.003C318.618 143.405 318.618 143.405 315.506 144.108Z"
            fill="black" />
        <path
            d="M309.134 140.664C307.271 141.268 303.544 142.476 301.778 143.317C300.013 144.158 300.209 144.631 302.268 144.288C304.326 143.945 308.247 142.785 310.013 141.944C311.778 141.104 311.388 140.582 311.192 140.321C310.997 140.06 310.997 140.06 309.134 140.664Z"
            fill="black" />
        <path
            d="M281.888 107.718C279.611 108.456 275.058 109.933 272.901 110.96C270.744 111.987 270.983 112.565 273.498 112.146C276.014 111.727 280.804 110.31 282.961 109.283C285.118 108.255 284.641 107.618 284.403 107.299C284.165 106.98 284.165 106.98 281.888 107.718Z"
            fill="white" />
        <path
            d="M310.857 151.168C308.907 150.982 305.006 150.611 303.052 150.682C301.098 150.753 301.09 151.265 303.116 151.767C305.142 152.27 309.201 152.762 311.155 152.692C313.109 152.621 312.958 151.987 312.882 151.67C312.807 151.353 312.807 151.353 310.857 151.168Z"
            fill="black" />
        <path
            d="M282.904 110.238C280.627 110.976 276.074 112.453 273.917 113.48C271.76 114.507 271.999 115.085 274.514 114.666C277.03 114.247 281.82 112.83 283.977 111.803C286.134 110.775 285.657 110.138 285.419 109.819C285.181 109.5 285.181 109.5 282.904 110.238Z"
            fill="white" />
        <path
            d="M214.318 95.0715C214.372 86.7041 213.279 78.4588 211.149 71.1782C209.02 63.8976 205.932 57.8427 202.199 53.6322C198.467 49.4217 194.225 47.2067 189.906 47.2133C185.587 47.2199 181.346 49.4481 177.617 53.67C173.889 57.8919 170.805 63.9563 168.682 71.2434C166.559 78.5306 165.472 86.7792 165.533 95.1465"
            fill="black" />
        <path
            d="M214.318 95.0715C214.372 86.7041 213.279 78.4588 211.149 71.1782C209.02 63.8976 205.932 57.8427 202.199 53.6322C198.467 49.4217 194.225 47.2067 189.906 47.2133C185.587 47.2199 181.346 49.4481 177.617 53.67C173.889 57.8919 170.805 63.9563 168.682 71.2434C166.559 78.5306 165.472 86.7792 165.533 95.1465"
            stroke="black" stroke-width="2.57288" />
    </g>
    <defs>
        <clipPath id="clip0_463_1464">
            <rect width="377.953" height="377.953" fill="white" />
        </clipPath>
    </defs>
</svg>