<svg width="378" height="378" viewBox="0 0 378 378" fill="none" xmlns="http://www.w3.org/2000/svg">
   <path
      d="M74.9092 47.209C64.6927 102.044 95.1456 240.028 132.46 309.023C169.774 378.018 213.946 378.018 249.181 308.346C284.416 238.673 310.709 99.3334 298.839 44.498C286.969 -10.3375 236.934 19.3337 186.899 49.0051C136.013 20.689 85.1259 -7.62611 74.9092 47.209Z"
      stroke="black" stroke-width="20.3873" />
   <path
      d="M156.103 155.897C162.257 156.754 167.883 152.913 168.669 147.317C169.456 141.721 165.104 136.49 158.95 135.633C152.796 134.775 147.17 138.617 146.384 144.213C145.598 149.809 149.949 155.04 156.103 155.897Z"
      fill="#C01111" fill-opacity="0.99061" stroke="black" stroke-width="1.9412" />
   <path
      d="M195.687 161.793C201.873 168.772 230.921 169.277 244.695 158.978C258.469 148.679 263.915 124.65 256.62 116.418C249.325 108.186 224.358 110.186 210.584 120.485C196.81 130.784 189.502 154.813 195.687 161.793Z"
      stroke="black" stroke-width="2.40943" />
   <path
      d="M200.171 149.383C206.969 146.678 220.565 141.268 229.843 134.643C239.122 128.018 244.082 120.18 246.814 115.832C249.547 111.483 249.773 111.1 240.582 112.047C231.391 112.995 223.025 114.403 216.141 117.348C209.257 120.293 202.44 127.151 199.084 133.162C195.728 139.173 194.551 145.632 193.962 148.86C193.373 152.088 193.373 152.088 200.171 149.383Z"
      fill="black" stroke="black" stroke-width="1.43395" />
   <path
      d="M221.516 155.743C215.384 156.744 209.669 153.035 208.751 147.46C207.833 141.884 212.06 136.552 218.192 135.551C224.324 134.55 230.039 138.259 230.957 143.835C231.875 149.411 227.648 154.742 221.516 155.743Z"
      stroke="black" stroke-width="1.9412" />
   <path
      d="M220.529 147.596C220.985 143.183 220.945 136.563 218.99 131.129C217.036 125.695 213.167 121.448 212.562 122.206C211.957 122.964 214.615 128.727 216.093 135.264C217.571 141.801 217.869 149.112 218.494 151.664C219.12 154.216 220.072 152.009 220.529 147.596Z"
      fill="black" />
   <path
      d="M182.068 161.34C176.049 168.463 147.02 169.647 133.007 159.673C118.994 149.699 112.983 125.804 120.082 117.404C127.181 109.003 152.188 110.418 166.201 120.392C180.214 130.367 188.087 154.217 182.068 161.34Z"
      stroke="black" stroke-width="2.40943" />
   <path
      d="M177.292 149.039C170.432 146.494 156.713 141.403 147.281 134.997C137.849 128.592 132.705 120.871 129.871 116.588C127.036 112.305 126.802 111.927 136.012 112.659C145.223 113.391 153.62 114.603 160.571 117.386C167.523 120.17 174.499 126.866 177.996 132.797C181.493 138.728 182.823 145.158 183.488 148.371C184.152 151.585 184.152 151.585 177.292 149.039Z"
      fill="black" stroke="black" stroke-width="1.43395" />
   <path
      d="M156.898 147.729C156.338 143.327 156.222 136.708 158.048 131.23C159.874 125.752 163.641 121.416 164.264 122.159C164.887 122.903 162.365 128.726 161.042 135.296C159.719 141.866 159.593 149.181 159.028 151.748C158.463 154.314 157.459 152.13 156.898 147.729Z"
      fill="black" />
   <path
      d="M226.189 281.278C219.701 285.869 206.724 295.05 190.169 294.318C173.615 293.586 153.483 282.941 139.711 275.21C125.938 267.479 118.526 262.663 128.549 266.245C138.572 269.826 166.029 281.806 192.374 280.974C218.718 280.141 243.946 266.497 250.478 263.647C257.009 260.797 244.843 268.742 238.76 272.715C232.678 276.688 232.677 276.688 226.189 281.278ZM251.467 264.12C231.415 268.485 211.363 272.849 190.051 273.072C168.74 273.294 146.169 269.376 123.599 265.458"
      fill="black" />
   <path
      d="M168.16 300.056C176.698 301.681 185.236 303.305 193.411 303.353C201.587 303.405 209.4 301.872 217.212 300.343"
      stroke="black" stroke-width="0.563776" stroke-linecap="round" />
   <path
      d="M141.566 268.494L142.942 271.873L147.231 269.547L149.155 274.052L153.722 270.155L155.902 275.754L160.37 271.179L161.601 277.164L167.134 272.063L167.673 278.234L172.883 272.751L173.134 279.465L177.97 272.9"
      stroke="black" stroke-width="0.354209" />
   <path
      d="M239.079 266.826L238.299 269.609L235.277 267.73L234.023 271.267L230.573 268.412L228.989 273.117L225.713 269.66L225.525 274.23L220.96 270.32L221.24 275.672L216.104 271.157L216.077 277.424L211.92 271.437"
      stroke="black" stroke-width="0.354209" />
   <path
      d="M178.116 272.929L180.684 280.702L184.191 273.125L187.307 281.019L191.167 273.211L194.091 281.082L196.883 272.932L200.982 280.258L202.828 272.475L206.608 279.614L208.168 272.12L211.175 278.611L211.858 271.413"
      stroke="black" stroke-width="0.354209" />
</svg>