<svg width="20" height="21" viewBox="0 0 20 21" fill="none" xmlns="http://www.w3.org/2000/svg">
  <g clip-path="url(#clip0_233_2889)">
    <path opacity="0.983" fill-rule="evenodd" clip-rule="evenodd"
      d="M19.9805 10.2851C19.9805 10.4153 19.9805 10.5456 19.9805 10.6757C19.864 10.8452 19.7078 10.969 19.5117 11.0468C18.5482 11.5026 17.5846 11.9583 16.6211 12.414C15.928 12.6714 15.7262 12.4565 16.0156 11.7695C16.1263 11.6067 16.237 11.444 16.3477 11.2812C12.793 11.2552 9.23828 11.2552 5.68359 11.2812C5.16277 11.6328 4.64191 11.9843 4.12109 12.3359C4.04297 12.362 3.96484 12.388 3.88672 12.414C2.70317 12.4773 1.51828 12.4903 0.332031 12.4531C0.266927 12.4401 0.201823 12.427 0.136719 12.414C0.0896457 12.3603 0.0375625 12.3147 -0.0195312 12.2773C-0.0195312 12.1601 -0.0195312 12.0429 -0.0195312 11.9257C0.296025 11.4643 0.582484 10.9825 0.839844 10.4804C0.582484 9.97832 0.296025 9.49653 -0.0195312 9.03512C-0.0195312 8.91793 -0.0195312 8.80075 -0.0195312 8.68356C0.0375625 8.64614 0.0896457 8.60059 0.136719 8.54684C0.201823 8.53383 0.266927 8.52079 0.332031 8.50778C1.51828 8.47055 2.70317 8.4836 3.88672 8.54684C3.96484 8.57289 4.04297 8.59891 4.12109 8.62497C4.64191 8.97653 5.16277 9.32809 5.68359 9.67965C9.23828 9.70571 12.793 9.70571 16.3477 9.67965C16.237 9.51688 16.1263 9.35415 16.0156 9.19137C15.7262 8.50434 15.928 8.2895 16.6211 8.54684C17.6818 9.04465 18.7364 9.55247 19.7852 10.0703C19.8595 10.1379 19.9246 10.2095 19.9805 10.2851Z"
      fill="white" />
  </g>
  <defs>
    <clipPath id="clip0_233_2889">
      <rect width="20" height="20" fill="white" transform="translate(0 0.5)" />
    </clipPath>
  </defs>
</svg>
  