<svg width="20" height="21" viewBox="0 0 20 21" fill="none" xmlns="http://www.w3.org/2000/svg">
    <g clip-path="url(#clip0_233_2867)">
        <path opacity="0.965" fill-rule="evenodd" clip-rule="evenodd"
            d="M0.566444 0.792969C2.06352 1.16728 3.54789 1.59045 5.01957 2.0625C8.02086 5.29816 11.0222 8.53387 14.0235 11.7695C14.1124 12.4941 14.3924 13.1321 14.8633 13.6836C14.6881 13.8783 14.5059 14.0671 14.3164 14.25C14.2774 14.2761 14.2383 14.2761 14.1993 14.25C11.4128 11.4636 8.62633 8.67707 5.83988 5.89062C5.4818 5.83203 5.33207 5.98176 5.39066 6.33984C8.17711 9.12629 10.9636 11.9128 13.75 14.6992C13.7761 14.7383 13.7761 14.7773 13.75 14.8164C13.5743 14.9922 13.3985 15.168 13.2227 15.3437C13.1677 15.3561 13.1156 15.343 13.0664 15.3047C12.5495 14.863 11.9505 14.6026 11.2696 14.5234C8.0339 11.5221 4.7982 8.52082 1.56254 5.51953C1.13021 4.11835 0.713546 2.7121 0.312538 1.30078C0.253685 1.05387 0.33832 0.884596 0.566444 0.792969ZM2.01176 2.27734C2.10899 2.26945 2.20014 2.28898 2.28519 2.33594C3.04691 3.09766 3.80863 3.85937 4.57035 4.62109C4.62894 4.97918 4.47922 5.12891 4.12113 5.07031C3.35941 4.30859 2.59769 3.54687 1.83598 2.78516C1.75061 2.566 1.8092 2.39673 2.01176 2.27734Z"
            fill="white" />
        <path opacity="0.953" fill-rule="evenodd" clip-rule="evenodd"
            d="M16.2695 1.84777C16.3106 1.84193 16.3497 1.84845 16.3867 1.86731C14.3993 2.70404 12.5763 3.79779 10.918 5.14856C10.5325 5.49504 10.1614 5.85313 9.80469 6.22277C9.23785 5.64293 8.68445 5.05047 8.14453 4.44543C10.1064 3.40945 12.1767 2.66727 14.3555 2.21887C14.9973 2.08656 15.6353 1.96286 16.2695 1.84777Z"
            fill="white" />
        <path opacity="0.987" fill-rule="evenodd" clip-rule="evenodd"
            d="M-0.0195312 17.043C-0.0195312 16.5872 -0.0195312 16.1315 -0.0195312 15.6758C0.218537 13.6792 0.915152 11.8563 2.07031 10.207C2.53469 9.54727 3.0425 8.92227 3.59375 8.33203C4.67879 9.28676 5.74 10.2698 6.77734 11.2813C5.99746 13.3576 5.49617 15.4996 5.27344 17.707C4.9559 18.6229 4.31137 19.1372 3.33984 19.25C2.18796 19.3697 1.23093 18.9986 0.46875 18.1367C0.229753 17.8023 0.0669922 17.4377 -0.0195312 17.043Z"
            fill="white" />
        <path opacity="0.947" fill-rule="evenodd" clip-rule="evenodd"
            d="M16.4257 13.0976C16.5436 13.0912 16.6608 13.0977 16.7773 13.1171C16.901 13.2409 17.0247 13.3645 17.1484 13.4882C17.2226 13.6303 17.2226 13.7735 17.1484 13.9179C15.9049 15.1614 14.6614 16.4049 13.4179 17.6484C13.2735 17.7226 13.1303 17.7226 12.9882 17.6484C12.8645 17.5247 12.7409 17.401 12.6171 17.2773C12.5845 17.1291 12.5975 16.9859 12.6562 16.8476C13.9086 15.5887 15.1651 14.3387 16.4257 13.0976Z"
            fill="white" />
        <path opacity="0.916" fill-rule="evenodd" clip-rule="evenodd"
            d="M16.8945 15.0898C17.1168 15.2014 17.2601 15.3772 17.3242 15.6172C17.3082 15.7079 17.2757 15.7925 17.2266 15.8711C16.556 16.5417 15.8854 17.2122 15.2148 17.8828C14.8371 18.0745 14.5702 17.9768 14.4141 17.5898C15.2487 16.7617 16.0756 15.9283 16.8945 15.0898Z"
            fill="white" />
        <path opacity="0.95" fill-rule="evenodd" clip-rule="evenodd"
            d="M17.2461 16.7695C17.7326 17.1844 18.1883 17.6336 18.6133 18.1172C18.3073 18.4753 17.9753 18.8073 17.6172 19.1133C17.1495 18.6912 16.7003 18.2485 16.2695 17.7852C16.5959 17.4458 16.9214 17.1073 17.2461 16.7695Z"
            fill="white" />
        <path opacity="0.946" fill-rule="evenodd" clip-rule="evenodd"
            d="M19.9805 18.4493C19.9805 18.5665 19.9805 18.6837 19.9805 18.8009C19.4075 19.3477 18.8477 19.9076 18.3008 20.4805C18.1836 20.4805 18.0664 20.4805 17.9492 20.4805C17.766 20.346 17.7074 20.1637 17.7734 19.9337C18.3268 19.3803 18.8802 18.8269 19.4336 18.2735C19.66 18.1949 19.8424 18.2535 19.9805 18.4493Z"
            fill="white" />
    </g>
    <defs>
        <clipPath id="clip0_233_2867">
            <rect width="20" height="20" fill="white" transform="translate(0 0.5)" />
        </clipPath>
    </defs>
</svg>
    