<svg width="80" height="80" viewBox="0 0 80 80" fill="none" xmlns="http://www.w3.org/2000/svg">
    <g clip-path="url(#clip0_198_1284)">
        <path opacity="0.989" fill-rule="evenodd" clip-rule="evenodd"
            d="M38.8281 -0.078125C39.5573 -0.078125 40.2864 -0.078125 41.0156 -0.078125C50.9942 3.55236 60.9942 7.17216 71.0156 10.7812C72.2645 11.301 73.0717 12.2124 73.4375 13.5156C73.5417 23.2031 73.5417 32.8906 73.4375 42.5781C72.857 47.7055 71.1903 52.445 68.4375 56.7969C65.3861 61.4642 61.7142 65.6048 57.4218 69.2188C52.3976 73.3838 46.9809 76.9516 41.1718 79.9219C40.3906 79.9219 39.6093 79.9219 38.8281 79.9219C30.0529 75.4488 22.3186 69.5633 15.625 62.2656C7.25436 52.3839 4.15541 40.9777 6.32809 28.0469C6.35414 23.2552 6.38017 18.4636 6.40622 13.6719C6.92358 11.9904 8.04336 10.9227 9.76559 10.4688C19.4745 6.96383 29.162 3.4482 38.8281 -0.078125ZM39.1406 6.64062C39.4011 6.64062 39.6614 6.64062 39.9218 6.64062C39.9218 17.6823 39.9218 28.7239 39.9218 39.7656C30.9114 39.7656 21.9011 39.7656 12.8906 39.7656C12.8645 32.2134 12.8906 24.6613 12.9687 17.1094C13.384 16.2095 14.0871 15.6627 15.0781 15.4688C23.1323 12.5675 31.1531 9.62483 39.1406 6.64062ZM39.9218 39.9219C48.9843 39.9219 58.0468 39.9219 67.1093 39.9219C67.0411 44.4758 65.817 48.6945 63.4375 52.5781C60.2764 57.4069 56.4482 61.6516 51.9531 65.3125C48.4689 67.9928 44.8231 70.4406 41.0156 72.6562C40.6656 72.8089 40.3011 72.887 39.9218 72.8906C39.9218 61.9011 39.9218 50.9114 39.9218 39.9219Z"
            fill="black" />
    </g>
    <defs>
        <clipPath id="clip0_198_1284">
            <rect width="80" height="80" fill="white" />
        </clipPath>
    </defs>
</svg>
    