<svg width="81" height="80" viewBox="0 0 81 80" fill="none" xmlns="http://www.w3.org/2000/svg">
    <path
        d="M15.6148 1.63101C15.2451 1.91946 15.1219 2.33153 14.9781 3.62955C14.7522 5.7517 14.5058 6.59644 13.6021 8.36834C12.6163 10.2639 10.6241 12.2624 8.73456 13.2308C6.84506 14.2197 6.10569 14.4464 4.07242 14.6524C2.24453 14.8378 1.64893 15.2087 1.64893 16.2183C1.64893 17.0424 2.28561 17.4545 3.72327 17.6193C6.74236 17.9696 9.0837 18.9379 11.0143 20.7098C13.3762 22.8526 14.6495 25.4074 14.9781 28.6009C15.0808 29.5899 15.2862 30.4758 15.43 30.6201C15.964 31.1352 16.7239 31.197 17.2989 30.7437C17.7508 30.3728 17.8535 30.0844 17.9767 28.8276C18.5928 22.7083 23.0496 18.258 29.2315 17.6399C30.3817 17.5163 30.6897 17.3927 31.0389 16.96C31.4907 16.3831 31.4291 15.6208 30.9157 15.0851C30.7719 14.9408 29.9093 14.7348 28.9851 14.6318C25.8222 14.3227 23.7684 13.3544 21.5503 11.1292C19.3527 8.94524 18.3464 6.76127 17.9561 3.3411C17.7508 1.40438 16.7649 0.703854 15.6148 1.63101ZM17.431 11.1084C18.5401 12.9009 19.1067 14.0445 20.873 15.2395C21.7561 15.8164 22.417 16.261 22.4581 16.3022C22.4992 16.3228 21.8458 16.527 21.2297 16.8773C19.2375 18.0105 18.1503 19.7173 16.6716 22.2721C16.4868 22.5812 16.5978 22.6031 15.9406 21.5317C14.811 19.698 13.1297 18.5052 11.3429 17.3102C10.4598 16.7333 10.5053 16.6438 10.4642 16.6026C10.4231 16.5614 10.8502 16.3497 11.5691 15.9171C13.2121 14.9075 15.3275 12.8059 16.3339 11.1371C16.7447 10.4365 16.8653 10.384 16.8859 10.384C16.9269 10.384 17.0202 10.4285 17.431 11.1084Z"
        fill="black" />
    <path
        d="M37.4862 14.7786C32.8547 15.8294 28.9042 19.1766 27.1528 23.4579C23.9419 31.3782 28.2231 40.1354 36.6105 42.7625C38.7122 43.4047 42.2929 43.4047 44.3947 42.7625C46.9245 41.9646 48.7927 40.8554 50.5441 39.1234C52.7626 36.9439 53.9886 34.6865 54.5919 31.7869C55.6038 26.844 54.047 21.94 50.3495 18.4566C48.6175 16.8414 47.2553 16.0046 45.0368 15.2261C43.5773 14.7202 42.9741 14.6423 40.9891 14.584C39.4712 14.5256 38.2452 14.6034 37.4862 14.7786ZM44.5752 21.6862C47.4165 23.8184 47.6495 24.2196 48.3478 25.7948C49.1483 28.0694 49.3103 30.1849 48.5938 32.8854C47.7765 34.4616 45.4023 36.8358 43.8261 37.6531C41.2378 39.0154 38.8246 38.5831 36.0807 37.8825C34.0495 36.3446 32.5459 35.3598 31.7965 31.2841C31.5435 27.4699 32.4283 24.7094 35.4252 22.2379C36.5733 21.3233 38.1448 21.1108 39.6043 20.7605C41.1014 20.5547 43.1157 21.3359 44.5752 21.6862Z"
        fill="black" />
    <path
        d="M37.6093 44.4688C29.6249 45.6407 22.9843 50.2813 19.4218 57.1875C17.6406 60.6407 16.8749 63.6407 16.8437 67.2657C16.8281 69.5938 16.8281 69.6094 17.3281 70.6719C19.0156 74.2344 24.0937 76.7657 31.9062 77.9532C41.6406 79.4219 52.5937 78.2813 58.7968 75.1563C61.1874 73.9532 62.8437 72.4219 63.6718 70.6719C64.1718 69.6094 64.1718 69.5938 64.1562 67.2657C64.1249 63.6094 63.3749 60.6719 61.5781 57.1875C58.3593 50.9688 52.6718 46.5625 45.6562 44.8907C44.2656 44.5625 43.5468 44.5 41.0468 44.4532C39.4218 44.4219 37.8749 44.4375 37.6093 44.4688ZM44.4255 50.6574C52.4099 51.9542 55.0972 53.6829 57.6441 61.3548C58.3316 63.4486 58.2369 64.6305 58.2369 66.8024C58.2525 68.7399 57.8509 69.0708 57.4446 69.7583C55.7259 72.6958 53.123 72.5045 45.4512 73.4733C42.5293 73.8326 36.9264 74.3474 34.0045 73.988C27.6608 73.1755 27.5038 72.1636 25.1913 70.0073C23.6601 68.5698 23.3393 67.9274 23.3549 65.4899C23.3862 55.6461 27.3382 52.3761 37.4476 50.673C39.1507 50.3761 42.7068 50.3761 44.4255 50.6574Z"
        fill="black" />
    <path
        d="M11.1833 44.3314C9.0739 45.097 7.95166 48.7647 8.98291 50.8272C10.7798 54.4209 17.4443 53.3194 17.788 49.3194C17.9912 46.9601 15.8329 44.0242 13.5048 44.0555C12.9735 44.0555 11.6803 43.9854 11.1833 44.3314ZM14.4063 47.1406C15.9844 48.5625 14.25 51.0468 12.375 50.0781C11.7188 49.75 11.4375 49.25 11.4375 48.4687C11.4375 47.8906 11.5313 47.6875 11.9688 47.25C12.4219 46.7968 12.6094 46.7187 13.2188 46.7187C13.7813 46.7187 14.0313 46.8125 14.4063 47.1406Z"
        fill="black" />
    <path
        d="M65.9412 26.4131C65.6327 26.6538 65.5299 26.9976 65.41 28.0805C65.2215 29.8511 65.0159 30.5558 64.2619 32.0342C63.4395 33.6156 61.7773 35.283 60.2009 36.0909C58.6245 36.916 58.0076 37.1051 56.3113 37.277C54.7862 37.4317 54.2893 37.7411 54.2893 38.5834C54.2893 39.271 54.8205 39.6148 56.02 39.7523C58.5388 40.0445 60.4922 40.8525 62.1029 42.3308C64.0735 44.1185 65.1358 46.25 65.41 48.9144C65.4957 49.7395 65.667 50.4787 65.787 50.599C66.2325 51.0287 66.8665 51.0803 67.3463 50.7021C67.7232 50.3927 67.8089 50.1521 67.9117 49.1035C68.4258 43.9982 72.1441 40.2852 77.3018 39.7695C78.2613 39.6664 78.5183 39.5632 78.8096 39.2022C79.1866 38.7209 79.1352 38.0849 78.7068 37.638C78.5869 37.5177 77.8672 37.3458 77.0961 37.2598C74.4573 37.002 72.7438 36.1941 70.8932 34.3376C69.0598 32.5155 68.2201 30.6934 67.8946 27.8399C67.7232 26.2241 66.9007 25.6396 65.9412 26.4131ZM67.4564 34.3202C68.3817 35.8157 68.8545 36.7698 70.3281 37.7668C71.0649 38.2481 71.6164 38.6191 71.6506 38.6535C71.6849 38.6707 71.1398 38.841 70.6257 39.1333C68.9636 40.0787 68.0566 41.5027 66.8229 43.6342C66.6687 43.892 66.7613 43.9104 66.213 43.0165C65.2705 41.4866 63.8678 40.4915 62.3771 39.4945C61.6403 39.0132 61.6782 38.9384 61.644 38.9041C61.6097 38.8697 61.9661 38.6931 62.5658 38.3321C63.9366 37.4898 65.7015 35.7365 66.5411 34.3441C66.8838 33.7597 66.9845 33.7158 67.0016 33.7158C67.0359 33.7158 67.1137 33.7529 67.4564 34.3202Z"
        fill="black" />
    <path
        d="M64.4807 3.5302C60.8623 4.84356 58.9372 11.135 60.7062 14.673C63.7885 20.8377 75.2208 18.9483 75.8105 12.0867C76.1589 8.03942 72.4566 3.00329 68.463 3.0569C67.5517 3.0569 65.3333 2.93676 64.4807 3.5302ZM70.0094 8.34908C72.7165 10.7882 69.7413 15.0498 66.525 13.3881C65.3992 12.8252 64.9168 11.9675 64.9168 10.6273C64.9168 9.63562 65.0776 9.28718 65.8281 8.5367C66.6054 7.75941 66.927 7.62539 67.9723 7.62539C68.9372 7.62539 69.3661 7.78621 70.0094 8.34908Z"
        fill="black" />
</svg>
    