<svg width="81" height="80" viewBox="0 0 81 80" fill="none" xmlns="http://www.w3.org/2000/svg">
    <g clip-path="url(#clip0_75_425)">
        <path
            d="M20.9687 4.17188C17.5781 4.53125 13.6406 6.07812 10.6093 8.23438C8.93744 9.4375 6.43744 11.9375 5.23432 13.6406C-5.67436e-05 21.0625 -0.921932 30.875 2.76557 40.375C4.29682 44.3438 7.06244 49.0469 10.0624 52.8125C16.4062 60.7344 26.0781 68.4375 38.0937 75.125C40.3906 76.4062 40.6093 76.4062 42.9062 75.125C57.0624 67.2656 67.6093 58.2656 73.9374 48.6562C81.1406 37.7188 82.4531 26.2188 77.5781 16.6875C76.4062 14.375 75.0781 12.5625 73.2343 10.7031C69.1249 6.625 64.1718 4.35938 58.7031 4.10938C52.3749 3.8125 46.4218 6.54688 41.5937 11.9844L40.4687 13.25L39.7187 12.375C37.7031 9.9375 34.6562 7.48438 32.0781 6.17188C28.8749 4.5625 24.5624 3.78125 20.9687 4.17188ZM26.8281 9.21875C29.8281 10.0156 32.3749 11.5312 34.7968 13.9688C35.6562 14.8438 36.7968 16.1875 37.3281 16.9531C39.0937 19.5156 39.6874 20 40.8906 19.7812C41.6249 19.6406 42.1249 19.1875 43.0312 17.8281C46.1562 13.1719 49.7499 10.4062 54.2499 9.1875C56.0937 8.70312 59.8124 8.6875 61.6249 9.1875C66.8593 10.6094 70.9062 13.9375 73.4218 18.8438C75.0624 22.0312 75.7031 24.8594 75.6874 28.75C75.6406 43.1562 63.5937 57.9844 41.9531 70.2969L40.4999 71.125L39.0624 70.2969C25.2187 62.4219 15.1562 53.4219 9.81244 44.1719C9.32807 43.3281 8.93744 42.625 8.93744 42.5781C8.93744 42.5469 10.5312 42.5 12.4999 42.4688C17.1718 42.4062 16.7031 42.7031 18.8281 38.5L20.4218 35.3125L24.4843 43.4531C27.5624 49.6094 28.6562 51.6875 29.0156 51.9531C30.0156 52.7188 31.3749 52.5938 32.1718 51.6562C32.4062 51.375 34.3593 47.625 36.5156 43.3125C38.6562 39 40.4531 35.4688 40.4999 35.4688C40.5468 35.4688 41.2499 36.8125 42.0624 38.4375C42.8749 40.0781 43.7343 41.5938 43.9531 41.8125C44.1718 42.0156 44.5937 42.2656 44.8906 42.3438C45.2031 42.4375 49.0312 42.5 54.4843 42.5H63.5624L64.2499 42.1406C65.1093 41.7031 65.5156 41.1562 65.6093 40.2969C65.6874 39.5 65.3281 38.7031 64.6562 38.2031C64.2343 37.9062 63.9687 37.8906 55.6093 37.8125L46.9843 37.7344L44.7187 33.25C43.4687 30.7812 42.2812 28.5938 42.0781 28.375C41.2656 27.5156 39.7187 27.5312 38.9062 28.3906C38.6874 28.6406 36.6874 32.4531 34.4843 36.875L30.4687 44.9219L26.2968 36.6406C21.7187 27.5312 21.8749 27.7656 20.4218 27.7656C19.0468 27.7656 18.9374 27.8906 16.3124 33.0938L13.9374 37.8125H10.4218H6.90619L6.73432 37.375C6.40619 36.5312 5.81244 34.1094 5.56244 32.5781C5.18744 30.2969 5.21869 26.4688 5.62494 24.4375C7.09369 17.0781 12.0468 11.3906 18.7031 9.39062C20.3593 8.89062 21.4843 8.76562 23.6249 8.82812C24.9531 8.875 25.9843 9 26.8281 9.21875Z"
            fill="black" />
    </g>
    <defs>
        <clipPath id="clip0_75_425">
            <rect width="80" height="80" fill="white" transform="translate(0.5)" />
        </clipPath>
    </defs>
</svg>
    