<svg width="80" height="80" viewBox="0 0 80 80" fill="none" xmlns="http://www.w3.org/2000/svg">
    <path
        d="M33.9062 0.25C30.8438 1.04688 28.4375 3.60938 27.9219 6.60938C27.8281 7.1875 27.6719 7.65625 27.5781 7.65625C27.5 7.65625 27.0781 7.54688 26.6406 7.40625C25.5625 7.0625 23.5781 7.0625 22.4219 7.40625C20.9375 7.84375 20 8.40625 18.8906 9.51562C17.1719 11.2344 16.5625 12.7969 16.5625 15.5156C16.5625 17.0781 16.5469 17.2188 16.2969 17.1094C15.75 16.875 13.5938 16.8281 12.8438 17.0312C10.2656 17.7188 8.29688 19.8125 7.8125 22.3438C7.71875 22.8594 7.65625 29.5469 7.65625 40.6094C7.65625 54.8906 7.70312 58.3906 7.875 59.8438C8.5625 65.2812 9.89062 69 12.3281 72.2656C14.875 75.7031 18.9219 78.1562 23.7656 79.1875C26.3438 79.7344 28.1094 79.8906 31.7969 79.9062C34.6406 79.9062 35.7188 79.8594 36.9531 79.625C42.5469 78.5938 47.1719 76.25 50.8125 72.5781C52.5938 70.7812 52.9688 70.25 58.375 61.7188C64.7344 51.7031 66.375 49.2812 70.7656 43.5156C72.5469 41.1875 72.8906 38.8281 71.8125 36.4688C71.2344 35.2188 69.8125 33.8594 68.4062 33.2188C65.875 32.0469 63.2344 32.1719 61.0781 33.5312C60.3594 33.9844 56.1406 38.1094 54.6406 39.8438L53.7656 40.8594L53.75 28.5781C53.75 15.2656 53.7656 15.6406 52.8906 13.9062C52.0625 12.2812 50.2344 10.7812 48.4531 10.25C47.4062 9.9375 45.4531 9.92188 44.4844 10.2188L43.75 10.4375V8.76562C43.75 7.79688 43.6562 6.71875 43.5156 6.20312C42.3906 1.89062 38 -0.828125 33.9062 0.25ZM37.4062 5.21875C37.8594 5.48438 38.2656 5.90625 38.5469 6.375L38.9844 7.10938L39.0625 22.1406C39.1406 37.0156 39.1406 37.1719 39.4688 37.5938C40.5156 39 42.3438 39.0469 43.3594 37.6875C43.6562 37.2812 43.6719 36.9531 43.75 26.875C43.8438 15.3438 43.7812 15.9062 44.875 15.125C45.2812 14.8438 45.5938 14.7656 46.4062 14.7656C47.2188 14.7656 47.5312 14.8438 47.9375 15.125C49.0469 15.9219 48.9688 14.8438 49.0625 31.25L49.1406 46.0156L49.4844 46.6562C50.1719 47.9375 51.2656 48.5156 52.8281 48.4062C54 48.3281 54.6094 47.8438 55.7969 46.1094C58.2656 42.4531 62.9688 37.5625 64.375 37.1875C65.6875 36.8281 67.5312 37.7812 67.6875 38.8906C67.7812 39.5469 67.4844 40.1875 66.5 41.3906C63.7344 44.8125 60.6719 49.3125 54.1562 59.6094C52.0312 62.9531 49.9688 66.1875 49.5625 66.7812C46.8438 70.8438 42.0781 73.8125 36.4844 74.9531C35.375 75.1719 34.3594 75.2344 31.7188 75.2188C26.5469 75.2031 23.6562 74.6562 20.4688 73.0938C19.0312 72.375 18.6562 72.0938 17.3438 70.7969C14.8594 68.2969 13.6562 65.7188 12.7031 60.8594C12.4531 59.5781 12.4219 57.875 12.3906 41.3594C12.3281 21.2812 12.2656 22.5469 13.3594 21.875C14.2812 21.3125 15.4219 21.5625 16.0781 22.4844C16.3906 22.9219 16.4062 23.1094 16.4062 29.7969C16.4062 36.2031 16.4375 36.6875 16.7188 37.2969C17.0312 38.0156 17.7188 38.5312 18.5312 38.6875C19.25 38.8125 20.3438 38.2969 20.75 37.625C21.0781 37.0938 21.0781 36.9531 21.1875 25.6875C21.2969 12.9531 21.25 13.4531 22.4062 12.5781C23.7031 11.5938 25.375 11.5938 26.5312 12.5938C27.6562 13.5625 27.625 13.125 27.7188 25.6719C27.8281 38 27.7812 37.4375 28.7812 38.1562C29.1562 38.4219 29.5156 38.5156 30.1094 38.5156C31.0312 38.5156 31.6094 38.1719 32.1094 37.3281C32.4219 36.8125 32.4219 36.4375 32.5 21.875C32.5938 5.40625 32.5156 6.57812 33.5625 5.57812C34.5781 4.60938 36.125 4.46875 37.4062 5.21875Z"
        fill="black" />
</svg>
    