<svg width="80" height="80" viewBox="0 0 80 80" fill="none" xmlns="http://www.w3.org/2000/svg">
    <g clip-path="url(#clip0_198_1297)">
        <path opacity="0.992" fill-rule="evenodd" clip-rule="evenodd"
            d="M79.9219 23.9843C79.9219 25.8593 79.9219 27.7343 79.9219 29.6093C78.9814 35.6573 76.6637 41.126 72.9688 46.0156C69.2787 50.749 65.2423 55.2021 60.8594 59.3749C54.6683 65.0212 48.4183 70.5942 42.1094 76.0937C40.6511 77.0312 39.1927 77.0312 37.7344 76.0937C30.3498 69.7515 23.0581 63.2931 15.8594 56.7187C11.7192 52.7895 8.0473 48.4926 4.84375 43.8281C2.18948 39.5363 0.548866 34.9009 -0.078125 29.9218C-0.078125 27.9948 -0.078125 26.0676 -0.078125 24.1406C1.20064 15.2545 5.88814 8.8743 13.9844 4.99994C23.4189 1.52982 32.0647 2.91002 39.9219 9.14057C47.3213 3.23897 55.5505 1.7025 64.6094 4.53119C73.3573 8.14665 78.4616 14.631 79.9219 23.9843ZM35.0781 23.0468C38.3073 23.0468 41.5364 23.0468 44.7656 23.0468C44.7656 26.276 44.7656 29.5051 44.7656 32.7343C47.9948 32.7343 51.2239 32.7343 54.4531 32.7343C54.4531 35.9113 54.4531 39.0885 54.4531 42.2656C51.2239 42.2656 47.9948 42.2656 44.7656 42.2656C44.7656 45.4948 44.7656 48.7238 44.7656 51.9531C41.5364 51.9531 38.3073 51.9531 35.0781 51.9531C35.0781 48.7238 35.0781 45.4948 35.0781 42.2656C31.8489 42.2656 28.6198 42.2656 25.3906 42.2656C25.3906 39.0885 25.3906 35.9113 25.3906 32.7343C28.6198 32.7343 31.8489 32.7343 35.0781 32.7343C35.0781 29.5051 35.0781 26.276 35.0781 23.0468Z"
            fill="black" />
    </g>
    <defs>
        <clipPath id="clip0_198_1297">
            <rect width="80" height="80" fill="white" />
        </clipPath>
    </defs>
</svg>
    