<svg width="81" height="80" viewBox="0 0 81 80" fill="none" xmlns="http://www.w3.org/2000/svg">
    <g clip-path="url(#clip0_73_479)">
        <path
            d="M12.1875 7.81249C10.4688 7.98437 9.65625 8.39062 9.14062 9.35937C8.79688 10.0156 8.78125 10.2031 8.78125 13.2344V16.4062H5.73438C2.40625 16.4062 2 16.4844 1.25 17.2812C1.01562 17.5312 0.75 17.9375 0.671875 18.1719C0.4375 18.7969 0.4375 69.9531 0.671875 70.5781C1.01562 71.5156 2.15625 72.3438 3.09375 72.3438C3.32812 72.3438 4.375 72.0937 5.42188 71.7969C9.28125 70.6875 13.8438 69.8125 18 69.3594C20.2812 69.1094 26.8125 69.1094 28.8594 69.3594C32.3125 69.7812 35.6719 70.6094 38.5 71.7344C39.3438 72.0625 40.25 72.3438 40.5 72.3438C40.75 72.3438 41.6562 72.0625 42.5 71.7344C47.0938 69.8906 51.5 69.1562 57.6094 69.1562C63.4844 69.1719 69.625 70.0625 75.5 71.7812C77.3906 72.3281 77.875 72.3906 78.5625 72.2031C79.25 72.0156 80.0781 71.25 80.3281 70.5781C80.4531 70.2656 80.5 62.1562 80.5 44.3594C80.5 16.3125 80.5625 18.0312 79.625 17.1562C78.8906 16.4844 78.4844 16.4062 75.25 16.4062H72.2188V13.2344C72.2188 10.2031 72.2031 10.0156 71.8594 9.35937C71.2969 8.29687 70.5938 7.98437 68.2812 7.78124C65.7969 7.56249 61.5938 7.71874 59.0156 8.10937C51.7344 9.21874 46.0312 11.9844 41.8438 16.4375L40.5 17.8594L39.1562 16.4375C34.9844 11.9844 29.2969 9.23437 21.9844 8.10937C19.6875 7.74999 14.4375 7.59374 12.1875 7.81249ZM18.2344 13.125C26.8906 13.7344 33.2812 16.8594 37.0469 22.3281L37.8438 23.5V42.6875C37.8438 53.2344 37.8125 61.875 37.7656 61.875C37.7188 61.875 37.2656 61.5312 36.7812 61.125C33.7656 58.625 29.3594 56.5781 24.8438 55.5625C22.4375 55.0312 20 54.7344 16.7969 54.6094L14.0938 54.5V33.8281V13.1406L14.5312 13.0781C15.2812 12.9687 16.1562 12.9687 18.2344 13.125ZM66.4844 13.125H66.9062V33.7969V54.4844L64.375 54.5937C61.1094 54.7344 59.3281 54.9219 56.9062 55.4062C52.125 56.3594 47.3906 58.5 44.2188 61.125C43.7344 61.5312 43.2812 61.875 43.2344 61.875C43.1875 61.875 43.1562 53.25 43.1562 42.6875V23.5156L43.75 22.6406C46.5938 18.375 51 15.4687 56.8281 14C59.0625 13.4375 63.6094 12.9375 65.2656 13.0625C65.7031 13.0937 66.2344 13.125 66.4844 13.125ZM8.8125 40.0469L8.85938 58.375L9.25 58.9531C9.45312 59.2656 9.89062 59.6562 10.2031 59.8281C10.7344 60.125 10.9375 60.1406 14.3438 60.0469C17.2344 59.9844 18.3281 60.0156 20.0312 60.2344C23.8594 60.7187 26.3594 61.3906 29.0156 62.6406C30.8125 63.5 32.3594 64.4375 31.75 64.3125C28.9688 63.75 20.3594 63.625 16.4375 64.1094C13.4844 64.4687 10.9844 64.9062 8.34375 65.4844C7.15625 65.75 6.14062 65.9844 6.04688 65.9844C5.89062 66.0156 5.73438 22.3281 5.89062 21.9062C5.9375 21.7812 6.39062 21.7187 7.375 21.7187H8.78125L8.8125 40.0469ZM75.1094 43.9062C75.1094 58.5625 75.0625 66 74.9531 65.9844C74.875 65.9844 73.8438 65.75 72.6562 65.4844C70.0156 64.9062 67.5156 64.4687 64.5625 64.1094C60.6562 63.625 52.1094 63.75 49.25 64.3125C48.2344 64.5156 52.0156 62.5 53.9375 61.8125C55.8594 61.1094 57.8906 60.6406 60.4844 60.2969C62.6094 60 63.3906 59.9687 66.5781 60.0469C70.0625 60.1406 70.2656 60.125 70.7969 59.8281C71.1094 59.6562 71.5469 59.2656 71.75 58.9531L72.1406 58.375L72.1875 40.0469L72.2188 21.7031L73.6719 21.75L75.1094 21.7969V43.9062Z"
            fill="black" />
    </g>
    <defs>
        <clipPath id="clip0_73_479">
            <rect width="80" height="80" fill="white" transform="translate(0.5)" />
        </clipPath>
    </defs>
</svg>