<svg width="80" height="80" viewBox="0 0 80 80" fill="none" xmlns="http://www.w3.org/2000/svg">
    <path
        d="M43.1706 4.72022L32.8465 9.44038L31.8626 16.3246C31.3315 20.1039 30.9254 23.3029 30.9723 23.4284C31.0348 23.5538 32.4405 25.4827 34.1273 27.7408L37.173 31.818H44.0453H50.9176V37.087C50.9176 41.0231 50.8708 42.309 50.7302 42.2306C50.6365 42.1679 50.0586 41.7602 49.4338 41.3211C47.0597 39.5961 44.0141 38.3573 40.9371 37.8398C38.7973 37.4948 35.0332 37.5889 33.1121 38.0593C29.754 38.8747 26.9582 40.2547 24.4592 42.3561L23.3815 43.2656L22.663 42.7167C19.7423 40.4586 16.3374 38.8904 12.6513 38.075C11.1519 37.7457 10.5428 37.7143 5.49785 37.6516L0 37.5889V58.7747C0 70.4261 0.0312378 79.9605 0.0780945 79.9605C0.124951 79.9605 3.20187 79.0667 6.90355 77.969C12.9793 76.197 13.6978 76.0088 14.1976 76.1499C18.5084 77.4201 19.8829 77.7808 21.3979 78.1258C34.9082 81.168 49.4494 80.4937 62.3975 76.197C64.959 75.3502 66.7552 74.6602 74.7208 71.4925L80 69.3755L79.9063 65.1258C79.4846 47.9701 76.6419 34.6407 69.3167 15.713L68.6451 13.9567L61.2573 6.96269C57.1964 3.1207 53.7759 -0.0156174 53.6822 6.10352e-05C53.5728 6.10352e-05 48.8559 2.13276 43.1706 4.72022ZM58.7895 11.1026L64.6466 16.6382L65.1464 17.9241C69.3323 28.8072 71.8469 37.3693 73.3932 46.0412C74.3772 51.5925 75.0644 58.3513 75.1581 63.5576L75.205 66.2235L69.1917 68.6071C59.1644 72.6059 54.6661 73.8604 46.7005 74.8797C44.0609 75.209 35.6579 75.3502 32.7372 75.1149C26.9114 74.6131 20.9918 73.4213 15.697 71.665L13.8227 71.0377L9.52753 72.2922C7.16907 72.9822 5.10738 73.5938 4.96681 73.6252C4.70129 73.7036 4.68567 72.8881 4.68567 58.022V42.3247H7.16907C11.7298 42.3247 15.1347 43.297 18.4615 45.5238C20.5389 46.9037 20.4295 46.7626 20.0078 47.4683C19.0707 49.0207 17.6494 52.4237 17.8524 52.6275C17.9461 52.7216 22.2257 53.9448 22.2569 53.882C22.2726 53.8664 22.4444 53.3959 22.6474 52.8314C23.4596 50.4948 24.756 48.5189 26.6615 46.7155C33.1433 40.5527 43.3112 40.882 49.387 47.4683C50.777 48.9894 52.1515 51.2632 52.7294 53.0666C52.87 53.49 53.0105 53.8664 53.0105 53.882C53.0574 53.9291 57.337 52.7059 57.4151 52.6275C57.5244 52.5177 56.7435 50.4007 56.1656 49.2717L55.6033 48.1269V37.6202V27.1135H47.5595H39.5314L37.8758 24.9181C36.9699 23.7263 36.2358 22.6913 36.2358 22.6443C36.2358 22.5972 38.6099 22.5659 41.515 22.5659H46.7942L47.4502 19.7746C47.8094 18.2534 48.1218 16.8264 48.1374 16.6226C48.1843 16.2619 48.0906 16.2305 45.9977 15.7287C44.7013 15.4308 43.7798 15.2739 43.7173 15.368C43.6704 15.4464 43.5143 16.0423 43.3581 16.6853L43.0769 17.8614H39.7345C37.8914 17.8614 36.392 17.8144 36.392 17.736C36.4077 17.3439 37.1261 12.6708 37.1886 12.6394C37.376 12.4983 52.7294 5.5043 52.8231 5.53567C52.87 5.53567 55.5564 8.04472 58.7895 11.1026Z"
        fill="black" />
</svg>
    