<svg width="81" height="80" viewBox="0 0 81 80" fill="none" xmlns="http://www.w3.org/2000/svg">
    <path
        d="M39.8594 0.921989C39.1875 1.14074 38.6875 1.54699 38.4219 2.07824C38.2812 2.34386 37 6.85949 35.5781 12.1095C34.1562 17.3439 32.9531 21.7501 32.9062 21.9064C32.8437 22.1095 31.3125 21.297 25.1406 17.7657C17.7344 13.5314 17.4219 13.3751 16.5156 13.3126C15.7344 13.2657 15.4844 13.3126 15.0312 13.6251C14.25 14.1564 13.7812 14.922 13.7812 15.6876C13.7812 16.2345 14.3906 17.4064 18.2969 24.2189C20.7812 28.5626 22.7969 32.1251 22.7656 32.1564C22.75 32.172 18.25 33.4532 12.7812 34.9845C6.85937 36.6407 2.65625 37.8907 2.40625 38.0782C1.67187 38.6251 1.375 39.172 1.375 39.9689C1.375 40.797 1.79687 41.6407 2.375 42.0001C2.5625 42.1095 7.09375 43.4064 12.4219 44.8595C17.7656 46.3126 22.25 47.547 22.4062 47.5939C22.6094 47.6564 21.7812 49.2032 18.2187 55.4376C13.8594 63.0626 13.7812 63.2189 13.7812 64.0782C13.7812 65.5782 14.8125 66.6251 16.2812 66.6251C16.9375 66.6251 17.6719 66.2345 24.7969 62.1564C29.0937 59.7032 32.625 57.7032 32.6562 57.7345C32.6719 57.7501 33.8437 62.0157 35.2656 67.2032C36.6875 72.3907 37.9531 76.922 38.0781 77.2814C38.7344 79.0314 40.7344 79.5314 42 78.2501C42.4844 77.7657 42.6562 77.2189 45.1875 67.9689C46.6406 62.5939 47.8906 58.0939 47.9531 57.9532C48.0625 57.7345 49.375 58.4376 55.8594 62.1407C63.1719 66.3282 63.7031 66.6095 64.4531 66.6251C66 66.6564 67.2187 65.6407 67.2187 64.3126C67.2187 63.7657 66.6094 62.5939 62.7031 55.7814C60.2187 51.4376 58.2031 47.8751 58.2344 47.8439C58.25 47.8282 62.6406 46.6095 67.9844 45.1564C73.3281 43.7032 77.8906 42.4064 78.1406 42.2657C78.3906 42.1407 78.7656 41.8282 78.9844 41.5782C79.7656 40.6564 79.6562 38.7501 78.7812 38.0939C78.4687 37.8751 70.7812 35.7032 58.9062 32.5001L58.3437 32.3439L62.7812 24.5626C67.1094 16.9845 67.2187 16.7814 67.2187 15.9376C67.2187 14.922 66.8594 14.2189 66.0937 13.7345C65.0312 13.0782 64.8906 13.1407 56.3594 18.0157C49.7656 21.7814 48.5312 22.4376 48.4375 22.2189C48.375 22.0782 47.0469 17.5001 45.5 12.0626C43.9531 6.62511 42.5937 2.03136 42.4844 1.85949C42.0469 1.14074 40.7031 0.656364 39.8594 0.921989ZM43.0312 23.2189C44.5469 28.7657 45.9062 33.4689 46.0312 33.672C46.1562 33.8595 46.4844 34.1251 46.7812 34.2501C47.0625 34.3907 51.75 35.7189 57.1719 37.2032C62.6094 38.7032 67.0625 39.9532 67.0625 40.0001C67.0625 40.047 62.6875 41.297 57.3437 42.797C51.9844 44.2814 47.3906 45.6095 47.1094 45.7345C46.8437 45.8595 46.5 46.1407 46.3594 46.3439C46.1406 46.672 45.0937 50.3751 41.6562 62.922C41.0625 65.0939 40.5469 66.8751 40.5 66.8751C40.4531 66.8751 39.2031 62.422 37.7031 57.0001C36.2187 51.5626 34.875 46.8751 34.7344 46.5782C34.5937 46.2814 34.2656 45.9376 34 45.797C33.75 45.6564 29.0156 44.3126 23.5 42.8126C17.9844 41.3126 13.4687 40.047 13.4687 40.0001C13.4687 39.9532 17.9844 38.672 23.5156 37.1407C33.9062 34.2501 34.0156 34.2189 34.4687 33.2814C34.5781 33.0626 35.8906 28.422 37.3906 22.9376C38.8906 17.4689 40.1406 13.0314 40.1875 13.0626C40.2187 13.1095 41.5 17.672 43.0312 23.2189ZM57.8125 22.6251C57.7656 22.7501 53.3125 30.4845 53.2187 30.6095C53.1406 30.7032 50.7656 30.0782 50.5937 29.9064C50.3281 29.6564 49.6406 27.1407 49.8125 27.0782C49.8906 27.047 51.6719 26.0157 53.7812 24.7814C57.5 22.5939 57.9219 22.3595 57.8125 22.6251ZM27.25 24.9532C29.4219 26.2032 31.2344 27.2657 31.2656 27.297C31.3125 27.3282 31.1562 27.9532 30.9062 28.672L30.4844 30.0001L29.1875 30.3907C28.4844 30.6095 27.8437 30.7814 27.75 30.7814C27.6719 30.7814 26.625 29.0001 25.4219 26.8439C23.0937 22.672 23.0937 22.6564 23.2031 22.6564C23.25 22.6564 25.0625 23.6876 27.25 24.9532ZM55.7031 53.2345C56.9687 55.4376 57.9844 57.2501 57.9531 57.2814C57.9219 57.3126 56.1562 56.3126 54.0156 55.0782C51.8594 53.8282 50.0469 52.797 49.9687 52.7657C49.8281 52.7189 49.9062 52.2814 50.3594 50.5939C50.5 50.047 50.5625 50.0001 51.7187 49.6251C52.375 49.422 53.0312 49.2501 53.1562 49.2345C53.2969 49.2345 54.25 50.7032 55.7031 53.2345ZM29.2344 49.6876C29.875 49.8439 30.4375 50.0626 30.5 50.1564C30.6562 50.4064 31.3281 52.8126 31.2656 52.8751C31 53.0939 23.2656 57.5001 23.2187 57.4532C23.1094 57.3595 27.7656 49.3907 27.9219 49.3907C28.0156 49.3751 28.5937 49.5157 29.2344 49.6876Z"
        fill="black" />
</svg>
    