<svg width="80" height="80" viewBox="0 0 80 80" fill="none" xmlns="http://www.w3.org/2000/svg">
    <path opacity="0.99" fill-rule="evenodd" clip-rule="evenodd"
        d="M36.4717 0.0610479C51.6382 -0.659364 63.7631 4.99628 72.8462 17.028C80.8314 29.344 82.1317 42.3454 76.7469 56.0324C71.3692 67.5847 62.5601 75.158 50.3194 78.7525C34.6056 82.2937 21.1806 78.2958 10.0442 66.7586C0.627834 55.4378 -2.16769 42.6313 1.65759 28.3393C6.11094 15.0452 14.9851 6.17174 28.2802 1.71874C30.9994 0.973479 33.7299 0.420922 36.4717 0.0610479ZM39.2023 20.1483C40.841 20.0376 42.2712 20.5251 43.4931 21.611C48.4665 26.5841 53.44 31.5571 58.4134 36.5302C60.2842 39.1612 60.0566 41.599 57.7308 43.8435C55.7931 45.0055 53.8427 45.0055 51.8797 43.8435C49.634 41.5655 47.3585 39.3227 45.0534 37.1153C44.8909 43.4199 44.7934 49.7258 44.7608 56.0324C43.7051 59.0796 41.5921 60.2821 38.4221 59.6403C36.7871 58.9379 35.7144 57.7353 35.204 56.0324C35.1714 49.7258 35.0739 43.4199 34.9114 37.1153C32.6063 39.3227 30.3308 41.5655 28.0851 43.8435C24.477 45.675 21.9089 44.7324 20.3812 41.0157C20.0715 39.3286 20.4615 37.8335 21.5514 36.5302C26.5248 31.5571 31.4983 26.5841 36.4717 21.611C37.3155 20.9622 38.2255 20.4746 39.2023 20.1483Z"
        fill="black" />
</svg>
    