<svg width="79" height="79" viewBox="0 0 79 79" fill="none" xmlns="http://www.w3.org/2000/svg">
    <path
        d="M64.5221 1.68345C58.2468 2.59401 52.9121 3.4274 52.6808 3.55087C52.4033 3.67433 46.2976 10.9279 36.954 22.2096C28.5664 32.3492 21.6436 40.6986 21.5819 40.7758C21.5356 40.8375 21.181 40.7912 20.811 40.6523C19.1766 40.0813 17.1722 40.2356 15.5071 41.069C14.8286 41.4085 13.996 42.1185 12.4388 43.6464C11.2516 44.8039 10.2031 45.9305 10.0798 46.162C9.80225 46.7021 9.80225 47.7362 10.0798 48.2609C10.2031 48.4924 11.452 49.8196 12.8551 51.2241L15.4145 53.7705L11.6833 57.5054C8.21415 60.9779 7.90578 61.2557 7.39698 61.2557C6.33311 61.2557 4.83752 61.5798 3.91242 62.0119C2.07763 62.8761 0.551208 64.8825 0.150329 66.9505C-0.0501098 68.0154 -0.0501098 72.2441 0.150329 73.309C0.674555 76.087 2.91022 78.3248 5.68553 78.8495C6.7494 79.0502 10.974 79.0502 12.0379 78.8495C14.104 78.4483 16.1084 76.9204 16.9718 75.0838C17.4035 74.1578 17.7273 72.6608 17.7273 71.5959C17.7273 71.0866 18.0048 70.778 21.474 67.3055L25.2052 63.5706L27.7493 66.1326C29.1523 67.537 30.4783 68.7871 30.7096 68.9105C31.2338 69.1883 32.2668 69.1883 32.8065 68.9105C33.0378 68.7871 34.1633 67.7376 35.3197 66.5493C36.9386 64.8979 37.5245 64.188 37.8946 63.4163C38.7426 61.6724 38.8968 59.8204 38.3109 58.1845C38.1875 57.7986 38.1258 57.4437 38.1875 57.3974C38.2646 57.3356 46.606 50.4061 56.7513 41.995C72.2622 29.1237 75.2379 26.5927 75.4384 26.1142C75.5617 25.7901 76.4097 20.2496 77.3348 13.7985L79 2.06927L78.6454 1.34392C78.2599 0.525955 77.3657 -0.0296402 76.456 0.0012207C76.163 0.016655 70.7974 0.757454 64.5221 1.68345ZM73.8348 5.34112C73.8348 5.49545 73.2335 9.77045 72.4934 14.8325L71.152 24.0462L53.2821 38.8775C43.4606 47.0262 35.3505 53.7397 35.2734 53.786C35.1809 53.8477 34.3638 53.1378 33.4386 52.2118L31.758 50.5296L45.3262 36.9483C55.194 27.0711 58.9561 23.1973 59.1257 22.7652C59.4957 21.8855 59.3107 21.083 58.586 20.3576C57.8614 19.6323 57.0596 19.4471 56.1808 19.8175C55.7491 19.9872 51.879 23.7529 42.0113 33.6302L28.4431 47.2114L26.7625 45.5292C25.8374 44.6032 25.1281 43.7853 25.1898 43.6927C25.2361 43.6155 31.9431 35.4976 40.084 25.6667L54.9011 7.77956L64.0287 6.45231C69.0551 5.71151 73.3106 5.10962 73.5111 5.09418C73.7423 5.07875 73.8503 5.17136 73.8348 5.34112ZM19.6392 45.2051C20.0555 45.4057 22.5841 47.8288 27.0092 52.2581C32.7911 58.0764 33.7624 59.1104 33.932 59.666C34.225 60.6692 33.9475 61.3791 32.7602 62.6138L31.7735 63.6478L23.5555 55.4373L15.3374 47.2114L16.1855 46.3626C17.0797 45.4675 18.0202 44.8965 18.637 44.8965C18.8528 44.8965 19.3 45.0354 19.6392 45.2051ZM20.3484 58.7092L21.9674 60.3297L18.6832 63.6169L15.4145 66.8888L13.7648 65.222L12.0996 63.5706L15.3374 60.3297C17.1106 58.5548 18.6061 57.0887 18.6524 57.0887C18.6987 57.0887 19.4542 57.8141 20.3484 58.7092ZM10.5115 68.463C13.0864 71.0403 13.1018 71.0558 13.1018 71.7348C13.1018 72.7688 12.593 73.6794 11.8066 74.0498C11.2362 74.3276 10.8661 74.3739 8.80005 74.3739C6.05557 74.3739 5.46968 74.1887 4.93003 73.1392C4.66792 72.6145 4.62166 72.2287 4.62166 70.1915C4.62166 68.1234 4.66792 67.753 4.94545 67.182C5.31549 66.3949 6.20976 65.8856 7.24279 65.8856C7.93662 65.8856 7.93662 65.9011 10.5115 68.463Z"
        fill="#D82596" />
</svg>
    