<svg width="79" height="79" viewBox="0 0 79 79" fill="none" xmlns="http://www.w3.org/2000/svg">
    <g clip-path="url(#clip0_495_1338)">
        <path opacity="0.985" fill-rule="evenodd" clip-rule="evenodd"
            d="M32.9424 -0.0771484C37.2627 -0.0771484 41.583 -0.0771484 45.9033 -0.0771484C50.5778 1.52728 52.5322 4.81895 51.7666 9.79785C56.7558 9.77215 61.7447 9.79785 66.7334 9.875C69.2279 10.5179 70.7965 12.0866 71.4395 14.5811C71.5424 18.2328 71.5424 21.8844 71.4395 25.5361C70.6606 26.9859 69.4518 27.5003 67.8135 27.0791C67.0702 42.2507 66.3245 57.4231 65.5762 72.5967C64.9565 75.9161 63.0278 78.0248 59.79 78.9229C46.2119 78.9229 32.6338 78.9229 19.0557 78.9229C15.8165 78.0235 13.8878 75.9148 13.2695 72.5967C12.5213 57.4231 11.7755 42.2507 11.0322 27.0791C9.39386 27.5003 8.18519 26.9859 7.40625 25.5361C7.30338 21.8844 7.30338 18.2328 7.40625 14.5811C8.04916 12.0866 9.61784 10.5179 12.1123 9.875C17.101 9.79785 22.0899 9.77215 27.0791 9.79785C26.3135 4.81895 28.268 1.52728 32.9424 -0.0771484ZM34.4854 4.86035C38.041 4.79132 41.5898 4.86847 45.1318 5.0918C45.8262 5.37467 46.3148 5.86328 46.5977 6.55762C46.7964 7.62796 46.8735 8.70804 46.8291 9.79785C41.8916 9.79785 36.9541 9.79785 32.0166 9.79785C31.9722 8.70804 32.0493 7.62796 32.2481 6.55762C32.6833 5.55821 33.4292 4.99245 34.4854 4.86035ZM13.501 14.7354C30.7822 14.7096 48.0635 14.7354 65.3447 14.8125C66.0391 14.8896 66.4248 15.2754 66.502 15.9697C66.5791 18.0263 66.6049 20.0837 66.5791 22.1416C48.475 22.1416 30.3707 22.1416 12.2666 22.1416C12.2409 20.0837 12.2666 18.0263 12.3438 15.9697C12.4487 15.2738 12.8345 14.8623 13.501 14.7354ZM16.124 27.0791C31.6566 27.0791 47.1891 27.0791 62.7217 27.0791C61.9735 42.0951 61.2278 57.1135 60.4844 72.1338C60.1051 73.1852 59.3594 73.7766 58.2471 73.9082C45.6977 74.0111 33.1481 74.0111 20.5986 73.9082C19.4863 73.7766 18.7406 73.1852 18.3613 72.1338C17.6179 57.1135 16.8722 42.0951 16.124 27.0791Z"
            fill="#D82596" />
        <path opacity="0.993" fill-rule="evenodd" clip-rule="evenodd"
            d="M26.1534 32.0166C27.6747 31.6849 28.7806 32.1992 29.4707 33.5596C29.5737 44.8746 29.5737 56.1899 29.4707 67.5049C29.0376 68.583 28.2405 69.0973 27.0791 69.0479C25.9177 69.0973 25.1206 68.583 24.6875 67.5049C24.5846 56.1899 24.5846 44.8746 24.6875 33.5596C24.9995 32.8622 25.4882 32.3479 26.1534 32.0166Z"
            fill="#D82596" />
        <path opacity="0.993" fill-rule="evenodd" clip-rule="evenodd"
            d="M38.4971 32.0166C40.0185 31.6849 41.1243 32.1992 41.8145 33.5596C41.9174 44.8746 41.9174 56.1899 41.8145 67.5049C41.3814 68.583 40.5843 69.0973 39.4229 69.0479C38.2615 69.0973 37.4644 68.583 37.0313 67.5049C36.9284 56.1899 36.9284 44.8746 37.0313 33.5596C37.3433 32.8622 37.8319 32.3479 38.4971 32.0166Z"
            fill="#D82596" />
        <path opacity="0.993" fill-rule="evenodd" clip-rule="evenodd"
            d="M50.8409 32.0166C52.3622 31.6849 53.4681 32.1992 54.1582 33.5596C54.2612 44.8746 54.2612 56.1899 54.1582 67.5049C53.7251 68.583 52.928 69.0973 51.7666 69.0479C50.6052 69.0973 49.8081 68.583 49.375 67.5049C49.2721 56.1899 49.2721 44.8746 49.375 33.5596C49.687 32.8622 50.1757 32.3479 50.8409 32.0166Z"
            fill="#D82596" />
    </g>
    <defs>
        <clipPath id="clip0_495_1338">
            <rect width="79" height="79" fill="white" />
        </clipPath>
    </defs>
</svg>