<svg width="79" height="79" viewBox="0 0 79 79" fill="none" xmlns="http://www.w3.org/2000/svg">
    <g clip-path="url(#clip0_154_653)">
        <path opacity="0.989" fill-rule="evenodd" clip-rule="evenodd"
            d="M32.171 -0.0771484C37.0056 -0.0771484 41.8403 -0.0771484 46.6749 -0.0771484C48.8201 0.497266 50.2859 1.83451 51.0723 3.93457C51.2947 6.49744 51.3718 9.06906 51.3038 11.6494C53.9322 11.5915 56.5553 11.6687 59.1729 11.8809C63.8472 13.109 66.496 16.1179 67.1192 20.9072C67.145 23.1188 67.1706 25.3305 67.1964 27.542C67.2161 30.0174 67.139 32.4861 66.9649 34.9482C66.3234 37.2357 64.8575 38.7015 62.5675 39.3457C58.7619 39.4229 54.9558 39.4486 51.1495 39.4229C51.1751 38.5471 51.1493 37.6727 51.0723 36.7998C49.8894 35.1539 48.7065 35.1539 47.5235 36.7998C47.4465 37.6727 47.4208 38.5471 47.4464 39.4229C42.0974 39.4229 36.7485 39.4229 31.3995 39.4229C31.4251 38.5471 31.3993 37.6727 31.3223 36.7998C30.1394 35.1539 28.9565 35.1539 27.7735 36.7998C27.6965 37.6727 27.6708 38.5471 27.6964 39.4229C23.89 39.4486 20.084 39.4229 16.2784 39.3457C13.9883 38.7015 12.5225 37.2357 11.8809 34.9482C11.7069 32.4861 11.6298 30.0174 11.6495 27.542C11.6334 24.9145 11.7105 22.2914 11.8809 19.6729C13.1091 14.9986 16.1179 12.3498 20.9073 11.7266C23.1182 11.6494 25.3299 11.6237 27.5421 11.6494C27.474 9.06906 27.5512 6.49744 27.7735 3.93457C28.5376 1.80669 30.0034 0.469451 32.171 -0.0771484ZM33.0968 3.93457C37.4783 3.86126 41.85 3.93841 46.212 4.16602C46.7562 4.50794 47.0906 4.99655 47.2149 5.63184C47.2921 7.63703 47.3178 9.64289 47.2921 11.6494C42.046 11.6494 36.7999 11.6494 31.5538 11.6494C31.528 9.64289 31.5538 7.63703 31.6309 5.63184C31.7704 4.74764 32.2591 4.18189 33.0968 3.93457Z"
            fill="#D82596" />
        <path opacity="0.99" fill-rule="evenodd" clip-rule="evenodd"
            d="M59.0186 78.9229C45.9547 78.9229 32.891 78.9229 19.8272 78.9229C15.6289 77.8878 12.9802 75.2648 11.8809 71.0537C11.7053 65.8886 11.6282 60.7197 11.6494 55.5469C11.7009 50.7894 11.7523 46.0318 11.8037 41.2744C13.1834 42.2982 14.7264 42.9411 16.4326 43.2031C20.1868 43.2803 23.9414 43.306 27.6963 43.2803C27.6706 45.4924 27.6963 47.7041 27.7735 49.915C28.3576 51.0942 29.2577 51.4285 30.4737 50.918C30.8466 50.6614 31.1294 50.3272 31.3223 49.915C31.3994 47.7041 31.4252 45.4924 31.3994 43.2803C36.7485 43.2803 42.0973 43.2803 47.4463 43.2803C47.4205 45.4924 47.4463 47.7041 47.5235 49.915C48.1076 51.0942 49.0076 51.4285 50.2237 50.918C50.5966 50.6614 50.8794 50.3272 51.0723 49.915C51.1494 47.7041 51.1752 45.4924 51.1494 43.2803C54.9044 43.306 58.6589 43.2803 62.4131 43.2031C64.1193 42.9411 65.6623 42.2982 67.042 41.2744C67.0934 46.0318 67.1449 50.7894 67.1963 55.5469C67.2176 60.7197 67.1405 65.8886 66.9649 71.0537C65.8657 75.2648 63.2168 77.8878 59.0186 78.9229Z"
            fill="#D82596" />
        <path opacity="0.969" fill-rule="evenodd" clip-rule="evenodd"
            d="M-0.0771484 62.876C-0.0771484 59.2243 -0.0771484 55.5727 -0.0771484 51.921C1.24861 48.1688 3.92309 46.6258 7.94629 47.2921C7.89694 55.1658 7.94837 63.035 8.10059 70.8995C3.63874 69.9863 0.912826 67.3119 -0.0771484 62.876Z"
            fill="#D82596" />
        <path opacity="0.969" fill-rule="evenodd" clip-rule="evenodd"
            d="M78.9229 51.921C78.9229 55.5727 78.9229 59.2243 78.9229 62.876C77.9329 67.3119 75.2069 69.9863 70.7451 70.8995C70.8973 63.035 70.9488 55.1658 70.8994 47.2921C74.9226 46.6258 77.5971 48.1688 78.9229 51.921Z"
            fill="#D82596" />
    </g>
    <defs>
        <clipPath id="clip0_154_653">
            <rect width="79" height="79" fill="white" />
        </clipPath>
    </defs>
</svg>
    