<svg width="79" height="79" viewBox="0 0 79 79" fill="none" xmlns="http://www.w3.org/2000/svg">
    <path
        d="M55.02 17.6179C55.02 17.2299 54.7026 16.9125 54.3146 16.9125H20.4575C20.0695 16.9125 19.7521 17.2299 19.7521 17.6179V21.85C19.7521 22.238 20.0695 22.5554 20.4575 22.5554H54.3146C54.7026 22.5554 55.02 22.238 55.02 21.85V17.6179ZM54.3146 29.609H20.4575C20.0695 29.609 19.7521 29.9264 19.7521 30.3143V34.5465C19.7521 34.9344 20.0695 35.2518 20.4575 35.2518H54.3146C54.7026 35.2518 55.02 34.9344 55.02 34.5465V30.3143C55.02 29.9264 54.7026 29.609 54.3146 29.609ZM36.6807 42.3054H20.4575C20.0695 42.3054 19.7521 42.6228 19.7521 43.0107V47.2429C19.7521 47.6308 20.0695 47.9482 20.4575 47.9482H36.6807C37.0686 47.9482 37.3861 47.6308 37.3861 47.2429V43.0107C37.3861 42.6228 37.0686 42.3054 36.6807 42.3054ZM32.4486 69.4616H12.6986V7.39021H62.0736V37.7206C62.0736 38.1085 62.391 38.4259 62.7789 38.4259H67.7164C68.1044 38.4259 68.4218 38.1085 68.4218 37.7206V3.86342C68.4218 2.30282 67.161 1.04199 65.6003 1.04199H9.17177C7.61117 1.04199 6.35034 2.30282 6.35034 3.86342V72.9884C6.35034 74.549 7.61117 75.8099 9.17177 75.8099H32.4486C32.8365 75.8099 33.1539 75.4924 33.1539 75.1045V70.167C33.1539 69.7791 32.8365 69.4616 32.4486 69.4616ZM63.9075 62.9018C66.4644 60.583 68.0691 57.2325 68.0691 53.5029C68.0691 46.4934 62.3822 40.8065 55.3727 40.8065C48.3632 40.8065 42.6762 46.4934 42.6762 53.5029C42.6762 57.2325 44.2809 60.583 46.8378 62.9018C41.8122 65.7673 38.3559 71.0751 38.0914 77.1941C38.0738 77.5909 38.4 77.9259 38.7968 77.9259H43.0377C43.408 77.9259 43.7166 77.635 43.7431 77.2558C44.087 71.1545 49.1743 66.2875 55.3727 66.2875C61.571 66.2875 66.6584 71.1545 67.0023 77.2558C67.0199 77.6262 67.3285 77.9259 67.7076 77.9259H71.9486C72.3541 77.9259 72.6716 77.5909 72.6539 77.1941C72.3982 71.0663 68.9332 65.7673 63.9075 62.9018ZM55.3727 46.4494C59.2698 46.4494 62.4262 49.6058 62.4262 53.5029C62.4262 57.4 59.2698 60.5565 55.3727 60.5565C51.4756 60.5565 48.3191 57.4 48.3191 53.5029C48.3191 49.6058 51.4756 46.4494 55.3727 46.4494Z"
        fill="#D82596" />
</svg>
    