<svg width="79" height="79" viewBox="0 0 79 79" fill="none" xmlns="http://www.w3.org/2000/svg">
    <path opacity="0.978" fill-rule="evenodd" clip-rule="evenodd"
        d="M38.6514 3.93458C40.0142 3.87278 41.2999 4.15567 42.5088 4.78321C47.9606 8.48634 53.4125 12.1895 58.8643 15.8926C60.2372 16.8119 61.1374 18.072 61.5645 19.6729C61.6674 32.8395 61.6674 46.0062 61.5645 59.1729C61.2408 60.5156 60.5464 61.6212 59.4815 62.4902C53.6603 66.5109 47.797 70.4713 41.8916 74.3711C39.7762 75.2139 37.7704 75.0082 35.8741 73.7539C30.3976 69.9611 24.8943 66.2066 19.3643 62.4902C18.2993 61.6212 17.605 60.5156 17.2813 59.1729C17.1784 46.0062 17.1784 32.8395 17.2813 19.6729C17.7559 17.8611 18.8102 16.498 20.4444 15.584C25.5876 12.0866 30.7309 8.58921 35.8741 5.09181C36.7457 4.53669 37.6715 4.15095 38.6514 3.93458ZM39.2686 9.02638C45.103 12.7247 50.8378 16.5821 56.4727 20.5986C56.6514 26.8645 56.7285 33.1391 56.7041 39.4229C56.7285 45.7066 56.6514 51.9812 56.4727 58.2471C50.8527 62.1951 45.1695 66.0525 39.4229 69.8193C33.6996 66.0192 28.0163 62.1617 22.3731 58.2471C22.1944 51.9812 22.1173 45.7066 22.1416 39.4229C22.1173 33.1391 22.1944 26.8645 22.3731 20.5986C27.9901 16.702 33.6219 12.8447 39.2686 9.02638Z"
        fill="#D82596" />
    <path opacity="0.957" fill-rule="evenodd" clip-rule="evenodd"
        d="M38.4971 17.667C39.9192 17.5598 41.2564 17.8426 42.5088 18.5156C45.2081 20.4053 47.9339 22.2569 50.6865 24.0703C51.9046 25.2365 52.0846 26.548 51.2266 28.0049C50.4543 28.7128 49.5543 28.9443 48.5264 28.6992C45.4918 26.7191 42.4574 24.7389 39.4229 22.7588C36.3883 24.7389 33.3539 26.7191 30.3194 28.6992C27.8429 28.9487 26.7886 27.8429 27.1563 25.3819C27.3723 24.8569 27.7066 24.4197 28.1592 24.0703C30.9119 22.2569 33.6377 20.4053 36.3369 18.5156C37.0384 18.1368 37.7583 17.854 38.4971 17.667Z"
        fill="#D82596" />
    <path opacity="0.958" fill-rule="evenodd" clip-rule="evenodd"
        d="M39.2685 30.7822C40.4836 30.8288 41.6152 31.1632 42.6631 31.7852C45.3623 33.6748 48.0882 35.5264 50.8408 37.3398C51.8544 38.4114 52.0345 39.62 51.3809 40.9658C50.5601 41.8402 49.5572 42.1232 48.3721 41.8145C45.5166 39.9496 42.6879 38.0467 39.8857 36.1055C39.5771 36.0026 39.2685 36.0026 38.96 36.1055C36.1578 38.0467 33.329 39.9496 30.4736 41.8145C27.9277 42.1488 26.8219 41.043 27.1562 38.4971C27.32 38.0246 27.6028 37.6389 28.0049 37.3398C31.1005 35.2218 34.2379 33.1646 37.417 31.168C38.0553 31.0385 38.6725 30.9098 39.2685 30.7822Z"
        fill="#D82596" />
</svg>