<svg width="79" height="79" viewBox="0 0 79 79" fill="none" xmlns="http://www.w3.org/2000/svg">
    <path opacity="0.99" fill-rule="evenodd" clip-rule="evenodd"
        d="M38.6514 3.93458C40.0142 3.87278 41.2999 4.15567 42.5088 4.78321C47.7796 8.42164 53.0772 12.0219 58.4014 15.584C60.0356 16.498 61.0899 17.8611 61.5645 19.6729C61.6674 32.8395 61.6674 46.0062 61.5645 59.1729C61.2408 60.5155 60.5464 61.6212 59.4815 62.4902C53.6603 66.5109 47.797 70.4712 41.8916 74.3711C39.7762 75.2139 37.7704 75.0082 35.8741 73.7539C30.7309 70.2565 25.5876 66.7592 20.4444 63.2617C18.8102 62.3477 17.7559 60.9846 17.2813 59.1729C17.1784 46.0062 17.1784 32.8395 17.2813 19.6729C17.7559 17.8611 18.8102 16.498 20.4444 15.584C25.7685 12.0219 31.0662 8.42164 36.337 4.78321C37.0983 4.41859 37.8697 4.1357 38.6514 3.93458ZM38.6514 17.8213C39.9711 17.7406 41.2055 18.0234 42.3545 18.6699C45.0538 20.5596 47.7796 22.4112 50.5323 24.2246C51.6761 25.1897 51.9075 26.347 51.2266 27.6963C50.3868 28.6087 49.3838 28.8401 48.2178 28.3906C45.3451 26.3655 42.4135 24.4368 39.4229 22.6045C36.4323 24.4368 33.5007 26.3655 30.628 28.3906C27.9495 28.8495 26.8952 27.7437 27.4649 25.0732C27.7477 24.7904 28.0307 24.5074 28.3135 24.2246C31.0662 22.4112 33.792 20.5596 36.4912 18.6699C37.1882 18.2757 37.9083 17.9929 38.6514 17.8213ZM39.2686 30.9365C40.4298 31.0083 41.5099 31.3425 42.5088 31.9395C45.2081 33.8291 47.9339 35.6807 50.6866 37.4941C51.6912 38.4587 51.8711 39.5645 51.2266 40.8115C50.5141 41.6683 49.614 41.9512 48.5264 41.6602C45.5096 39.6449 42.475 37.6648 39.4229 35.7197C36.5463 37.5185 33.7175 39.3959 30.9366 41.3516C28.4086 42.2178 27.2 41.3178 27.3106 38.6514C27.4743 38.1789 27.7571 37.7932 28.1592 37.4941C31.2549 35.3761 34.3922 33.3189 37.5713 31.3223C38.1595 31.1996 38.7253 31.0709 39.2686 30.9365Z"
        fill="#D82596" />
</svg>
    