<svg width="79" height="79" viewBox="0 0 79 79" fill="none" xmlns="http://www.w3.org/2000/svg">
    <g clip-path="url(#clip0_198_1038)">
        <path
            d="M76.1786 8.56324H56.0054C51.6762 8.56324 47.4441 9.80643 43.8027 12.1517L39.5 14.9114L35.1973 12.1517C31.5595 9.80688 27.3227 8.56092 22.9946 8.56324H2.82143C1.26083 8.56324 0 9.82406 0 11.3847V61.465C0 63.0256 1.26083 64.2864 2.82143 64.2864H22.9946C27.3238 64.2864 31.5559 65.5296 35.1973 67.875L39.1121 70.3966C39.2267 70.4671 39.3589 70.5112 39.4912 70.5112C39.6234 70.5112 39.7557 70.476 39.8703 70.3966L43.785 67.875C47.4353 65.5296 51.6762 64.2864 56.0054 64.2864H76.1786C77.7392 64.2864 79 63.0256 79 61.465V11.3847C79 9.82406 77.7392 8.56324 76.1786 8.56324ZM22.9946 57.9382H6.34821V14.9114H22.9946C26.1158 14.9114 29.1489 15.802 31.7675 17.486L36.0702 20.2457L36.6786 20.6425V61.3769C32.4817 59.1197 27.7911 57.9382 22.9946 57.9382ZM72.6518 57.9382H56.0054C51.2089 57.9382 46.5183 59.1197 42.3214 61.3769V20.6425L42.9298 20.2457L47.2325 17.486C49.8511 15.802 52.8842 14.9114 56.0054 14.9114H72.6518V57.9382ZM29.3517 26.1972H12.9698C12.6259 26.1972 12.3438 26.4969 12.3438 26.8584V30.8261C12.3438 31.1876 12.6259 31.4873 12.9698 31.4873H29.3429C29.6867 31.4873 29.9689 31.1876 29.9689 30.8261V26.8584C29.9777 26.4969 29.6955 26.1972 29.3517 26.1972ZM49.0223 26.8584V30.8261C49.0223 31.1876 49.3045 31.4873 49.6483 31.4873H66.0214C66.3653 31.4873 66.6474 31.1876 66.6474 30.8261V26.8584C66.6474 26.4969 66.3653 26.1972 66.0214 26.1972H49.6483C49.3045 26.1972 49.0223 26.4969 49.0223 26.8584ZM29.3517 38.5409H12.9698C12.6259 38.5409 12.3438 38.8407 12.3438 39.2022V43.1698C12.3438 43.5313 12.6259 43.8311 12.9698 43.8311H29.3429C29.6867 43.8311 29.9689 43.5313 29.9689 43.1698V39.2022C29.9777 38.8407 29.6955 38.5409 29.3517 38.5409ZM66.0303 38.5409H49.6483C49.3045 38.5409 49.0223 38.8407 49.0223 39.2022V43.1698C49.0223 43.5313 49.3045 43.8311 49.6483 43.8311H66.0214C66.3653 43.8311 66.6474 43.5313 66.6474 43.1698V39.2022C66.6562 38.8407 66.3741 38.5409 66.0303 38.5409Z"
            fill="#D82596" />
    </g>
    <defs>
        <clipPath id="clip0_198_1038">
            <rect width="79" height="79" fill="white" />
        </clipPath>
    </defs>
</svg>
    