<svg width="79" height="79" viewBox="0 0 79 79" fill="none" xmlns="http://www.w3.org/2000/svg">
    <path opacity="0.963" fill-rule="evenodd" clip-rule="evenodd"
        d="M41.7373 4.86037C43.1982 4.78152 44.6382 4.9101 46.0576 5.24611C53.6182 7.97203 61.1787 10.6979 68.7393 13.4238C72.9155 15.7337 74.587 19.2569 73.7539 23.9932C70.9864 31.8841 68.1577 39.7532 65.2676 47.6006C62.772 51.7598 59.146 53.2772 54.3897 52.1524C53.2659 51.886 52.263 51.3975 51.3809 50.6865C50.3849 48.4546 51.0792 47.066 53.4639 46.5205C54.4028 46.7563 55.3285 47.0391 56.2412 47.3692C58.0329 47.647 59.4473 47.0556 60.4844 45.5947C63.271 38.1607 65.9969 30.7031 68.6621 23.2217C69.3237 20.7134 68.4751 18.939 66.1162 17.8985C58.8129 15.2754 51.5094 12.6524 44.2061 10.0293C42.0305 9.66408 40.4617 10.4613 39.5 12.4209C37.7606 17.3308 35.9604 22.2168 34.0996 27.0791C33.155 28.0226 32.0493 28.2541 30.7822 27.7735C29.7023 27.0561 29.3166 26.0532 29.625 24.7647C31.458 19.4709 33.4125 14.2248 35.4883 9.02638C37.0189 6.80014 39.1019 5.41147 41.7373 4.86037Z"
        fill="#D82596" />
    <path opacity="0.946" fill-rule="evenodd" clip-rule="evenodd"
        d="M44.8233 14.7354C47.5727 14.8872 48.7813 16.3272 48.4492 19.0557C47.9473 20.6377 46.8672 21.4607 45.209 21.5244C42.6665 21.1922 41.5864 19.7522 41.9688 17.2041C42.4286 15.7917 43.38 14.9688 44.8233 14.7354Z"
        fill="#D82596" />
    <path opacity="0.951" fill-rule="evenodd" clip-rule="evenodd"
        d="M49.1435 25.3819C52.3038 25.1219 53.7181 26.5619 53.3867 29.7022C52.6303 31.5084 51.2674 32.2541 49.2978 31.9395C47.3225 31.2044 46.5253 29.79 46.9062 27.6963C47.1307 27.1699 47.4136 26.6812 47.7549 26.2305C48.1812 25.8642 48.6441 25.5812 49.1435 25.3819Z"
        fill="#D82596" />
    <path opacity="0.968" fill-rule="evenodd" clip-rule="evenodd"
        d="M12.4209 32.7881C21.1131 32.7623 29.8052 32.7881 38.4971 32.8653C42.6373 33.7139 45.1318 36.2084 45.9805 40.3487C46.0834 49.0407 46.0834 57.7328 45.9805 66.4248C45.1144 70.634 42.5685 73.1286 38.3428 73.9082C29.7535 74.0111 21.1644 74.0111 12.5752 73.9082C8.28061 73.111 5.73471 70.5651 4.9375 66.2705C4.83463 57.6299 4.83463 48.9893 4.9375 40.3487C5.81535 36.205 8.30982 33.6847 12.4209 32.7881ZM12.8838 37.8799C21.2674 37.8541 29.6509 37.8799 38.0342 37.9571C39.5 38.3942 40.4516 39.3457 40.8887 40.8115C40.9916 49.1436 40.9916 57.4756 40.8887 65.8076C40.5043 67.4264 39.5014 68.4293 37.8799 68.8164C29.5992 68.9193 21.3187 68.9193 13.0381 68.8164C11.5208 68.3278 10.5179 67.3248 10.0293 65.8076C9.92643 57.527 9.92643 49.2465 10.0293 40.9658C10.4284 39.4101 11.3799 38.3814 12.8838 37.8799Z"
        fill="#D82596" />
    <path opacity="0.95" fill-rule="evenodd" clip-rule="evenodd"
        d="M54.2353 35.874C57.3131 35.7078 58.676 37.148 58.3242 40.1943C57.5653 42.1299 56.1509 42.8758 54.081 42.4316C52.2748 41.6752 51.5291 40.3123 51.8437 38.3427C52.258 37.1315 53.0552 36.3085 54.2353 35.874Z"
        fill="#D82596" />
    <path opacity="0.946" fill-rule="evenodd" clip-rule="evenodd"
        d="M16.7412 41.7373C19.4866 41.7824 20.7468 43.171 20.5215 45.9033C19.9137 47.8157 18.6022 48.6643 16.5869 48.4492C14.9081 47.9786 13.9823 46.8729 13.8096 45.1318C14.0316 43.3173 15.0088 42.1857 16.7412 41.7373Z"
        fill="#D82596" />
    <path opacity="0.943" fill-rule="evenodd" clip-rule="evenodd"
        d="M33.251 41.7373C36.1677 41.9529 37.3763 43.4958 36.877 46.3662C35.9492 48.2054 34.4834 48.8484 32.4795 48.2949C30.6394 47.3654 29.9964 45.8996 30.5508 43.8975C31.0947 42.7148 31.9947 41.9948 33.251 41.7373Z"
        fill="#D82596" />
    <path opacity="0.951" fill-rule="evenodd" clip-rule="evenodd"
        d="M24.456 50.0694C27.6163 49.8094 29.0306 51.2494 28.6992 54.3897C27.9428 56.1959 26.5799 56.9416 24.6103 56.627C22.635 55.8919 21.8378 54.4775 22.2187 52.3838C22.4432 51.8574 22.7261 51.3687 23.0674 50.918C23.4937 50.5517 23.9566 50.2687 24.456 50.0694Z"
        fill="#D82596" />
    <path opacity="0.946" fill-rule="evenodd" clip-rule="evenodd"
        d="M16.4326 58.2471C19.3352 58.141 20.6983 59.5296 20.5214 62.4131C20.0015 63.9603 18.9214 64.8347 17.2812 65.0362C14.4488 64.5142 13.4201 62.8683 14.1953 60.0987C14.7197 59.2075 15.4654 58.5903 16.4326 58.2471Z"
        fill="#D82596" />
    <path opacity="0.945" fill-rule="evenodd" clip-rule="evenodd"
        d="M32.9424 58.2471C35.345 58.1082 36.7337 59.2139 37.1084 61.5645C36.8917 63.6072 35.7602 64.7644 33.7139 65.0362C30.8071 64.4691 29.8042 62.7719 30.7051 59.9444C31.2529 59.0945 31.9988 58.5288 32.9424 58.2471Z"
        fill="#D82596" />
</svg>