<svg width="91" height="91" viewBox="0 0 91 91" fill="none" xmlns="http://www.w3.org/2000/svg">
    <g clip-path="url(#clip0_19_30)">
        <path
            d="M18.0253 6.05469C11.9609 9.0957 7.02141 11.6445 7.07415 11.7148C7.10931 11.7852 12.1191 14.3164 18.2011 17.3574L29.2402 22.8594L40.4023 17.2871L51.5644 11.6973L40.4023 6.10742C34.2675 3.03125 29.205 0.517578 29.1523 0.517578C29.0995 0.517578 24.0898 3.01367 18.0253 6.05469ZM31.0156 9.79883C32.9667 10.6777 32.9843 12.541 31.0507 13.5254C29.9784 14.0703 27.9042 13.9648 26.9199 13.2969C25.4081 12.2949 25.5839 10.748 27.2714 9.9043C28.3788 9.35938 29.9433 9.30664 31.0156 9.79883Z"
            fill="#D82596" />
        <path
            d="M5.10547 28.8182L5.1582 43.619L16.2324 49.0331C22.3145 52.0214 27.3945 54.4296 27.5176 54.3768C27.6934 54.3241 27.7461 51.3182 27.7461 39.787V25.285L16.4961 19.66C10.3086 16.5663 5.21094 14.035 5.1582 14.035C5.10547 14.035 5.08789 20.6972 5.10547 28.8182ZM9.35938 19.0272C10.5898 19.537 11.5742 21.3475 11.5742 23.1229C11.5742 24.705 10.9766 25.4608 9.74609 25.4608C8.09375 25.4608 6.44141 22.455 6.98633 20.4159C7.19727 19.6776 8.02344 18.7811 8.51562 18.7811C8.65625 18.7811 9.02539 18.8866 9.35938 19.0272ZM17.2871 30.9276C19.5898 33.0546 19.0625 37.4315 16.584 36.8163C15.8281 36.6229 14.8438 35.5155 14.4219 34.3729C13.5781 32.1405 14.2812 30.2069 15.916 30.2069C16.3555 30.2069 16.707 30.3827 17.2871 30.9276ZM24.002 43.6542C24.5996 44.0585 25.3906 45.3768 25.6367 46.3964C26.498 49.9471 23.2461 51.2655 21.6641 48.0311C20.4863 45.6229 21.207 42.9862 22.9824 43.285C23.2988 43.3378 23.7559 43.496 24.002 43.6542Z"
            fill="#D82596" />
        <path
            d="M41.8965 19.7129L30.6465 25.373L30.5938 38.2402C30.5762 45.3242 30.6113 51.125 30.6992 51.125C30.7695 51.125 31.2793 50.668 31.8418 50.1055L32.8438 49.0859L32.6855 48.1895C32.2285 45.834 34.127 42.9336 35.8496 43.3027C36.3066 43.4082 36.9219 43.9707 37.1152 44.498C37.168 44.6211 40.209 41.7031 43.9004 38.0293L50.5801 31.3672L51.793 31.7539C52.4609 31.9648 53.0938 32.1406 53.1992 32.1406C53.3574 32.1406 53.4102 29.9258 53.4102 23.0879C53.4102 18.1133 53.3574 14.0352 53.2871 14.0527C53.1992 14.0527 48.084 16.6016 41.8965 19.7129ZM51.2656 19.3789C52.4434 20.5391 51.9336 23.4922 50.334 24.8984C49.666 25.4961 48.8047 25.6367 48.1191 25.2852C47.2051 24.7754 46.9414 22.6484 47.6094 21.1191C48.5059 19.0625 50.1582 18.2891 51.2656 19.3789ZM36.5 26.4277C37.8184 27.5352 37.4141 30.6465 35.7617 32.0879C34.7246 33.0195 33.4941 32.8613 32.9141 31.7363C32.0352 30.0664 33.125 27.0078 34.8652 26.2344C35.6211 25.9004 35.9199 25.9355 36.5 26.4277ZM44.2168 30.8223C44.7969 31.2266 45.2188 32.5098 45.0957 33.459C44.8496 35.2344 43.7246 36.8867 42.5645 37.168C41.3691 37.4668 40.4023 36.3945 40.4023 34.7598C40.4023 32.1055 42.6875 29.75 44.2168 30.8223Z"
            fill="#D82596" />
        <path
            d="M58.2617 46.9414L62.1992 58.7715L73.9414 62.6914C80.3925 64.8359 85.7187 66.5938 85.789 66.5938C85.9472 66.5938 78.1953 43.3555 77.9492 43.1094C77.8437 42.9863 72.5703 41.1758 66.2422 39.084C59.914 36.9746 54.6406 35.2168 54.5176 35.1816C54.3945 35.1289 56.082 40.4199 58.2617 46.9414ZM70.9179 47.9434C72.3593 48.5938 73.4668 50.123 73.4843 51.4766C73.5019 52.8301 72.5351 53.5156 71.0761 53.1992C68.4922 52.6367 66.7871 49.0508 68.5801 47.9609C69.2832 47.5215 69.9863 47.5215 70.9179 47.9434Z"
            fill="#D82596" />
        <path
            d="M40.9473 45.9218L30.4883 56.3808L34.5137 68.123C36.7109 74.5742 38.5742 79.9706 38.627 80.0761C38.6973 80.2167 42.6699 76.3671 49.1035 69.9335L59.4746 59.5624L55.4668 47.5214C53.252 40.8945 51.4414 35.4804 51.4238 35.4804C51.4063 35.4804 46.6953 40.1738 40.9473 45.9218ZM50.2637 42.4413C51.0898 43.1972 51.1074 44.7441 50.2813 46.3788C49.1738 48.5937 46.8184 49.2441 46.0977 47.5214C45.5879 46.291 46.0098 44.5507 47.1523 43.2675C48.2598 42.0019 49.4375 41.7031 50.2637 42.4413ZM43.373 67.3847C44.2871 68.2812 43.9707 70.6015 42.7227 72.0605C41.2637 73.7656 39.4883 73.6777 38.9961 71.8847C38.5566 70.2675 39.752 67.8417 41.3691 67.1035C42.1953 66.7167 42.7754 66.8046 43.373 67.3847Z"
            fill="#D82596" />
        <path
            d="M51.0723 72.0078L40.7539 82.3262L52.6543 86.4043L64.5723 90.5L74.9785 80.0938C80.709 74.3633 85.332 69.6348 85.2617 69.5645C85.1211 69.4238 61.8477 61.6719 61.584 61.6719C61.4785 61.6719 56.7676 66.3125 51.0723 72.0078ZM64.3965 65.5391C65.2051 66.2949 64.8008 67.9121 63.5879 68.8613C62.3223 69.8457 60.2832 70.2148 59.2109 69.6699C58.4902 69.3008 58.2266 68.4043 58.5957 67.5254C59 66.5762 59.4922 66.1016 60.7051 65.5039C61.6016 65.0645 61.9355 64.9941 62.8496 65.0469C63.7109 65.0996 64.0449 65.2051 64.3965 65.5391ZM71.6914 67.9648C73.3262 68.7734 72.5703 71.0762 70.3203 72.1484C67.0859 73.7129 64.7129 71.4629 67.1211 69.125C68.4395 67.8418 70.4258 67.332 71.6914 67.9648ZM79.5664 70.584C81.0078 71.4805 80.1641 73.6602 77.9492 74.6973C75.3301 75.9277 72.9746 74.6621 74.0469 72.6055C75.0488 70.707 78.0195 69.6172 79.5664 70.584ZM51.4766 77.7559C52.4785 78.2656 52.6367 79.3203 51.8984 80.4102C51.3184 81.2539 51.0898 81.4473 49.9824 81.9746C48.3652 82.7656 46.4844 82.4844 46.0273 81.3594C45.834 80.9023 45.8516 80.709 46.0977 80.041C46.8184 78.1953 49.8242 76.9121 51.4766 77.7559ZM59.2109 80.4629C59.9316 80.832 60.1777 81.4121 60.0195 82.2559C59.6855 84.084 56.5391 85.7363 54.7813 84.998C52.6719 84.1191 53.6387 81.4824 56.4512 80.4805C57.6289 80.041 58.4375 80.041 59.2109 80.4629ZM67.3145 83.2754C67.8945 83.873 67.9648 84.4355 67.543 85.332C66.7168 87.0898 63.7637 88.2324 62.1992 87.4238C60.9336 86.7734 61.0215 85.3672 62.4102 84.0488C63.2715 83.2227 64.3789 82.8008 65.6797 82.7832C66.6816 82.7656 66.8398 82.8184 67.3145 83.2754Z"
            fill="#D82596" />
    </g>
    <defs>
        <clipPath id="clip0_19_30">
            <rect width="90" height="90" fill="white" transform="translate(0.5 0.5)" />
        </clipPath>
    </defs>
</svg>
    