<svg width="344" height="444" viewBox="0 0 344 444" fill="none" xmlns="http://www.w3.org/2000/svg">
    <path
        d="M313.409 244.173C297.618 244.173 284.817 231.372 284.817 215.582C284.817 199.791 297.618 186.99 313.409 186.99C329.199 186.99 342 199.791 342 215.582C342 231.372 329.199 244.173 313.409 244.173Z"
        fill="black" stroke="black" stroke-width="3.68388" />
    <path
        d="M302.233 70.8165C312.546 114.163 321.076 196.511 311.77 204.343C302.465 212.175 275.326 145.49 265.013 102.143C254.7 58.7969 261.213 38.7918 270.518 30.9599C279.823 23.1279 291.92 27.4702 302.233 70.8165Z"
        stroke="black" stroke-width="5.42573" />
    <path
        d="M98.4231 248.336C95.9634 307.089 107.746 411.153 120.578 412.354C133.41 413.556 147.291 311.894 149.75 253.142C152.21 194.39 143.249 178.549 130.417 177.347C117.585 176.146 100.883 189.584 98.4231 248.336Z"
        stroke="black" stroke-width="6.23413" />
    <path
        d="M78.8813 440.718H163.335C163.335 425.546 163.334 410.374 156.414 398.39C149.494 386.406 135.653 377.611 121.535 378.215C107.416 378.82 93.0205 388.825 85.8652 400.809C78.7099 412.793 78.7956 426.755 78.8384 433.737C78.8811 440.718 78.8813 440.718 78.8813 440.718Z"
        fill="#797979" stroke="black" stroke-width="4.8024" />
    <path
        d="M245.578 248.34C248.038 307.093 236.255 411.157 223.423 412.358C210.59 413.56 196.71 311.898 194.251 253.146C191.791 194.394 200.752 178.553 213.584 177.351C226.416 176.15 243.118 189.588 245.578 248.34Z"
        stroke="black" stroke-width="6.23413" />
    <path
        d="M265.12 440.722H180.666C180.666 425.55 180.666 410.378 187.587 398.394C194.507 386.41 208.347 377.615 222.466 378.219C236.585 378.824 250.98 388.829 258.136 400.813C265.291 412.797 265.205 426.759 265.163 433.741C265.12 440.722 265.12 440.722 265.12 440.722Z"
        fill="#797979" stroke="black" stroke-width="4.8024" />
    <path
        d="M30.5913 244.176C46.3819 244.176 59.1827 231.375 59.1827 215.585C59.1827 199.794 46.3819 186.993 30.5913 186.993C14.8008 186.993 2 199.794 2 215.585C2 231.375 14.8008 244.176 30.5913 244.176Z"
        fill="black" stroke="black" stroke-width="3.68388" />
    <path
        d="M41.767 70.8194C31.4539 114.166 22.9244 196.514 32.2297 204.346C41.535 212.178 68.6743 145.493 78.9874 102.146C89.3005 58.7999 82.7872 38.7948 73.4819 30.9628C64.1766 23.1308 52.0802 27.4731 41.767 70.8194Z"
        stroke="black" stroke-width="5.42573" />
    <path
        d="M269.17 62.6234C286.805 62.6234 301.1 49.0333 301.1 32.2692C301.1 15.5052 286.805 1.91504 269.17 1.91504C251.535 1.91504 237.239 15.5052 237.239 32.2692C237.239 49.0333 251.535 62.6234 269.17 62.6234Z"
        fill="#241C1C" stroke="white" stroke-width="0.843382" stroke-linecap="round"
        stroke-linejoin="round" />
    <path
        d="M77.7107 61.1715C95.3456 61.1715 109.641 47.5814 109.641 30.8173C109.641 14.0533 95.3456 0.463867 77.7107 0.463867C60.0758 0.463867 45.78 14.0533 45.78 30.8173C45.78 47.5814 60.0758 61.1715 77.7107 61.1715Z"
        fill="#241C1C" stroke="white" stroke-width="0.843382" stroke-linecap="round"
        stroke-linejoin="round" />
    <path
        d="M49.2961 14.5205C43.5427 35.9927 37.7893 57.4646 39.5581 69.4456C41.327 81.4266 36.9163 80.2447 59.8129 86.3799C82.7096 92.515 78.3357 91.3431 85.7883 81.8331C93.2409 72.323 98.9326 50.8344 104.624 29.3457L49.2961 14.5205Z"
        fill="#241C1C" stroke="#565656" stroke-width="2.82551" />
    <path
        d="M296.196 15.0107C301.949 36.4829 307.703 57.9548 305.934 69.9358C304.165 81.9169 308.576 80.735 285.679 86.8701C262.782 93.0053 267.156 91.8333 259.704 82.3233C252.251 72.8132 246.559 51.3246 240.868 29.8359L296.196 15.0107Z"
        fill="#241C1C" stroke="#575757" stroke-width="2.82551" />
    <path
        d="M91.5134 5.19385C91.5134 68.3124 91.5133 131.43 105.169 162.99C118.825 194.55 105.86 194.55 173.166 194.55C240.472 194.55 227.614 194.55 241.065 162.99C254.516 131.431 254.335 68.3124 254.154 5.19385H91.5134Z"
        fill="#4D4D4D" stroke="black" stroke-width="8.03535" stroke-linecap="round"
        stroke-linejoin="round" />
    <path
        d="M199.79 6.25098C199.79 11.6484 198.496 16.9509 196.04 21.6252C193.583 26.2995 190.05 30.1809 185.796 32.8796C181.541 35.5784 176.714 36.9995 171.801 36.9995C166.888 36.9995 162.061 35.5784 157.806 32.8796C153.552 30.1809 150.018 26.2995 147.562 21.6252C145.105 16.9509 143.812 11.6484 143.812 6.25098H171.801H199.79Z"
        fill="#241C1C" stroke="#595959" stroke-width="0.843382" stroke-linecap="round"
        stroke-linejoin="round" />
</svg>
    