<svg width="28" height="28" viewBox="0 0 28 28" fill="none" xmlns="http://www.w3.org/2000/svg">
    <path
        d="M14.1257 2.57583C14.0328 2.60318 13.8796 2.70162 13.7867 2.79458C13.4476 3.12818 13.4421 2.95865 14.0328 7.53599L14.5687 11.6868L13.8085 13.7047C13.3929 14.8149 13.0429 15.7336 13.0374 15.7391C13.032 15.7501 12.2171 15.7883 11.2273 15.8266C10.2429 15.8594 9.39526 15.9141 9.34604 15.9415C9.29682 15.9743 8.55307 16.5977 7.69448 17.3305C5.9937 18.7797 5.94448 18.8399 6.07026 19.2282C6.14136 19.4415 6.39839 19.6329 6.61714 19.6329C6.82495 19.6329 6.97807 19.518 8.47104 18.2493C9.82729 17.0899 9.86557 17.0626 10.1007 17.0626C10.2374 17.0626 11.0085 17.0352 11.8234 17.0024L13.2999 16.9422L14.4429 17.3743C15.1265 17.6313 15.5968 17.8336 15.6078 17.8829C15.6242 17.9266 15.8976 19.5618 16.2148 21.5196C16.5648 23.6415 16.8328 25.1235 16.882 25.2001C16.9859 25.3696 17.3031 25.5008 17.4999 25.4571C17.6749 25.4188 17.9101 25.1836 17.9539 25.0032C17.9703 24.9376 17.7023 23.193 17.3632 21.1313L16.7453 17.3797L17.4015 15.6188C17.7679 14.6563 18.0796 13.8469 18.096 13.8251C18.1179 13.7977 18.807 13.9891 19.6328 14.2461C20.4585 14.5032 21.1968 14.711 21.2734 14.711C21.3499 14.711 22.7281 14.5852 24.3359 14.4321C27.6499 14.1149 27.639 14.1204 27.8742 13.6774C28.1203 13.2126 27.9671 12.7204 27.5023 12.4743L27.2507 12.3376L24.3304 12.6274L21.4101 12.9118L18.8781 12.1297C16.7234 11.468 16.346 11.3313 16.3242 11.2383C16.3078 11.1782 16.0781 9.39537 15.8046 7.27349C15.5312 5.15162 15.296 3.33599 15.2742 3.23208C15.2304 2.98052 14.9132 2.64146 14.6671 2.57037C14.432 2.50474 14.3609 2.51021 14.1257 2.57583Z"
        fill="black" />
    <path
        d="M9.16002 12.8023C5.40299 13.1961 2.11627 15.6953 0.721735 19.2227C0.355329 20.1414 0.114704 21.175 0.0217351 22.2195C-0.0110774 22.6188 -0.00560869 22.6406 0.0982976 22.6406C0.196735 22.6406 0.213141 22.5969 0.245954 22.2688C0.39361 20.6445 0.760016 19.4961 1.52564 18.2656C3.5272 15.0445 7.25689 13.1687 10.9866 13.5078C12.1842 13.6172 12.0585 13.6445 12.0749 13.2563L12.0913 12.9172L11.9108 12.8844C11.178 12.7477 10.0022 12.7148 9.16002 12.8023Z"
        fill="black" />
    <path
        d="M13.032 17.7516C12.2227 18.0415 11.7688 19.0805 12.0859 19.9173C12.4797 20.9673 13.8086 21.3282 14.6945 20.6282C15.2305 20.2016 15.4547 19.4251 15.2305 18.7524C15.0992 18.3587 14.6289 17.8829 14.2516 17.7571C13.9234 17.6423 13.3438 17.6423 13.032 17.7516Z"
        fill="black" />
    <path
        d="M0.0217834 23.6359C0.0764709 24.418 0.251471 25.4297 0.322565 25.4297C0.338971 25.4297 0.38819 25.4078 0.426471 25.3805C0.492096 25.3422 0.486627 25.2656 0.415533 24.9047C0.366315 24.6695 0.295221 24.1719 0.262408 23.8055C0.207721 23.193 0.191315 23.1328 0.0928771 23.1328C-0.0110291 23.1328 -0.0164979 23.1602 0.0217834 23.6359Z"
        fill="black" />
</svg>
    