<svg width="28" height="28" viewBox="0 0 28 28" fill="none" xmlns="http://www.w3.org/2000/svg">
    <path opacity="0.898" fill-rule="evenodd" clip-rule="evenodd"
        d="M13.918 1.72264C13.9724 1.71795 14.018 1.73618 14.0547 1.77733C14.1752 2.06413 14.3301 2.32846 14.5195 2.5703C14.7858 2.7123 15.041 2.86725 15.2852 3.03514C15.041 3.20304 14.7858 3.35799 14.5195 3.49999C14.3297 3.77988 14.1474 4.06244 13.9727 4.34764C13.8048 4.1035 13.6498 3.84829 13.5078 3.58202C13.2279 3.39217 12.9454 3.20988 12.6602 3.03514C12.9454 2.86041 13.2279 2.67812 13.5078 2.48827C13.6591 2.24028 13.7959 1.98507 13.918 1.72264Z"
        fill="black" />
    <path opacity="0.948" fill-rule="evenodd" clip-rule="evenodd"
        d="M8.23047 3.91014C8.28494 3.90545 8.33049 3.92368 8.36719 3.96483C8.65408 4.52048 8.95486 5.06736 9.26953 5.60546C9.83609 5.88852 10.383 6.19838 10.9102 6.53514C10.383 6.87191 9.83609 7.18177 9.26953 7.46483C8.95437 8.04085 8.62624 8.60594 8.28516 9.16014C7.94839 8.63296 7.63853 8.08608 7.35547 7.51952C6.77945 7.20436 6.21436 6.87623 5.66016 6.53514C6.21436 6.19406 6.77945 5.86593 7.35547 5.55077C7.64783 5.00242 7.93948 4.45555 8.23047 3.91014Z"
        fill="black" />
    <path opacity="0.992" fill-rule="evenodd" clip-rule="evenodd"
        d="M11.1289 5.71483C11.9726 5.66829 12.7655 5.86877 13.5078 6.31639C13.5443 11.8034 13.5443 17.2904 13.5078 22.7773C12.3155 22.1878 11.0668 22.0328 9.76172 22.3125C8.77844 22.6449 7.77585 22.9001 6.75391 23.0781C5.80639 23.1747 4.85848 23.1838 3.91016 23.1055C3.91016 17.6002 3.91016 12.0951 3.91016 6.58983C4.86054 7.03772 5.7902 7.52991 6.69922 8.06639C7.08241 8.68677 7.43788 9.3248 7.76562 9.98045C8.0786 10.3142 8.40673 10.3324 8.75 10.0351C9.10984 9.36998 9.48358 8.71373 9.87109 8.06639C10.5499 7.7043 11.2152 7.32149 11.8672 6.91795C12.0495 6.66273 12.0495 6.40755 11.8672 6.15233C11.6406 5.97082 11.3945 5.82497 11.1289 5.71483ZM9.10547 11.8945C9.15338 11.8874 9.18985 11.9056 9.21484 11.9492C9.39712 12.2773 9.57945 12.6055 9.76172 12.9336C10.117 13.1203 10.4634 13.3208 10.8008 13.5351C10.4634 13.7495 10.117 13.95 9.76172 14.1367C9.57502 14.492 9.37448 14.8383 9.16016 15.1758C8.94102 14.847 8.74962 14.5006 8.58594 14.1367C8.21718 13.9569 7.86171 13.7565 7.51953 13.5351C7.86171 13.3138 8.21718 13.1133 8.58594 12.9336C8.76055 12.5843 8.93375 12.238 9.10547 11.8945Z"
        fill="black" />
    <path opacity="0.995" fill-rule="evenodd" clip-rule="evenodd"
        d="M16.2695 5.66023C16.8371 5.64361 17.4022 5.67095 17.9649 5.74226C18.5325 5.89205 19.0977 6.04698 19.6602 6.20711C19.651 8.35824 19.6602 10.5093 19.6875 12.6602C19.7109 12.9116 19.8476 13.0392 20.0977 13.043C20.2405 13.04 20.359 12.9853 20.4531 12.879C20.7634 12.4506 21.0824 12.0314 21.4102 11.6212C21.7653 12.0587 22.1116 12.5052 22.4492 12.961C22.7055 13.0993 22.9151 13.0538 23.0781 12.8243C23.1591 10.7678 23.1865 8.70786 23.1602 6.64461C23.4507 6.6119 23.7424 6.59369 24.0352 6.58992C24.0352 12.0951 24.0352 17.6003 24.0352 23.1055C22.6909 23.2374 21.3602 23.1554 20.043 22.8595C19.4928 22.7064 18.946 22.5424 18.4024 22.3673C17.0272 22.0117 15.7057 22.1485 14.4375 22.7774C14.401 17.2905 14.401 11.8034 14.4375 6.31648C15.0169 5.99284 15.6276 5.77409 16.2695 5.66023Z"
        fill="black" />
    <path opacity="0.983" fill-rule="evenodd" clip-rule="evenodd"
        d="M20.5352 6.42578C21.1114 6.54779 21.6947 6.62074 22.2852 6.64453C22.2943 8.21237 22.2852 9.78004 22.2578 11.3477C22.0598 11.1065 21.8684 10.8604 21.6836 10.6094C21.5013 10.5 21.319 10.5 21.1367 10.6094C20.9519 10.8604 20.7605 11.1065 20.5625 11.3477C20.5352 9.70714 20.526 8.06652 20.5352 6.42578Z"
        fill="black" />
    <path opacity="0.991" fill-rule="evenodd" clip-rule="evenodd"
        d="M1.72266 7.84766C2.16016 7.84766 2.59766 7.84766 3.03516 7.84766C3.02604 13.043 3.03516 18.2383 3.0625 23.4336C3.07802 23.6316 3.17828 23.7683 3.36328 23.8438C4.72573 24.0721 6.0929 24.0539 7.46484 23.7891C8.25792 23.6037 9.04181 23.3849 9.81641 23.1328C10.7379 22.9254 11.6494 22.9619 12.5508 23.2422C13.0314 23.4369 13.5054 23.6466 13.9727 23.8711C14.4399 23.6466 14.9139 23.4369 15.3945 23.2422C16.2959 22.9619 17.2074 22.9254 18.1289 23.1328C19.6071 23.6734 21.1292 23.9742 22.6953 24.0352C23.2302 23.9923 23.768 23.9468 24.3086 23.8984C24.6334 23.9013 24.8248 23.7464 24.8828 23.4336C24.9102 18.2383 24.9193 13.043 24.9102 7.84766C25.3477 7.84766 25.7852 7.84766 26.2227 7.84766C26.2227 13.681 26.2227 19.5143 26.2227 25.3477C23.1601 25.3385 20.0976 25.3477 17.0352 25.375C16.7617 25.6484 16.4883 25.9219 16.2148 26.1953C14.7201 26.2318 13.2252 26.2318 11.7305 26.1953C11.457 25.9219 11.1836 25.6484 10.9102 25.375C7.84771 25.3477 4.78521 25.3385 1.72266 25.3477C1.72266 19.5143 1.72266 13.681 1.72266 7.84766ZM9.10547 11.8945C8.93375 12.238 8.76055 12.5844 8.58594 12.9336C8.21718 13.1134 7.86171 13.3138 7.51953 13.5352C7.86171 13.7565 8.21718 13.957 8.58594 14.1367C8.74962 14.5007 8.94102 14.847 9.16016 15.1758C9.37448 14.8384 9.57502 14.492 9.76172 14.1367C10.117 13.95 10.4634 13.7495 10.8008 13.5352C10.4634 13.3208 10.117 13.1203 9.76172 12.9336C9.57945 12.6055 9.39712 12.2773 9.21484 11.9492C9.18985 11.9056 9.15338 11.8874 9.10547 11.8945Z"
        fill="black" />
</svg>
    