<svg width="28" height="28" viewBox="0 0 28 28" fill="none" xmlns="http://www.w3.org/2000/svg">
    <g clip-path="url(#clip0_75_2886)">
        <path opacity="0.98" fill-rule="evenodd" clip-rule="evenodd"
            d="M18.4569 0.410066C20.204 0.236394 21.3798 0.965559 21.9843 2.59757C22.2874 3.98571 21.8772 5.1068 20.7538 5.96085C19.1045 6.8266 17.6917 6.54403 16.5155 5.11319C15.6489 3.46892 15.9315 2.05616 17.3632 0.874909C17.7143 0.671581 18.0788 0.516634 18.4569 0.410066Z"
            fill="black" />
        <path opacity="0.983" fill-rule="evenodd" clip-rule="evenodd"
            d="M11.0196 6.26164C12.8123 6.21964 14.5988 6.30167 16.379 6.50774C18.3399 6.77521 19.2787 7.89631 19.1954 9.87102C19.1373 10.173 19.0461 10.4647 18.922 10.746C17.9148 12.3045 16.9213 13.8722 15.9415 15.4491C17.0292 15.8511 18.1047 16.2795 19.1681 16.7343C20.0072 17.4925 20.1622 18.3766 19.6329 19.3866C18.448 21.3189 17.2631 23.2512 16.0782 25.1835C15.5649 25.78 14.9177 26.0079 14.1368 25.8671C13.0106 25.5025 12.5275 24.7278 12.6876 23.5429C12.7391 23.3519 12.812 23.1696 12.9063 22.996C13.6628 21.7655 14.4194 20.5351 15.1759 19.3046C13.9605 18.8337 12.7392 18.3779 11.5118 17.9374C10.0816 17.2007 9.52566 16.0432 9.84384 14.4648C9.92308 14.1969 10.0325 13.9417 10.172 13.6991C11.0196 12.3775 11.8673 11.0559 12.7149 9.7343C12.3332 9.67639 11.9504 9.65812 11.5665 9.67961C10.5456 10.263 9.52484 10.8463 8.50399 11.4296C7.31055 11.9035 6.4811 11.548 6.01571 10.3632C5.9036 9.71538 6.07674 9.15937 6.53524 8.69524C7.75658 7.9843 8.97797 7.27336 10.1993 6.56242C10.4618 6.41138 10.7352 6.31108 11.0196 6.26164Z"
            fill="black" />
        <path opacity="0.972" fill-rule="evenodd" clip-rule="evenodd"
            d="M25.3477 6.91788C26.249 6.79877 26.8961 7.14511 27.2891 7.95694C27.527 8.71896 27.3538 9.36608 26.7695 9.89835C24.8281 11.097 22.8776 12.2819 20.918 13.453C20.0256 13.6659 19.3055 13.4016 18.7578 12.6601C18.7213 12.6054 18.7213 12.5507 18.7578 12.496C19.1076 11.9819 19.4357 11.4532 19.7422 10.9101C19.9482 10.3633 20.0667 9.79822 20.0977 9.21475C20.2799 9.37882 20.4623 9.54288 20.6445 9.70694C22.0391 8.87301 23.4245 8.02536 24.8008 7.16397C24.9863 7.07538 25.1686 6.99335 25.3477 6.91788Z"
            fill="black" />
        <path opacity="0.923" fill-rule="evenodd" clip-rule="evenodd"
            d="M4.62118 16.4336C5.49635 16.4245 6.37135 16.4336 7.24618 16.4609C7.59131 16.6025 7.69156 16.8486 7.54696 17.1992C7.49758 17.2649 7.43381 17.3105 7.35556 17.3359C6.38939 17.3724 5.42327 17.3724 4.45712 17.3359C4.1322 16.961 4.18689 16.6602 4.62118 16.4336Z"
            fill="black" />
        <path opacity="0.975" fill-rule="evenodd" clip-rule="evenodd"
            d="M9.32418 17.0352C9.7147 17.617 10.2069 18.1001 10.8007 18.4844C11.4356 18.7901 12.0919 19.0362 12.7695 19.2227C12.6784 19.9973 12.487 20.7447 12.1953 21.4648C11.0286 23.2877 9.86192 25.1107 8.69527 26.9336C7.93894 27.6117 7.1095 27.712 6.20699 27.2344C5.50098 26.7025 5.23663 26.0007 5.41402 25.1289C5.47943 24.8706 5.5888 24.6336 5.74215 24.418C6.763 22.8138 7.7838 21.2096 8.80465 19.6055C8.98851 18.7501 9.16165 17.8933 9.32418 17.0352Z"
            fill="black" />
        <path opacity="0.928" fill-rule="evenodd" clip-rule="evenodd"
            d="M2.43368 19.0586C3.52758 19.0495 4.62133 19.0586 5.71493 19.0859C6.1171 19.235 6.21735 19.4994 6.01571 19.8789C5.9747 19.9131 5.92909 19.9405 5.87899 19.9609C4.67587 19.9974 3.47274 19.9974 2.26962 19.9609C1.9447 19.586 1.99939 19.2852 2.43368 19.0586Z"
            fill="black" />
        <path opacity="0.929" fill-rule="evenodd" clip-rule="evenodd"
            d="M0.957049 21.6836C2.05095 21.6745 3.1447 21.6836 4.2383 21.7109C4.59179 21.807 4.71027 22.0349 4.59377 22.3945C4.52996 22.4584 4.46617 22.5221 4.40236 22.5859C3.19924 22.6224 1.99611 22.6224 0.792987 22.5859C0.58646 22.4243 0.522655 22.2147 0.601581 21.957C0.689228 21.8184 0.80772 21.7272 0.957049 21.6836Z"
            fill="black" />
    </g>
    <defs>
        <clipPath id="clip0_75_2886">
            <rect width="28" height="28" fill="white" />
        </clipPath>
    </defs>
</svg>
    