<svg width="28" height="28" viewBox="0 0 28 28" fill="none" xmlns="http://www.w3.org/2000/svg">
    <g clip-path="url(#clip0_75_2888)">
        <path opacity="0.982" fill-rule="evenodd" clip-rule="evenodd"
            d="M13.043 -0.0273438C13.6628 -0.0273438 14.2826 -0.0273438 14.9024 -0.0273438C17.5579 0.388417 19.5266 1.77383 20.8086 4.12891C18.0015 4.1927 15.1942 4.20182 12.3867 4.15625C11.1239 3.60244 10.2033 2.7001 9.62501 1.44922C9.58854 1.39453 9.58854 1.33984 9.62501 1.28516C10.6662 0.582772 11.8056 0.145272 13.043 -0.0273438Z"
            fill="black" />
        <path opacity="0.979" fill-rule="evenodd" clip-rule="evenodd"
            d="M8.23047 2.43349C8.29473 2.42152 8.34942 2.43974 8.39453 2.48818C9.11127 3.78823 10.1321 4.77261 11.457 5.44131C11.5208 6.80811 11.5299 8.1753 11.4844 9.54287C10.7146 9.2802 9.94897 9.00677 9.1875 8.72256C9.02481 9.22885 8.85167 9.73017 8.66797 10.2265C9.61171 10.5623 10.5597 10.8813 11.5117 11.1835C11.4438 13.1043 11.7902 14.9454 12.5508 16.7069C12.0416 16.7615 11.5312 16.7798 11.0195 16.7616C11.0195 17.2903 11.0195 17.8189 11.0195 18.3476C11.8218 18.3384 12.6239 18.3476 13.4258 18.3749C13.9219 19.0899 14.4596 19.7735 15.0391 20.4257C15.2997 21.0383 15.6005 21.6216 15.9414 22.1757C14.8328 22.2861 13.7209 22.3134 12.6055 22.2577C11.5638 22.1153 10.7709 21.5958 10.2266 20.6991C10.0507 20.3839 9.90484 20.0558 9.78906 19.7147C8.71746 18.6656 7.86067 17.4624 7.21875 16.1054C6.84431 15.2282 6.59821 14.3168 6.48047 13.371C4.76762 13.3309 3.73768 12.4741 3.39063 10.8007C3.35417 10.2538 3.35417 9.70693 3.39063 9.16006C3.72367 7.91624 4.51664 7.4514 5.76953 7.76552C5.98385 7.84974 6.17526 7.96825 6.34375 8.12099C6.23766 5.96926 6.86656 4.07342 8.23047 2.43349Z"
            fill="black" />
        <path opacity="0.981" fill-rule="evenodd" clip-rule="evenodd"
            d="M27.9727 5.76953C27.9727 8.12109 27.9727 10.4727 27.9727 12.8242C27.7691 14.6471 27.1584 16.3242 26.1406 17.8555C25.6302 18.4752 25.1198 19.0951 24.6094 19.7148C24.3024 20.7323 23.6917 21.5071 22.7774 22.0391C22.499 22.1633 22.2073 22.2363 21.9024 22.2578C21.0091 22.2943 20.1159 22.2943 19.2227 22.2578C18.186 22.127 17.4113 21.6075 16.8984 20.6992C16.7206 20.3662 16.5748 20.0199 16.4609 19.6602C14.7785 17.9909 13.7121 15.9857 13.2617 13.6445C13.1921 13.2463 13.1465 12.8452 13.125 12.4414C13.0977 10.2175 13.0885 7.99356 13.0977 5.76953C18.056 5.76953 23.0143 5.76953 27.9727 5.76953ZM17.2539 9.21484C18.2456 9.10262 19.1388 9.33964 19.9336 9.92578C19.6041 10.3373 19.2851 10.7565 18.9766 11.1836C18.3145 10.748 17.6127 10.6842 16.8711 10.9922C16.6305 11.0964 16.4118 11.2331 16.2149 11.4023C15.8445 11.0362 15.4799 10.6625 15.1211 10.2812C15.7475 9.74925 16.4585 9.39378 17.2539 9.21484ZM23.1055 9.21484C24.3263 9.10038 25.3836 9.45585 26.2774 10.2812C25.9395 10.6646 25.5932 11.0383 25.2383 11.4023C24.3461 10.7214 23.3982 10.6212 22.3945 11.1016C22.1134 10.7019 21.8217 10.31 21.5195 9.92578C22 9.57162 22.5286 9.33461 23.1055 9.21484ZM17.5274 13.7539C19.5508 13.7539 21.5742 13.7539 23.5977 13.7539C23.6068 14.5197 23.5977 15.2854 23.5703 16.0508C23.2704 17.7361 22.2677 18.6658 20.5625 18.8398C18.9138 18.6998 17.9112 17.8248 17.5547 16.2148C17.5274 15.3947 17.5182 14.5744 17.5274 13.7539Z"
            fill="black" />
        <path opacity="0.942" fill-rule="evenodd" clip-rule="evenodd"
            d="M19.1133 15.3398C20.0794 15.3398 21.0455 15.3398 22.0117 15.3398C22.1177 16.1947 21.7896 16.8054 21.0273 17.1719C20.099 17.3869 19.4701 17.0496 19.1406 16.1602C19.1133 15.8873 19.1042 15.6139 19.1133 15.3398Z"
            fill="black" />
        <path opacity="0.994" fill-rule="evenodd" clip-rule="evenodd"
            d="M27.9727 22.8867C27.9727 24.582 27.9727 26.2773 27.9727 27.9727C18.6393 27.9727 9.30601 27.9727 -0.0273438 27.9727C-0.0273438 26.2773 -0.0273438 24.582 -0.0273438 22.8867C2.32694 21.5774 4.66938 20.2467 7 18.8945C7.44811 19.4619 7.92209 20.0087 8.42188 20.5352C9.06883 22.2579 10.281 23.3425 12.0586 23.7891C13.1689 23.8746 14.2809 23.8929 15.3945 23.8438C16.0691 23.795 16.698 23.6036 17.2812 23.2695C17.8487 23.5924 18.4594 23.7838 19.1133 23.8438C20.2087 23.8928 21.3025 23.8745 22.3945 23.7891C23.7677 23.481 24.8159 22.7244 25.5391 21.5195C26.3385 21.9967 27.1497 22.4524 27.9727 22.8867Z"
            fill="black" />
    </g>
    <defs>
        <clipPath id="clip0_75_2888">
            <rect width="28" height="28" fill="white" />
        </clipPath>
    </defs>
</svg>
    