<svg width="28" height="28" viewBox="0 0 28 28" fill="none" xmlns="http://www.w3.org/2000/svg">
    <g clip-path="url(#clip0_75_2126)">
        <path opacity="0.985" fill-rule="evenodd" clip-rule="evenodd"
            d="M27.9728 17.1992C27.9728 18.0195 27.9728 18.8398 27.9728 19.6602C27.4385 24.4874 24.7588 27.2127 19.9337 27.8359C21.6859 25.9732 22.6794 23.7583 22.9142 21.1914C23.2025 18.2787 22.3001 15.8087 20.2071 13.7812C19.1286 12.7771 17.9437 11.9204 16.6524 11.2109C15.5737 10.6534 14.48 10.1247 13.3712 9.625C12.1958 8.99648 11.1112 8.23998 10.1173 7.35547C9.52125 3.29564 11.2256 0.852934 15.2306 0.0273438C15.0165 1.19004 15.2079 2.28379 15.8048 3.30859C16.112 3.74354 16.4401 4.16281 16.7892 4.56641C17.1943 4.91018 17.6044 5.24742 18.0196 5.57812C19.0405 6.17969 20.0613 6.78125 21.0821 7.38281C22.9284 8.4811 24.5234 9.87563 25.8673 11.5664C27.0828 13.2535 27.7846 15.1311 27.9728 17.1992Z"
            fill="black" />
        <path opacity="0.988" fill-rule="evenodd" clip-rule="evenodd"
            d="M-0.0273438 11.6758C-0.0273438 11.4023 -0.0273438 11.1289 -0.0273438 10.8555C0.695401 8.37315 2.28134 6.68697 4.73047 5.79688C4.77604 5.75132 4.82162 5.70571 4.86719 5.66016C4.93292 4.75205 5.20636 3.91351 5.6875 3.14453C5.9092 2.89532 6.1553 2.67657 6.42578 2.48828C6.91529 2.99309 7.23434 3.59465 7.38281 4.29297C7.45188 4.72841 7.50657 5.16591 7.54688 5.60547C8.43932 7.08138 9.59689 8.31184 11.0195 9.29688C12.3602 10.1861 13.7821 10.9335 15.2852 11.5391C17.149 12.4203 18.7805 13.6143 20.1797 15.1211C21.874 17.1923 22.4209 19.5438 21.8203 22.1758C21.4365 24.2107 20.516 25.9516 19.0586 27.3984C18.8763 27.5443 18.694 27.6901 18.5117 27.8359C14.925 27.9267 11.3339 27.9449 7.73828 27.8906C7.48371 27.7322 7.40168 27.5044 7.49219 27.207C7.53512 27.1094 7.59888 27.0273 7.68359 26.9609C8.66436 26.8902 9.64873 26.8538 10.6367 26.8516C10.9586 26.6701 11.0224 26.424 10.8281 26.1133C8.78598 24.7103 7.96567 22.7781 8.36719 20.3164C8.94458 17.8445 10.5032 16.7234 13.043 16.9531C13.691 17.0468 14.329 17.1835 14.957 17.3633C15.2568 17.3736 15.4208 17.2278 15.4492 16.9258C15.4328 16.7574 15.3599 16.6207 15.2305 16.5156C14.0477 16.0654 12.8264 15.9014 11.5664 16.0234C9.5912 16.367 8.2787 17.4881 7.62891 19.3867C6.66329 19.4323 5.69712 19.4596 4.73047 19.4688C4.12986 19.5955 3.73793 19.9509 3.55469 20.5352C3.50013 20.9162 3.46367 21.299 3.44531 21.6836C3.06481 22.074 2.73668 22.0375 2.46094 21.5742C2.42448 20.4987 2.42448 19.4232 2.46094 18.3477C2.49957 18.2612 2.54515 18.1792 2.59766 18.1016C3.75809 17.4698 4.6422 16.5674 5.25 15.3945C5.72474 14.2026 5.36926 13.3732 4.18359 12.9062C3.08177 12.6102 1.96979 12.3549 0.847656 12.1406C0.514579 12.0562 0.222912 11.9013 -0.0273438 11.6758ZM3.30859 8.44922C3.62624 8.40284 3.83587 8.53043 3.9375 8.83203C3.90044 9.31109 3.65434 9.46602 3.19922 9.29688C2.90278 8.97329 2.93924 8.69072 3.30859 8.44922Z"
            fill="black" />
    </g>
    <defs>
        <clipPath id="clip0_75_2126">
            <rect width="28" height="28" fill="white" />
        </clipPath>
    </defs>
</svg>
    