<svg width="28" height="28" viewBox="0 0 28 28" fill="none" xmlns="http://www.w3.org/2000/svg">
    <g clip-path="url(#clip0_75_2083)">
        <path opacity="0.953" fill-rule="evenodd" clip-rule="evenodd"
            d="M10.3633 1.01172C12.8061 1.0026 15.2488 1.01172 17.6914 1.03906C18.514 1.13244 19.0336 1.57905 19.25 2.37891C19.2774 3.39958 19.2865 4.42041 19.2774 5.44141C18.8763 5.44141 18.4752 5.44141 18.0742 5.44141C18.0834 4.49332 18.0742 3.5454 18.0469 2.59766C17.9327 2.36249 17.7413 2.244 17.4727 2.24219C15.1393 2.20573 12.806 2.20573 10.4727 2.24219C10.1769 2.23919 9.98545 2.37591 9.89845 2.65234C9.8711 3.58185 9.86197 4.51154 9.8711 5.44141C9.47008 5.44141 9.069 5.44141 8.66798 5.44141C8.65884 4.43864 8.66798 3.43603 8.69532 2.43359C8.91172 1.55122 9.46773 1.07727 10.3633 1.01172Z"
            fill="black" />
        <path opacity="0.992" fill-rule="evenodd" clip-rule="evenodd"
            d="M27.9727 9.65236C27.9727 14.319 27.9727 18.9857 27.9727 23.6524C27.5328 25.7345 26.2386 26.8191 24.0898 26.9063C17.3451 26.9427 10.6002 26.9427 3.85547 26.9063C1.70676 26.8191 0.412487 25.7345 -0.0273438 23.6524C-0.0273438 18.9857 -0.0273438 14.319 -0.0273438 9.65236C0.376808 7.56319 1.65285 6.47857 3.80078 6.39845C10.582 6.36197 17.3633 6.36197 24.1445 6.39845C26.2924 6.47857 27.5685 7.56319 27.9727 9.65236ZM12.1133 10.7461C13.3348 10.737 14.5561 10.7461 15.7773 10.7735C16.1269 10.8495 16.3547 11.0591 16.4609 11.4024C16.4883 12.2589 16.4974 13.1157 16.4883 13.9727C17.3452 13.9635 18.202 13.9727 19.0586 14C19.3776 14.1003 19.5873 14.3099 19.6875 14.6289C19.724 15.8685 19.724 17.1081 19.6875 18.3477C19.5873 18.6667 19.3776 18.8763 19.0586 18.9766C18.202 19.0039 17.3452 19.0131 16.4883 19.0039C16.4974 19.8791 16.4883 20.7541 16.4609 21.6289C16.3376 21.9164 16.1279 22.1078 15.832 22.2031C14.5924 22.2396 13.3529 22.2396 12.1133 22.2031C11.8174 22.1078 11.6078 21.9164 11.4844 21.6289C11.457 20.7541 11.4479 19.8791 11.457 19.0039C10.6001 19.0131 9.74329 19.0039 8.88672 18.9766C8.56773 18.8763 8.35805 18.6667 8.25781 18.3477C8.22134 17.1081 8.22134 15.8685 8.25781 14.6289C8.35805 14.3099 8.56773 14.1003 8.88672 14C9.74329 13.9727 10.6001 13.9635 11.457 13.9727C11.4479 13.0975 11.457 12.2225 11.4844 11.3477C11.6176 11.0592 11.8273 10.8588 12.1133 10.7461Z"
            fill="black" />
        <path opacity="0.976" fill-rule="evenodd" clip-rule="evenodd"
            d="M12.5508 11.8398C13.4987 11.8398 14.4466 11.8398 15.3945 11.8398C15.3854 12.7697 15.3945 13.6994 15.4219 14.6289C15.4871 14.84 15.6238 14.9767 15.832 15.0391C16.7616 15.0664 17.6912 15.0755 18.6211 15.0664C18.6211 16.0143 18.6211 16.9623 18.6211 17.9102C17.6329 17.885 16.6486 17.9123 15.668 17.9922C15.5416 18.0817 15.4596 18.2002 15.4219 18.3477C15.3945 19.2772 15.3854 20.2069 15.3945 21.1367C14.4466 21.1367 13.4987 21.1367 12.5508 21.1367C12.5599 20.2069 12.5508 19.2772 12.5234 18.3477C12.4596 18.138 12.3229 18.0013 12.1133 17.9375C11.1838 17.9102 10.2541 17.901 9.32422 17.9102C9.32422 16.9623 9.32422 16.0143 9.32422 15.0664C10.3124 15.0916 11.2967 15.0642 12.2773 14.9844C12.3931 14.8897 12.4751 14.7712 12.5234 14.6289C12.5508 13.6994 12.5599 12.7697 12.5508 11.8398Z"
            fill="black" />
    </g>
    <defs>
        <clipPath id="clip0_75_2083">
            <rect width="28" height="28" fill="white" />
        </clipPath>
    </defs>
</svg>
    