<svg width="28" height="28" viewBox="0 0 28 28" fill="none" xmlns="http://www.w3.org/2000/svg">
    <path opacity="0.986" fill-rule="evenodd" clip-rule="evenodd"
        d="M23.2695 6.48056C24.6083 6.43817 25.939 6.5202 27.2617 6.72665C27.542 6.86627 27.6059 7.07588 27.4531 7.35556C26.8958 8.0141 26.4948 8.76152 26.25 9.59774C25.8984 11.1968 25.5703 12.801 25.2656 14.4102C24.7432 16.3176 23.7315 17.9126 22.2305 19.1954C20.0871 21.1253 17.6992 21.499 15.0664 20.3165C14.9102 20.1456 14.8647 19.9451 14.9297 19.7149C15.9246 17.1768 17.2554 14.8434 18.9219 12.7149C19.0749 12.3828 18.9746 12.1641 18.6211 12.0587C18.5503 12.0914 18.4774 12.1187 18.4023 12.1407C16.3907 13.9332 14.7956 16.0387 13.6172 18.4571C13.3863 18.6139 13.1858 18.5774 13.0156 18.3477C11.8297 16.0845 11.8479 13.8241 13.0703 11.5665C13.7904 10.4089 14.7291 9.47016 15.8867 8.75009C18.16 7.37524 20.6209 6.61875 23.2695 6.48056Z"
        fill="black" />
    <path opacity="0.976" fill-rule="evenodd" clip-rule="evenodd"
        d="M5.1133 12.8241C6.48027 12.7279 7.81098 12.9011 9.10549 13.3437C9.98142 13.6728 10.7015 14.2105 11.2656 14.9569C11.2848 16.1457 11.5856 17.2578 12.168 18.2929C12.1027 18.5707 12.0207 18.8441 11.9219 19.1132C11.8531 19.4345 11.6617 19.553 11.3477 19.4687C10.2744 18.2853 9.07125 17.2644 7.7383 16.4062C7.41253 16.2074 7.07532 16.0342 6.72658 15.8866C6.38538 15.9676 6.29428 16.1682 6.45314 16.4882C7.78768 17.6403 9.00902 18.8982 10.1172 20.2616C10.2468 20.3912 10.3288 20.5462 10.3633 20.7265C10.3365 20.8634 10.2636 20.9727 10.1445 21.0546C9.01142 21.554 7.86299 21.5905 6.69924 21.164C5.38921 20.6961 4.3228 19.9031 3.50002 18.7851C3.05743 18.1007 2.65639 17.3898 2.29689 16.6523C1.85028 15.8318 1.2396 15.1573 0.464861 14.6288C0.386238 14.4876 0.404467 14.3599 0.519549 14.246C1.9682 13.4832 3.49945 13.0092 5.1133 12.8241Z"
        fill="black" />
</svg>
    