<svg width="28" height="28" viewBox="0 0 28 28" fill="none" xmlns="http://www.w3.org/2000/svg">
    <g clip-path="url(#clip0_75_2885)">
        <path opacity="0.962" fill-rule="evenodd" clip-rule="evenodd"
            d="M12.6601 -0.0273438C13.5351 -0.0273438 14.4101 -0.0273438 15.2851 -0.0273438C19.8649 0.641736 23.1553 3.06621 25.1562 7.24609C26.7927 11.0848 26.5922 14.8217 24.5546 18.457C24.1857 18.8742 23.7573 18.9472 23.2695 18.6758C22.9887 18.392 22.9067 18.0638 23.0234 17.6914C25.0811 14.115 25.0993 10.5239 23.0781 6.91797C20.5882 2.96168 17.0062 1.23902 12.332 1.75C8.04098 2.63178 5.20635 5.15651 3.82807 9.32422C2.99129 12.2713 3.35587 15.0604 4.92182 17.6914C5.08276 18.3509 4.82756 18.7337 4.1562 18.8398C3.71408 18.8181 3.40419 18.5994 3.22651 18.1836C1.14438 14.2038 1.16261 10.2299 3.2812 6.26172C5.37488 2.63053 8.50117 0.534178 12.6601 -0.0273438Z"
            fill="black" />
        <path opacity="0.961" fill-rule="evenodd" clip-rule="evenodd"
            d="M13.043 3.47261C16.7629 3.24966 19.5975 4.70799 21.5469 7.84761C22.9265 10.379 23.0905 12.9858 22.0391 15.6679C21.7458 16.2657 21.2993 16.4207 20.6992 16.1328C20.3922 15.8611 20.2919 15.5238 20.3984 15.121C21.6304 11.8733 20.9651 9.07513 18.4024 6.72652C16.1697 5.03523 13.7453 4.7071 11.1289 5.74214C8.74356 6.94319 7.34903 8.86633 6.94532 11.5117C6.80669 12.773 7.00723 13.9761 7.54688 15.121C7.65599 15.9416 7.30052 16.3153 6.48048 16.2421C6.29443 16.1656 6.13945 16.0471 6.01563 15.8867C4.56544 12.3014 5.11232 9.05653 7.65626 6.1523C9.13561 4.62421 10.9312 3.73098 13.043 3.47261Z"
            fill="black" />
        <path opacity="0.991" fill-rule="evenodd" clip-rule="evenodd"
            d="M20.8086 27.9727C16.2513 27.9727 11.694 27.9727 7.13673 27.9727C5.62161 27.4048 5.02918 26.311 5.35938 24.6914C5.91528 21.0734 7.91138 18.6398 11.3477 17.3906C12.0433 17.1786 12.7543 17.051 13.4805 17.0078C10.9416 16.62 9.5106 15.1526 9.18751 12.6055C9.09509 10.1113 10.2162 8.44328 12.5508 7.60159C15.1589 7.00577 17.1003 7.87163 18.375 10.1992C19.2288 12.4623 18.7639 14.4037 16.9805 16.0235C16.2664 16.5627 15.4643 16.8908 14.5742 17.0078C18.191 17.3993 20.6975 19.2678 22.0938 22.6133C22.5234 23.7615 22.6874 24.9463 22.5859 26.168C22.3299 27.1076 21.7374 27.7092 20.8086 27.9727Z"
            fill="black" />
    </g>
    <defs>
        <clipPath id="clip0_75_2885">
            <rect width="28" height="28" fill="white" />
        </clipPath>
    </defs>
</svg>
    