<svg width="28" height="28" viewBox="0 0 28 28" fill="none" xmlns="http://www.w3.org/2000/svg">
    <g clip-path="url(#clip0_75_2887)">
        <path opacity="0.964" fill-rule="evenodd" clip-rule="evenodd"
            d="M23.3789 -0.0273438C23.4336 -0.0273438 23.4883 -0.0273438 23.543 -0.0273438C25.0013 1.46745 26.4779 2.94401 27.9727 4.40234C27.9727 4.45703 27.9727 4.51172 27.9727 4.56641C27.4863 4.89709 27.0215 5.26168 26.5781 5.66016C26.5417 5.69663 26.5417 5.73305 26.5781 5.76953C26.8242 6.01562 27.0703 6.26172 27.3164 6.50781C26.9336 6.89062 26.5508 7.27344 26.168 7.65625C26.1315 7.69273 26.0951 7.69273 26.0586 7.65625C25.7753 7.36378 25.4836 7.08121 25.1836 6.80859C24.9266 6.97375 24.6896 7.16516 24.4727 7.38281C24.7123 7.60402 24.931 7.84098 25.1289 8.09375C24.785 8.49248 24.4204 8.87529 24.0352 9.24219C23.9987 9.27866 23.9623 9.27866 23.9258 9.24219C23.6607 8.96793 23.3872 8.70362 23.1055 8.44922C22.7275 8.77915 22.3356 9.08906 21.9297 9.37891C21.5948 9.09885 21.2758 8.79807 20.9727 8.47656C20.9362 8.44009 20.8998 8.44009 20.8633 8.47656C16.9805 12.3594 13.0977 16.2422 9.21486 20.125C9.17838 20.1615 9.14196 20.1615 9.10548 20.125C8.67712 19.6966 8.24869 19.2682 7.82033 18.8398C7.78385 18.8034 7.78385 18.7669 7.82033 18.7305C11.7031 14.8477 15.586 10.9648 19.4688 7.08203C19.5052 7.04555 19.5052 7.00913 19.4688 6.97266C19.1473 6.66952 18.8465 6.35048 18.5664 6.01562C18.8563 5.60973 19.1662 5.21782 19.4961 4.83984C19.2417 4.5581 18.9774 4.28466 18.7031 4.01953C18.6667 3.98307 18.6667 3.94662 18.7031 3.91016C19.07 3.52492 19.4528 3.16034 19.8516 2.81641C20.1043 3.01433 20.3413 3.23308 20.5625 3.47266C20.7802 3.25569 20.9716 3.01872 21.1367 2.76172C20.8641 2.46174 20.5815 2.17007 20.2891 1.88672C20.2526 1.85026 20.2526 1.8138 20.2891 1.77734C20.6719 1.39453 21.0547 1.01172 21.4375 0.628906C21.6836 0.875 21.9297 1.12109 22.1758 1.36719C22.2123 1.40365 22.2487 1.40365 22.2852 1.36719C22.6836 0.923814 23.0482 0.458973 23.3789 -0.0273438Z"
            fill="black" />
        <path opacity="0.98" fill-rule="evenodd" clip-rule="evenodd"
            d="M8.83203 27.9726C8.21226 27.9726 7.59243 27.9726 6.97266 27.9726C3.71522 27.4226 1.50037 25.5997 0.328125 22.5038C0.173238 21.9942 0.0547482 21.4837 -0.0273438 20.9726C-0.0273438 20.3528 -0.0273438 19.733 -0.0273438 19.1132C0.506799 15.7805 2.36617 13.5475 5.55078 12.414C7.58494 11.8399 9.55369 12.0039 11.457 12.9062C9.88931 14.4739 8.32163 16.0416 6.75391 17.6093C6.69922 17.6458 6.64453 17.6458 6.58984 17.6093C6.36196 17.3814 6.13413 17.1536 5.90625 16.9257C5.55991 17.272 5.21354 17.6184 4.86719 17.9648C4.83073 18.0012 4.83073 18.0377 4.86719 18.0741C5.10501 18.3028 5.33287 18.5398 5.55078 18.7851C5.14974 19.2044 4.7487 19.6236 4.34766 20.0429C4.6932 20.4158 5.04867 20.7804 5.41406 21.1366C5.81744 20.7149 6.23667 20.3139 6.67188 19.9335C7.12529 20.3322 7.56279 20.7514 7.98438 21.1913C8.02085 21.246 8.02085 21.3007 7.98438 21.3554C7.59243 21.7473 7.20054 22.1392 6.80859 22.5312C7.15493 22.8775 7.50132 23.2239 7.84766 23.5702C7.88413 23.6067 7.92055 23.6067 7.95703 23.5702C8.34974 23.1684 8.75077 22.7764 9.16016 22.3945C9.43359 22.6497 9.70703 22.9049 9.98047 23.1601C10.3534 22.8145 10.718 22.459 11.0742 22.0937C10.8281 21.8476 10.582 21.6015 10.3359 21.3554C10.2995 21.3007 10.2995 21.246 10.3359 21.1913C11.9037 19.6236 13.4713 18.0559 15.0391 16.4882C16.2068 18.9909 16.1521 21.4701 14.875 23.9257C13.5139 26.2428 11.4996 27.5918 8.83203 27.9726Z"
            fill="black" />
    </g>
    <defs>
        <clipPath id="clip0_75_2887">
            <rect width="28" height="28" fill="white" />
        </clipPath>
    </defs>
</svg>
    