<svg width="28" height="28" viewBox="0 0 28 28" fill="none" xmlns="http://www.w3.org/2000/svg">
    <g clip-path="url(#clip0_75_2889)">
        <path opacity="0.938" fill-rule="evenodd" clip-rule="evenodd"
            d="M4.83978 -0.0273438C5.02207 -0.0273438 5.20437 -0.0273438 5.38666 -0.0273438C5.89673 0.26415 6.42539 0.528474 6.97259 0.765625C7.37668 1.03627 7.47692 1.39174 7.27337 1.83203C7.00005 2.1113 6.681 2.17511 6.31634 2.02344C5.70209 1.7392 5.10967 1.42019 4.539 1.06641C4.28702 0.596422 4.38729 0.231838 4.83978 -0.0273438Z"
            fill="black" />
        <path opacity="0.938" fill-rule="evenodd" clip-rule="evenodd"
            d="M22.5586 -0.0273438C22.7409 -0.0273438 22.9232 -0.0273438 23.1055 -0.0273438C23.558 0.231838 23.6583 0.596422 23.4063 1.06641C22.8356 1.42019 22.2432 1.7392 21.6289 2.02344C21.0552 2.21975 20.6906 2.02834 20.5352 1.44922C20.5503 1.13608 20.6962 0.908212 20.9727 0.765625C21.5199 0.528474 22.0485 0.26415 22.5586 -0.0273438Z"
            fill="black" />
        <path opacity="0.977" fill-rule="evenodd" clip-rule="evenodd"
            d="M13.7539 0.628965C13.9593 0.605493 14.1507 0.641953 14.3281 0.73834C14.7538 1.61709 15.2004 2.48297 15.6679 3.336C16.627 3.53034 17.5931 3.69441 18.5664 3.82818C18.8096 4.0104 18.8734 4.23826 18.7578 4.51178C18.0635 5.18784 17.3889 5.88055 16.7343 6.5899C16.835 7.52232 16.9717 8.45201 17.1445 9.37896C17.112 9.7877 16.8933 9.94263 16.4882 9.84381C15.6566 9.40062 14.818 8.97225 13.9726 8.55865C13.1273 8.97225 12.2887 9.40062 11.457 9.84381C10.9283 9.9166 10.7187 9.68871 10.8281 9.16021C10.9977 8.30709 11.1253 7.4503 11.2109 6.5899C10.5563 5.88055 9.88177 5.18784 9.18746 4.51178C9.07185 4.23826 9.13567 4.0104 9.37887 3.82818C10.3522 3.6944 11.3184 3.53033 12.2773 3.336C12.7449 2.48297 13.1915 1.61709 13.6171 0.73834C13.6716 0.707392 13.7171 0.670932 13.7539 0.628965Z"
            fill="black" />
        <path opacity="0.951" fill-rule="evenodd" clip-rule="evenodd"
            d="M3.96496 3.85547C4.71258 3.84636 5.45998 3.85547 6.20715 3.88281C6.61397 4.05462 6.75069 4.3554 6.61731 4.78515C6.55349 4.99479 6.41677 5.13151 6.20715 5.19531C5.45975 5.23177 4.71236 5.23177 3.96496 5.19531C3.64354 5.09279 3.49771 4.87404 3.52746 4.53906C3.50908 4.20267 3.65491 3.9748 3.96496 3.85547Z"
            fill="black" />
        <path opacity="0.952" fill-rule="evenodd" clip-rule="evenodd"
            d="M21.7382 3.85547C22.4858 3.84636 23.2332 3.85547 23.9804 3.88281C24.3957 4.07273 24.5324 4.39174 24.3905 4.83984C24.305 5.01639 24.1683 5.13489 23.9804 5.19531C23.233 5.23177 22.4856 5.23177 21.7382 5.19531C21.3424 4.99545 21.2056 4.67644 21.328 4.23828C21.4233 4.06078 21.56 3.93318 21.7382 3.85547Z"
            fill="black" />
        <path opacity="0.937" fill-rule="evenodd" clip-rule="evenodd"
            d="M6.42566 6.97274C7.2393 6.93785 7.52182 7.30246 7.27332 8.06649C6.70265 8.42027 6.11022 8.73931 5.49597 9.02353C4.64089 9.24386 4.30365 8.92487 4.48425 8.06649C4.56628 7.98446 4.64832 7.90243 4.73035 7.8204C5.31403 7.56501 5.87911 7.28249 6.42566 6.97274Z"
            fill="black" />
        <path opacity="0.936" fill-rule="evenodd" clip-rule="evenodd"
            d="M21.0274 6.9726C21.1924 6.96358 21.3565 6.97271 21.5195 6.99995C22.078 7.28826 22.643 7.5617 23.2149 7.82026C23.5903 8.15352 23.6359 8.52726 23.3516 8.94135C23.1273 9.09399 22.8812 9.13959 22.6133 9.07807C22.0051 8.8013 21.4035 8.50965 20.8086 8.20307C20.5426 7.91284 20.4971 7.59385 20.6719 7.24604C20.7706 7.11884 20.8891 7.02773 21.0274 6.9726Z"
            fill="black" />
        <path opacity="0.98" fill-rule="evenodd" clip-rule="evenodd"
            d="M8.06641 11.5116C9.35233 11.3904 10.4826 11.7459 11.457 12.578C8.8264 14.2042 7.94227 16.5102 8.80469 19.496C9.02218 19.9675 9.26827 20.4232 9.54297 20.8632C8.07713 22.3433 7.42088 24.1298 7.57422 26.2226C6.3892 26.2317 5.20429 26.2226 4.01953 26.1952C3.79092 26.1404 3.63598 26.0037 3.55469 25.7851C3.51823 24.8554 3.51823 23.9257 3.55469 22.996C3.84982 21.3432 4.7157 20.0854 6.15234 19.2226C4.54276 17.9082 4.04146 16.2493 4.64844 14.246C5.2956 12.7143 6.43492 11.8028 8.06641 11.5116Z"
            fill="black" />
        <path opacity="0.98" fill-rule="evenodd" clip-rule="evenodd"
            d="M18.7305 11.5117C20.9742 11.3796 22.5146 12.3458 23.3516 14.4101C23.8756 16.3635 23.356 17.9677 21.793 19.2226C23.2296 20.0854 24.0955 21.3432 24.3906 22.996C24.4271 23.9257 24.4271 24.8554 24.3906 25.7851C24.3094 26.0037 24.1544 26.1405 23.9258 26.1953C22.741 26.2226 21.5561 26.2317 20.3711 26.2226C20.5244 24.1298 19.8682 22.3433 18.4023 20.8632C19.6757 18.9846 19.8307 17.0159 18.8672 14.957C18.293 13.9453 17.5 13.1523 16.4883 12.5781C17.1406 12.0148 17.888 11.6594 18.7305 11.5117Z"
            fill="black" />
        <path opacity="0.989" fill-rule="evenodd" clip-rule="evenodd"
            d="M18.6758 27.9727C15.5404 27.9727 12.4049 27.9727 9.26954 27.9727C9.05697 27.8778 8.92026 27.7138 8.85939 27.4805C8.82291 26.6602 8.82291 25.8398 8.85939 25.0195C9.09394 23.246 9.97808 21.9061 11.5117 21C10.0296 19.8479 9.47369 18.344 9.84376 16.4883C10.4727 14.4657 11.8489 13.3901 13.9727 13.2617C16.0964 13.3901 17.4727 14.4657 18.1016 16.4883C18.4716 18.344 17.9157 19.8479 16.4336 21C17.9673 21.9061 18.8514 23.246 19.0859 25.0195C19.1224 25.8398 19.1224 26.6602 19.0859 27.4805C19.0251 27.7138 18.8884 27.8778 18.6758 27.9727Z"
            fill="black" />
    </g>
    <defs>
        <clipPath id="clip0_75_2889">
            <rect width="28" height="28" fill="white" />
        </clipPath>
    </defs>
</svg>
    