<svg width="29" height="29" viewBox="0 0 29 29" fill="none" xmlns="http://www.w3.org/2000/svg">
    <path
        d="M27.1755 25.5818L19.0599 17.4662C20.3192 15.838 21.0005 13.8474 21.0005 11.7537C21.0005 9.24741 20.0224 6.89741 18.2536 5.12554C16.4849 3.35366 14.1286 2.37866 11.6255 2.37866C9.12236 2.37866 6.76611 3.35679 4.99736 5.12554C3.22549 6.89429 2.25049 9.24741 2.25049 11.7537C2.25049 14.2568 3.22861 16.613 4.99736 18.3818C6.76611 20.1537 9.11924 21.1287 11.6255 21.1287C13.7192 21.1287 15.7067 20.4474 17.3349 19.1912L25.4505 27.3037C25.4743 27.3275 25.5025 27.3464 25.5336 27.3592C25.5647 27.3721 25.5981 27.3788 25.6317 27.3788C25.6654 27.3788 25.6987 27.3721 25.7298 27.3592C25.7609 27.3464 25.7892 27.3275 25.813 27.3037L27.1755 25.9443C27.1993 25.9205 27.2182 25.8922 27.2311 25.8611C27.244 25.83 27.2506 25.7967 27.2506 25.763C27.2506 25.7294 27.244 25.696 27.2311 25.6649C27.2182 25.6338 27.1993 25.6056 27.1755 25.5818ZM16.5755 16.7037C15.2505 18.0255 13.4942 18.7537 11.6255 18.7537C9.75674 18.7537 8.00049 18.0255 6.67549 16.7037C5.35361 15.3787 4.62549 13.6224 4.62549 11.7537C4.62549 9.88491 5.35361 8.12554 6.67549 6.80366C8.00049 5.48179 9.75674 4.75366 11.6255 4.75366C13.4942 4.75366 15.2536 5.47866 16.5755 6.80366C17.8974 8.12866 18.6255 9.88491 18.6255 11.7537C18.6255 13.6224 17.8974 15.3818 16.5755 16.7037Z"
        fill="#D82596" />
</svg>
    