<svg width="28" height="29" viewBox="0 0 28 29" fill="none" xmlns="http://www.w3.org/2000/svg">
    <g clip-path="url(#clip0_256_1493)">
    <path d="M27.5798 14.2794L15.5048 2.21069L14.6954 1.40131C14.511 1.21811 14.2616 1.1153 14.0016 1.1153C13.7417 1.1153 13.4923 1.21811 13.3079 1.40131L0.423506 14.2794C0.234541 14.4677 0.0851982 14.6918 -0.0157061 14.9387C-0.11661 15.1856 -0.167032 15.4502 -0.163994 15.7169C-0.151494 16.8169 0.764131 17.6951 1.86413 17.6951H3.19226V27.8732H24.811V17.6951H26.1673C26.7016 17.6951 27.2048 17.4857 27.5829 17.1076C27.7691 16.922 27.9166 16.7013 28.0169 16.4583C28.1172 16.2153 28.1683 15.9548 28.1673 15.6919C28.1673 15.1607 27.9579 14.6576 27.5798 14.2794V14.2794ZM15.7516 25.6232H12.2516V19.2482H15.7516V25.6232ZM22.561 15.4451V25.6232H17.7516V18.4982C17.7516 17.8076 17.1923 17.2482 16.5016 17.2482H11.5016C10.811 17.2482 10.2516 17.8076 10.2516 18.4982V25.6232H5.44226V15.4451H2.44226L14.0048 3.89194L14.7266 4.61381L25.5641 15.4451H22.561Z" fill="white"/>
    </g>
    <defs>
    <clipPath id="clip0_256_1493">
    <rect width="28" height="28" fill="white" transform="translate(0 0.5)"/>
    </clipPath>
    </defs>
    </svg>
    