<svg width="28" height="29" viewBox="0 0 28 29" fill="none" xmlns="http://www.w3.org/2000/svg">
    <g clip-path="url(#clip0_256_1493)">
        <path
            d="M27.5798 14.2794L15.5048 2.21063L14.6954 1.40125C14.511 1.21805 14.2616 1.11523 14.0017 1.11523C13.7417 1.11523 13.4924 1.21805 13.3079 1.40125L0.423567 14.2794C0.234602 14.4676 0.0852593 14.6918 -0.0156451 14.9387C-0.116549 15.1856 -0.166971 15.4502 -0.163933 15.7169C-0.151433 16.8169 0.764192 17.695 1.86419 17.695H3.19232V27.8731H24.8111V17.695H26.1673C26.7017 17.695 27.2048 17.4856 27.5829 17.1075C27.7691 16.9219 27.9166 16.7012 28.017 16.4582C28.1173 16.2152 28.1684 15.9548 28.1673 15.6919C28.1673 15.1606 27.9579 14.6575 27.5798 14.2794ZM15.7517 25.6231H12.2517V19.2481H15.7517V25.6231ZM22.5611 15.445V25.6231H17.7517V18.4981C17.7517 17.8075 17.1923 17.2481 16.5017 17.2481H11.5017C10.8111 17.2481 10.2517 17.8075 10.2517 18.4981V25.6231H5.44232V15.445H2.44232L14.0048 3.89188L14.7267 4.61375L25.5642 15.445H22.5611Z"
            fill="#D82596" />
    </g>
    <defs>
        <clipPath id="clip0_256_1493">
            <rect width="28" height="28" fill="white" transform="translate(0 0.5)" />
        </clipPath>
    </defs>
</svg>
    
    