<svg width="27" height="27" viewBox="0 0 27 27" fill="none" xmlns="http://www.w3.org/2000/svg">
    <g clip-path="url(#clip0_263_1822)">
        <path
            d="M23.1421 0H3.85638C3.32301 0 2.89209 0.430915 2.89209 0.964286V26.0357C2.89209 26.5691 3.32301 27 3.85638 27H23.1421C23.6755 27 24.1064 26.5691 24.1064 26.0357V0.964286C24.1064 0.430915 23.6755 0 23.1421 0ZM5.06173 2.16964H21.9367V8.4375H5.06173V2.16964ZM21.9367 16.6339H5.06173V10.3661H21.9367V16.6339ZM21.9367 24.8304H5.06173V18.5625H21.9367V24.8304ZM7.23138 5.30357C7.23138 5.62325 7.35837 5.92984 7.58442 6.15589C7.81047 6.38194 8.11705 6.50893 8.43673 6.50893C8.75641 6.50893 9.063 6.38194 9.28905 6.15589C9.5151 5.92984 9.64209 5.62325 9.64209 5.30357C9.64209 4.98389 9.5151 4.6773 9.28905 4.45126C9.063 4.22521 8.75641 4.09821 8.43673 4.09821C8.11705 4.09821 7.81047 4.22521 7.58442 4.45126C7.35837 4.6773 7.23138 4.98389 7.23138 5.30357ZM7.23138 13.5C7.23138 13.8197 7.35837 14.1263 7.58442 14.3523C7.81047 14.5784 8.11705 14.7054 8.43673 14.7054C8.75641 14.7054 9.063 14.5784 9.28905 14.3523C9.5151 14.1263 9.64209 13.8197 9.64209 13.5C9.64209 13.1803 9.5151 12.8737 9.28905 12.6477C9.063 12.4216 8.75641 12.2946 8.43673 12.2946C8.11705 12.2946 7.81047 12.4216 7.58442 12.6477C7.35837 12.8737 7.23138 13.1803 7.23138 13.5ZM7.23138 21.6964C7.23138 22.0161 7.35837 22.3227 7.58442 22.5487C7.81047 22.7748 8.11705 22.9018 8.43673 22.9018C8.75641 22.9018 9.063 22.7748 9.28905 22.5487C9.5151 22.3227 9.64209 22.0161 9.64209 21.6964C9.64209 21.3767 9.5151 21.0702 9.28905 20.8441C9.063 20.6181 8.75641 20.4911 8.43673 20.4911C8.11705 20.4911 7.81047 20.6181 7.58442 20.8441C7.35837 21.0702 7.23138 21.3767 7.23138 21.6964Z"
            fill="#D82596" />
    </g>
    <defs>
        <clipPath id="clip0_263_1822">
            <rect width="27" height="27" fill="white" />
        </clipPath>
    </defs>
</svg>
    
    