<svg width="28" height="28" viewBox="0 0 28 28" fill="none" xmlns="http://www.w3.org/2000/svg">
    <path opacity="0.98" fill-rule="evenodd" clip-rule="evenodd"
        d="M10.3057 1.55896C11.272 1.54985 12.2381 1.55896 13.2041 1.5863C14.1976 1.77771 14.7901 2.37015 14.9815 3.36365C15.0179 10.5459 15.0179 17.7282 14.9815 24.9105C14.7901 25.904 14.1976 26.4965 13.2041 26.6879C12.238 26.7243 11.2718 26.7243 10.3057 26.6879C9.40197 26.5315 8.82775 26.012 8.58302 25.1293C8.54654 17.8011 8.54654 10.473 8.58302 3.1449C8.83721 2.26154 9.41143 1.7329 10.3057 1.55896ZM10.5244 3.36365C11.345 3.35453 12.1653 3.36365 12.9854 3.39099C13.0856 3.41833 13.1494 3.48214 13.1768 3.5824C13.2132 10.6189 13.2132 17.6553 13.1768 24.6918C13.1494 24.792 13.0856 24.8558 12.9854 24.8832C12.1651 24.9197 11.3447 24.9197 10.5244 24.8832C10.4029 24.8475 10.339 24.7655 10.333 24.6371C10.2965 17.6371 10.2965 10.6371 10.333 3.63708C10.3471 3.50548 10.4109 3.41433 10.5244 3.36365Z"
        fill="#D82596" />
    <path opacity="0.98" fill-rule="evenodd" clip-rule="evenodd"
        d="M3.08984 3.89233C4.12907 3.88322 5.16813 3.89234 6.20703 3.91968C7.04916 4.1238 7.58696 4.64333 7.82031 5.47827C7.85679 12.0226 7.85679 18.5668 7.82031 25.1111C7.57559 25.9938 7.00137 26.5133 6.09766 26.6697C5.13151 26.7062 4.16537 26.7062 3.19922 26.6697C2.20573 26.4783 1.61328 25.8858 1.42188 24.8923C1.38542 18.4939 1.38542 12.0955 1.42188 5.69702C1.60527 4.74431 2.16125 4.14275 3.08984 3.89233ZM3.36328 5.69702C4.22025 5.68789 5.07702 5.69702 5.93359 5.72436C6.00977 5.7884 6.05538 5.87043 6.07031 5.97046C6.10679 12.1866 6.10679 18.4027 6.07031 24.6189C6.0643 24.7473 6.00048 24.8293 5.87891 24.865C5.05859 24.9015 4.23828 24.9015 3.41797 24.865C3.31771 24.8376 3.25391 24.7738 3.22656 24.6736C3.1901 18.4027 3.1901 12.1319 3.22656 5.86108C3.28371 5.81334 3.32928 5.75865 3.36328 5.69702Z"
        fill="#D82596" />
    <path opacity="0.965" fill-rule="evenodd" clip-rule="evenodd"
        d="M19.6073 6.22441C20.6543 6.18706 21.3925 6.64277 21.8221 7.5916C23.1614 12.9305 24.4921 18.2716 25.8143 23.615C25.9137 24.7548 25.4306 25.5296 24.3651 25.9393C23.5468 26.1484 22.7265 26.3489 21.9041 26.5408C20.8309 26.6833 20.0561 26.2732 19.5799 25.3103C18.2493 19.9877 16.9186 14.6648 15.5877 9.3416C15.4265 8.19147 15.8731 7.38023 16.9276 6.90801C17.8295 6.68712 18.7227 6.45924 19.6073 6.22441ZM19.7713 8.0291C19.9387 8.02604 20.0572 8.09899 20.1268 8.24785C21.4216 13.4817 22.7249 18.7135 24.037 23.9432C24.0164 24.0461 23.9617 24.1282 23.8729 24.1893C23.091 24.3893 22.3071 24.5807 21.5213 24.7635C21.4188 24.7695 21.3368 24.7331 21.2752 24.6541C19.9546 19.4081 18.6512 14.1581 17.3651 8.9041C17.3631 8.75092 17.436 8.65062 17.5838 8.60332C18.3241 8.42744 19.0533 8.23604 19.7713 8.0291Z"
        fill="#D82596" />
</svg>
    
    