<svg width="28" height="29" viewBox="0 0 28 29" fill="none" xmlns="http://www.w3.org/2000/svg">
    <g clip-path="url(#clip0_263_1807)">
        <path
            d="M19.7498 13.8765H14.9998V9.12646C14.9998 8.98897 14.8873 8.87646 14.7498 8.87646H13.2498C13.1123 8.87646 12.9998 8.98897 12.9998 9.12646V13.8765H8.24976C8.11226 13.8765 7.99976 13.989 7.99976 14.1265V15.6265C7.99976 15.764 8.11226 15.8765 8.24976 15.8765H12.9998V20.6265C12.9998 20.764 13.1123 20.8765 13.2498 20.8765H14.7498C14.8873 20.8765 14.9998 20.764 14.9998 20.6265V15.8765H19.7498C19.8873 15.8765 19.9998 15.764 19.9998 15.6265V14.1265C19.9998 13.989 19.8873 13.8765 19.7498 13.8765Z"
            fill="#D82596" />
        <path
            d="M14 0.875C6.26875 0.875 0 7.14375 0 14.875C0 22.6063 6.26875 28.875 14 28.875C21.7313 28.875 28 22.6063 28 14.875C28 7.14375 21.7313 0.875 14 0.875ZM14 26.5C7.58125 26.5 2.375 21.2938 2.375 14.875C2.375 8.45625 7.58125 3.25 14 3.25C20.4188 3.25 25.625 8.45625 25.625 14.875C25.625 21.2938 20.4188 26.5 14 26.5Z"
            fill="#D82596" />
    </g>
    <defs>
        <clipPath id="clip0_263_1807">
            <rect width="28" height="28" fill="white" transform="translate(0 0.875)" />
        </clipPath>
    </defs>
</svg>
    