<svg width="28" height="29" viewBox="0 0 28 29" fill="none" xmlns="http://www.w3.org/2000/svg">
    <g clip-path="url(#clip0_256_1499)">
    <path d="M26.8997 18.0577L24.8528 16.3077C24.9497 15.7139 24.9997 15.1077 24.9997 14.5014C24.9997 13.8952 24.9497 13.2889 24.8528 12.6952L26.8997 10.9452C27.0541 10.813 27.1646 10.637 27.2165 10.4405C27.2684 10.244 27.2592 10.0364 27.1903 9.84519L27.1622 9.76394C26.5987 8.18902 25.7549 6.72905 24.6715 5.45457L24.6153 5.38894C24.4839 5.23442 24.3087 5.12334 24.1129 5.07034C23.9171 5.01734 23.7098 5.02492 23.5184 5.09207L20.9778 5.99519C20.0403 5.22644 18.9934 4.62019 17.8622 4.19519L17.3715 1.53894C17.3345 1.33907 17.2376 1.1552 17.0936 1.01175C16.9495 0.868294 16.7653 0.772055 16.5653 0.735815L16.4809 0.72019C14.8528 0.42644 13.1403 0.42644 11.5122 0.72019L11.4278 0.735815C11.2278 0.772055 11.0435 0.868294 10.8995 1.01175C10.7555 1.1552 10.6586 1.33907 10.6215 1.53894L10.1278 4.20769C9.00557 4.63278 7.9605 5.23871 7.03404 6.00144L4.47466 5.09207C4.28331 5.02438 4.07589 5.01654 3.87996 5.06956C3.68404 5.12259 3.50889 5.23398 3.37779 5.38894L3.32154 5.45457C2.2395 6.72995 1.39584 8.18968 0.830915 9.76394L0.802789 9.84519C0.662164 10.2358 0.77779 10.6733 1.09341 10.9452L3.16529 12.7139C3.06841 13.3014 3.02154 13.9014 3.02154 14.4983C3.02154 15.0983 3.06841 15.6983 3.16529 16.2827L1.09341 18.0514C0.939026 18.1836 0.828528 18.3596 0.776614 18.5561C0.7247 18.7526 0.73383 18.9603 0.802789 19.1514L0.830915 19.2327C1.39654 20.8077 2.23404 22.2608 3.32154 23.5421L3.37779 23.6077C3.50921 23.7622 3.68436 23.8733 3.88017 23.9263C4.07598 23.9793 4.28325 23.9717 4.47466 23.9046L7.03404 22.9952C7.96529 23.7608 9.00591 24.3671 10.1278 24.7889L10.6215 27.4577C10.6586 27.6576 10.7555 27.8414 10.8995 27.9849C11.0435 28.1283 11.2278 28.2246 11.4278 28.2608L11.5122 28.2764C13.1552 28.5718 14.8378 28.5718 16.4809 28.2764L16.5653 28.2608C16.7653 28.2246 16.9495 28.1283 17.0936 27.9849C17.2376 27.8414 17.3345 27.6576 17.3715 27.4577L17.8622 24.8014C18.993 24.3776 20.0457 23.7693 20.9778 23.0014L23.5184 23.9046C23.7098 23.9722 23.9172 23.9801 24.1131 23.9271C24.309 23.874 24.4842 23.7626 24.6153 23.6077L24.6715 23.5421C25.759 22.2577 26.5965 20.8077 27.1622 19.2327L27.1903 19.1514C27.3309 18.7671 27.2153 18.3296 26.8997 18.0577V18.0577ZM22.634 13.0639C22.7122 13.5358 22.7528 14.0202 22.7528 14.5046C22.7528 14.9889 22.7122 15.4733 22.634 15.9452L22.4278 17.1983L24.7622 19.1952C24.4083 20.0105 23.9616 20.7822 23.4309 21.4952L20.5309 20.4671L19.5497 21.2733C18.8028 21.8858 17.9715 22.3671 17.0715 22.7046L15.8809 23.1514L15.3215 26.1827C14.4389 26.2827 13.5479 26.2827 12.6653 26.1827L12.1059 23.1452L10.9247 22.6921C10.034 22.3546 9.20591 21.8733 8.46529 21.2639L7.48404 20.4546L4.56529 21.4921C4.03404 20.7764 3.59029 20.0046 3.23404 19.1921L5.59341 17.1764L5.39029 15.9264C5.31529 15.4608 5.27466 14.9796 5.27466 14.5046C5.27466 14.0264 5.31216 13.5483 5.39029 13.0827L5.59341 11.8327L3.23404 9.81707C3.58716 9.00144 4.03404 8.23269 4.56529 7.51707L7.48404 8.55457L8.46529 7.74519C9.20591 7.13582 10.034 6.65457 10.9247 6.31707L12.109 5.87019L12.6684 2.83269C13.5465 2.73269 14.4434 2.73269 15.3247 2.83269L15.884 5.86394L17.0747 6.31082C17.9715 6.64832 18.8059 7.12957 19.5528 7.74207L20.534 8.54832L23.434 7.52019C23.9653 8.23582 24.409 9.00769 24.7653 9.82019L22.4309 11.8171L22.634 13.0639ZM13.9997 8.69207C10.9622 8.69207 8.49966 11.1546 8.49966 14.1921C8.49966 17.2296 10.9622 19.6921 13.9997 19.6921C17.0372 19.6921 19.4997 17.2296 19.4997 14.1921C19.4997 11.1546 17.0372 8.69207 13.9997 8.69207ZM16.4747 16.6671C16.15 16.9926 15.7643 17.2508 15.3395 17.4267C14.9148 17.6026 14.4594 17.6928 13.9997 17.6921C13.0653 17.6921 12.1872 17.3264 11.5247 16.6671C11.1991 16.3424 10.941 15.9567 10.765 15.5319C10.5891 15.1072 10.4989 14.6518 10.4997 14.1921C10.4997 13.2577 10.8653 12.3796 11.5247 11.7171C12.1872 11.0546 13.0653 10.6921 13.9997 10.6921C14.934 10.6921 15.8122 11.0546 16.4747 11.7171C16.8002 12.0417 17.0584 12.4275 17.2343 12.8522C17.4102 13.277 17.5004 13.7323 17.4997 14.1921C17.4997 15.1264 17.134 16.0046 16.4747 16.6671Z" fill="white"/>
    </g>
    <defs>
    <clipPath id="clip0_256_1499">
    <rect width="28" height="28" fill="white" transform="translate(0 0.5)"/>
    </clipPath>
    </defs>
    </svg>
    