<svg width="28" height="29" viewBox="0 0 28 29" fill="none" xmlns="http://www.w3.org/2000/svg">
    <g clip-path="url(#clip0_263_1892)">
        <path
            d="M26.8997 18.3077L24.8528 16.5577C24.9497 15.9639 24.9997 15.3577 24.9997 14.7514C24.9997 14.1452 24.9497 13.5389 24.8528 12.9452L26.8997 11.1952C27.0541 11.063 27.1646 10.887 27.2165 10.6905C27.2684 10.494 27.2592 10.2864 27.1903 10.0952L27.1622 10.0139C26.5987 8.43902 25.7549 6.97905 24.6715 5.70457L24.6153 5.63894C24.4839 5.48442 24.3087 5.37334 24.1129 5.32034C23.9171 5.26734 23.7098 5.27492 23.5184 5.34207L20.9778 6.24519C20.0403 5.47644 18.9934 4.87019 17.8622 4.44519L17.3715 1.78894C17.3345 1.58907 17.2376 1.4052 17.0936 1.26175C16.9495 1.11829 16.7653 1.02206 16.5653 0.985815L16.4809 0.97019C14.8528 0.67644 13.1403 0.67644 11.5122 0.97019L11.4278 0.985815C11.2278 1.02206 11.0435 1.11829 10.8995 1.26175C10.7555 1.4052 10.6586 1.58907 10.6215 1.78894L10.1278 4.45769C9.00557 4.88278 7.9605 5.48871 7.03404 6.25144L4.47466 5.34207C4.28331 5.27438 4.07589 5.26654 3.87996 5.31956C3.68404 5.37259 3.50889 5.48398 3.37779 5.63894L3.32154 5.70457C2.2395 6.97995 1.39584 8.43968 0.830915 10.0139L0.802789 10.0952C0.662164 10.4858 0.77779 10.9233 1.09341 11.1952L3.16529 12.9639C3.06841 13.5514 3.02154 14.1514 3.02154 14.7483C3.02154 15.3483 3.06841 15.9483 3.16529 16.5327L1.09341 18.3014C0.939026 18.4336 0.828528 18.6096 0.776614 18.8061C0.7247 19.0026 0.73383 19.2103 0.802789 19.4014L0.830915 19.4827C1.39654 21.0577 2.23404 22.5108 3.32154 23.7921L3.37779 23.8577C3.50921 24.0122 3.68436 24.1233 3.88017 24.1763C4.07598 24.2293 4.28325 24.2217 4.47466 24.1546L7.03404 23.2452C7.96529 24.0108 9.00591 24.6171 10.1278 25.0389L10.6215 27.7077C10.6586 27.9076 10.7555 28.0914 10.8995 28.2349C11.0435 28.3783 11.2278 28.4746 11.4278 28.5108L11.5122 28.5264C13.1552 28.8218 14.8378 28.8218 16.4809 28.5264L16.5653 28.5108C16.7653 28.4746 16.9495 28.3783 17.0936 28.2349C17.2376 28.0914 17.3345 27.9076 17.3715 27.7077L17.8622 25.0514C18.993 24.6276 20.0457 24.0193 20.9778 23.2514L23.5184 24.1546C23.7098 24.2222 23.9172 24.2301 24.1131 24.1771C24.309 24.124 24.4842 24.0126 24.6153 23.8577L24.6715 23.7921C25.759 22.5077 26.5965 21.0577 27.1622 19.4827L27.1903 19.4014C27.3309 19.0171 27.2153 18.5796 26.8997 18.3077ZM22.634 13.3139C22.7122 13.7858 22.7528 14.2702 22.7528 14.7546C22.7528 15.2389 22.7122 15.7233 22.634 16.1952L22.4278 17.4483L24.7622 19.4452C24.4083 20.2605 23.9616 21.0322 23.4309 21.7452L20.5309 20.7171L19.5497 21.5233C18.8028 22.1358 17.9715 22.6171 17.0715 22.9546L15.8809 23.4014L15.3215 26.4327C14.4389 26.5327 13.5479 26.5327 12.6653 26.4327L12.1059 23.3952L10.9247 22.9421C10.034 22.6046 9.20591 22.1233 8.46529 21.5139L7.48404 20.7046L4.56529 21.7421C4.03404 21.0264 3.59029 20.2546 3.23404 19.4421L5.59341 17.4264L5.39029 16.1764C5.31529 15.7108 5.27466 15.2296 5.27466 14.7546C5.27466 14.2764 5.31216 13.7983 5.39029 13.3327L5.59341 12.0827L3.23404 10.0671C3.58716 9.25144 4.03404 8.48269 4.56529 7.76707L7.48404 8.80457L8.46529 7.99519C9.20591 7.38582 10.034 6.90457 10.9247 6.56707L12.109 6.12019L12.6684 3.08269C13.5465 2.98269 14.4434 2.98269 15.3247 3.08269L15.884 6.11394L17.0747 6.56082C17.9715 6.89832 18.8059 7.37957 19.5528 7.99207L20.534 8.79832L23.434 7.77019C23.9653 8.48582 24.409 9.25769 24.7653 10.0702L22.4309 12.0671L22.634 13.3139ZM13.9997 8.94207C10.9622 8.94207 8.49966 11.4046 8.49966 14.4421C8.49966 17.4796 10.9622 19.9421 13.9997 19.9421C17.0372 19.9421 19.4997 17.4796 19.4997 14.4421C19.4997 11.4046 17.0372 8.94207 13.9997 8.94207ZM16.4747 16.9171C16.15 17.2426 15.7643 17.5008 15.3395 17.6767C14.9148 17.8526 14.4594 17.9428 13.9997 17.9421C13.0653 17.9421 12.1872 17.5764 11.5247 16.9171C11.1991 16.5924 10.941 16.2067 10.765 15.7819C10.5891 15.3572 10.4989 14.9018 10.4997 14.4421C10.4997 13.5077 10.8653 12.6296 11.5247 11.9671C12.1872 11.3046 13.0653 10.9421 13.9997 10.9421C14.934 10.9421 15.8122 11.3046 16.4747 11.9671C16.8002 12.2917 17.0584 12.6775 17.2343 13.1022C17.4102 13.527 17.5004 13.9823 17.4997 14.4421C17.4997 15.3764 17.134 16.2546 16.4747 16.9171Z"
            fill="#D82596" />
    </g>
    <defs>
        <clipPath id="clip0_263_1892">
            <rect width="28" height="28" fill="white" transform="translate(0 0.75)" />
        </clipPath>
    </defs>
</svg>
    