<svg width="34" height="34" viewBox="0 0 34 34" fill="none" xmlns="http://www.w3.org/2000/svg">
    <g clip-path="url(#clip0_233_2655)">
        <path
            d="M23.9819 15.7875H18.214V10.0196C18.214 9.85267 18.0774 9.71607 17.9104 9.71607H16.089C15.922 9.71607 15.7854 9.85267 15.7854 10.0196V15.7875H10.0176C9.8506 15.7875 9.71399 15.9241 9.71399 16.0911V17.9125C9.71399 18.0795 9.8506 18.2161 10.0176 18.2161H15.7854V23.9839C15.7854 24.1509 15.922 24.2875 16.089 24.2875H17.9104C18.0774 24.2875 18.214 24.1509 18.214 23.9839V18.2161H23.9819C24.1488 18.2161 24.2854 18.0795 24.2854 17.9125V16.0911C24.2854 15.9241 24.1488 15.7875 23.9819 15.7875Z"
            fill="#D82596" />
        <path
            d="M17 0C7.61205 0 0 7.61205 0 17C0 26.3879 7.61205 34 17 34C26.3879 34 34 26.3879 34 17C34 7.61205 26.3879 0 17 0ZM17 31.1161C9.2058 31.1161 2.88393 24.7942 2.88393 17C2.88393 9.2058 9.2058 2.88393 17 2.88393C24.7942 2.88393 31.1161 9.2058 31.1161 17C31.1161 24.7942 24.7942 31.1161 17 31.1161Z"
            fill="#D82596" />
    </g>
    <defs>
        <clipPath id="clip0_233_2655">
            <rect width="34" height="34" rx="17" fill="white" />
        </clipPath>
    </defs>
</svg>
    