<svg width="37" height="36" viewBox="0 0 37 36" fill="none" xmlns="http://www.w3.org/2000/svg">
    <g clip-path="url(#clip0_233_2650)">
        <path opacity="0.97" fill-rule="evenodd" clip-rule="evenodd"
            d="M11.9961 0.527279C12.5348 0.530912 13.0388 0.671537 13.5078 0.949154C16.6575 1.92366 19.8215 1.97053 23 1.08978C23.4456 0.943164 23.8791 0.767382 24.3008 0.562436C24.7894 0.451909 25.1995 0.580816 25.5312 0.949154C25.8956 1.50066 26.2589 2.05144 26.6211 2.6015C23.9323 3.79303 21.2136 4.92976 18.4648 6.01165C15.7298 4.92534 13.011 3.80034 10.3086 2.63665C10.658 2.0647 11.0213 1.5022 11.3984 0.949154C11.5617 0.745579 11.7609 0.604956 11.9961 0.527279Z"
            fill="white" />
        <path opacity="0.989" fill-rule="evenodd" clip-rule="evenodd"
            d="M0.464844 15.715C0.464844 13.5353 0.464844 11.3556 0.464844 9.17589C0.989395 6.69388 2.46596 5.06497 4.89453 4.28918C5.89509 4.1297 6.9029 4.0711 7.91797 4.11339C7.92971 6.50413 7.91797 8.89478 7.88281 11.2853C7.30859 14.0626 5.63281 15.7384 2.85547 16.3126C2.26953 16.3595 1.68359 16.3595 1.09766 16.3126C0.803385 16.1939 0.592448 15.9947 0.464844 15.715Z"
            fill="white" />
        <path opacity="0.989" fill-rule="evenodd" clip-rule="evenodd"
            d="M36.4649 9.17578C36.4649 11.3555 36.4649 13.5351 36.4649 15.7148C36.3372 15.9946 36.1263 16.1938 35.832 16.3125C32.8254 16.5617 30.6809 15.3312 29.3984 12.6211C29.2483 12.1845 29.1311 11.7392 29.0469 11.2852C29.0117 8.89467 29 6.50401 29.0117 4.11327C31.8367 3.72123 34.0515 4.68217 35.6563 6.99609C36.0464 7.68698 36.3159 8.41352 36.4649 9.17578Z"
            fill="white" />
        <path opacity="0.989" fill-rule="evenodd" clip-rule="evenodd"
            d="M9.95703 4.67578C12.4551 5.69995 14.9512 6.7312 17.4453 7.76953C17.4805 15.3867 17.4922 23.0039 17.4805 30.6211C14.8785 30.6445 12.2769 30.6211 9.67578 30.5508C8.3563 26.2056 7.04381 21.858 5.73828 17.5078C7.0109 16.7039 8.05388 15.661 8.86719 14.3789C9.47398 13.3085 9.82555 12.1601 9.92188 10.9336C9.95703 8.84777 9.96877 6.76185 9.95703 4.67578Z"
            fill="white" />
        <path opacity="0.989" fill-rule="evenodd" clip-rule="evenodd"
            d="M26.9023 4.67578C26.9608 6.7498 26.996 8.83575 27.0078 10.9336C27.215 13.141 28.1408 14.9809 29.7851 16.4531C30.2779 16.783 30.7467 17.1346 31.1914 17.5078C29.8858 21.858 28.5734 26.2056 27.2539 30.5508C24.6528 30.6211 22.0512 30.6445 19.4492 30.6211C19.4258 23.0038 19.4492 15.3866 19.5195 7.76953C21.9875 6.7365 24.4484 5.70525 26.9023 4.67578Z"
            fill="white" />
        <path opacity="0.977" fill-rule="evenodd" clip-rule="evenodd"
            d="M9.95701 32.6602C15.6289 32.6602 21.3007 32.6602 26.9726 32.6602C26.9843 33.3168 26.9726 33.9731 26.9375 34.6289C26.832 35.0156 26.5859 35.2617 26.1992 35.3672C21.043 35.4141 15.8867 35.4141 10.7304 35.3672C10.3437 35.2617 10.0976 35.0156 9.99217 34.6289C9.95701 33.9731 9.94534 33.3168 9.95701 32.6602Z"
            fill="white" />
    </g>
    <defs>
        <clipPath id="clip0_233_2650">
            <rect width="36" height="36" fill="white" transform="translate(0.5)" />
        </clipPath>
    </defs>
</svg>
    