<svg width="36" height="36" viewBox="0 0 36 36" fill="none" xmlns="http://www.w3.org/2000/svg">
    <path opacity="0.989" fill-rule="evenodd" clip-rule="evenodd"
        d="M6.85547 1.01953C14.2384 1.00781 21.6212 1.01953 29.0039 1.05469C31.9071 1.37954 33.7938 2.93814 34.6641 5.73047C34.8225 6.40245 34.8694 7.08216 34.8047 7.76953C33.0586 10.1719 31.3125 12.5742 29.5664 14.9766C31.3315 15.4648 32.5503 16.5547 33.2227 18.2461C33.7597 18.3162 34.2987 18.3397 34.8398 18.3164C34.8398 23.8242 34.8398 29.3321 34.8398 34.8398C23.5664 34.8398 12.2929 34.8398 1.01953 34.8398C1.01953 29.3321 1.01953 23.8242 1.01953 18.3164C1.5591 18.3281 2.09817 18.3164 2.63672 18.2813C3.32217 16.5411 4.56436 15.4161 6.36328 14.9063C4.61719 12.5508 2.87109 10.1953 1.125 7.83984C0.966424 4.92797 2.19689 2.8303 4.81641 1.54688C5.48497 1.29192 6.16466 1.11613 6.85547 1.01953ZM7.13672 3.05859C14.3555 3.04687 21.5743 3.05859 28.793 3.09375C30.7427 3.32088 32.0318 4.36385 32.6602 6.22266C22.84 6.30469 13.0196 6.3164 3.19922 6.25781C3.85552 4.37251 5.16802 3.3061 7.13672 3.05859ZM17.4023 12.3398C18.3589 12.2155 19.2027 12.4616 19.9336 13.0781C20.1914 13.3828 20.4492 13.6875 20.707 13.9922C21.1662 14.364 21.6936 14.5398 22.2891 14.5195C22.8246 14.4313 23.3636 14.361 23.9062 14.3086C24.6084 14.3082 25.2295 14.5309 25.7695 14.9766C26.1378 15.3563 26.4658 15.7665 26.7539 16.207C27.1053 16.5585 27.5271 16.7812 28.0195 16.875C29.2634 16.8174 30.2478 17.2862 30.9727 18.2813C22.3007 18.3398 13.6288 18.3281 4.95703 18.2461C5.18144 17.8694 5.48613 17.5764 5.87109 17.3672C6.47111 17.1361 7.05705 16.8783 7.62891 16.5938C8.22178 16.0765 8.6085 15.4319 8.78906 14.6602C9.67591 13.0578 10.9767 12.6008 12.6914 13.2891C13.6201 13.9329 14.581 13.9798 15.5742 13.4297C16.0934 12.9011 16.7027 12.5378 17.4023 12.3398ZM16.3477 20.3555C17.4258 20.3555 18.5039 20.3555 19.582 20.3555C19.582 21.6445 19.582 22.9336 19.582 24.2227C18.5039 24.2227 17.4258 24.2227 16.3477 24.2227C16.3477 22.9336 16.3477 21.6445 16.3477 20.3555Z"
        fill="white" />
</svg>
    