<svg width="33" height="34" viewBox="0 0 33 34" fill="none" xmlns="http://www.w3.org/2000/svg">
    <path
        d="M26.9523 1.20321C24.331 1.58357 22.1025 1.9317 22.0059 1.98327C21.89 2.03485 19.3395 5.06484 15.4365 9.77744C11.9328 14.013 9.04099 17.5007 9.01522 17.5329C8.9959 17.5587 8.84777 17.5394 8.69319 17.4813C8.01049 17.2428 7.17321 17.3073 6.47763 17.6554C6.19424 17.7972 5.84645 18.0938 5.19595 18.732C4.70002 19.2155 4.26206 19.6861 4.21054 19.7829C4.09461 20.0085 4.09461 20.4404 4.21054 20.6596C4.26206 20.7563 4.78375 21.3107 5.36985 21.8974L6.43899 22.9611L4.88036 24.5212C3.43123 25.9718 3.30242 26.0878 3.08988 26.0878C2.64547 26.0878 2.02074 26.2232 1.6343 26.4037C0.86787 26.7647 0.230251 27.6028 0.0627958 28.4667C-0.0209319 28.9115 -0.0209319 30.6779 0.0627958 31.1227C0.281776 32.2832 1.21566 33.218 2.37497 33.4371C2.81937 33.521 4.58409 33.521 5.02849 33.4371C5.89153 33.2695 6.72881 32.6313 7.08949 31.8641C7.26982 31.4773 7.40507 30.852 7.40507 30.4072C7.40507 30.1944 7.52101 30.0655 8.97014 28.6149L10.5288 27.0548L11.5915 28.125C12.1776 28.7116 12.7314 29.2338 12.8281 29.2854C13.047 29.4015 13.4786 29.4015 13.704 29.2854C13.8006 29.2338 14.2708 28.7955 14.7538 28.2991C15.4301 27.6092 15.6748 27.3127 15.8294 26.9904C16.1836 26.2619 16.248 25.4883 16.0033 24.8049C15.9517 24.6437 15.926 24.4955 15.9517 24.4761C15.9839 24.4503 19.4683 21.5557 23.7062 18.0422C30.1855 12.6656 31.4285 11.6083 31.5122 11.4085C31.5637 11.2731 31.918 8.95869 32.3044 6.26394L33 1.36438L32.8519 1.06138C32.6909 0.719704 32.3173 0.487617 31.9373 0.500511C31.8149 0.506958 29.5736 0.816406 26.9523 1.20321ZM30.8424 2.7311C30.8424 2.79557 30.5912 4.58133 30.2821 6.69587L29.7217 10.5446L22.2571 16.74C18.1544 20.1439 14.7667 22.9482 14.7345 22.9676C14.6958 22.9934 14.3545 22.6968 13.968 22.31L13.266 21.6073L18.9337 15.9341C23.0557 11.8082 24.6272 10.19 24.6981 10.0095C24.8526 9.64206 24.7754 9.30682 24.4727 9.00382C24.1699 8.70082 23.835 8.62346 23.4679 8.77818C23.2876 8.8491 21.671 10.4221 17.549 14.5481L11.8813 20.2212L11.1793 19.5185C10.7928 19.1317 10.4966 18.79 10.5223 18.7514C10.5416 18.7191 13.3433 15.3281 16.7439 11.2215L22.9334 3.74969L26.7462 3.19527C28.8458 2.88582 30.6234 2.6344 30.7071 2.62795C30.8038 2.6215 30.8488 2.66018 30.8424 2.7311ZM8.20371 19.3831C8.3776 19.467 9.43386 20.4791 11.2823 22.3293C13.6975 24.7598 14.1033 25.1917 14.1741 25.4238C14.2965 25.8428 14.1806 26.1394 13.6847 26.6551L13.2725 27.0871L9.83962 23.6574L6.40678 20.2212L6.76102 19.8667C7.13457 19.4927 7.52745 19.2542 7.78507 19.2542C7.87524 19.2542 8.06202 19.3122 8.20371 19.3831ZM8.49998 25.0241L9.17624 25.701L7.80439 27.0742L6.43899 28.4409L5.74984 27.7446L5.05426 27.0548L6.40678 25.701C7.14745 24.9596 7.77219 24.3472 7.79151 24.3472C7.81083 24.3472 8.12642 24.6502 8.49998 25.0241ZM4.39088 29.0985C5.46646 30.1751 5.4729 30.1815 5.4729 30.4652C5.4729 30.8971 5.26036 31.2775 4.93189 31.4322C4.69358 31.5482 4.53901 31.5676 3.67597 31.5676C2.52954 31.5676 2.2848 31.4902 2.05938 31.0518C1.94989 30.8326 1.93057 30.6715 1.93057 29.8205C1.93057 28.9566 1.94989 28.8019 2.06582 28.5634C2.2204 28.2346 2.59395 28.0218 3.02547 28.0218C3.3153 28.0218 3.3153 28.0283 4.39088 29.0985Z"
        fill="white" />
</svg>
    