<svg width="28" height="29" viewBox="0 0 28 29" fill="none" xmlns="http://www.w3.org/2000/svg">
    <path d="M26.4255 25.2069L18.3099 17.0913C19.5692 15.4632 20.2505 13.4725 20.2505 11.3788C20.2505 8.87253 19.2724 6.52253 17.5036 4.75066C15.7349 2.97878 13.3786 2.00378 10.8755 2.00378C8.37236 2.00378 6.01611 2.98191 4.24736 4.75066C2.47549 6.51941 1.50049 8.87253 1.50049 11.3788C1.50049 13.8819 2.47861 16.2382 4.24736 18.0069C6.01611 19.7788 8.36924 20.7538 10.8755 20.7538C12.9692 20.7538 14.9567 20.0725 16.5849 18.8163L24.7005 26.9288C24.7243 26.9526 24.7525 26.9715 24.7836 26.9844C24.8147 26.9973 24.8481 27.0039 24.8817 27.0039C24.9154 27.0039 24.9487 26.9973 24.9798 26.9844C25.0109 26.9715 25.0392 26.9526 25.063 26.9288L26.4255 25.5694C26.4493 25.5456 26.4682 25.5174 26.4811 25.4863C26.494 25.4552 26.5006 25.4218 26.5006 25.3882C26.5006 25.3545 26.494 25.3212 26.4811 25.2901C26.4682 25.259 26.4493 25.2307 26.4255 25.2069V25.2069ZM15.8255 16.3288C14.5005 17.6507 12.7442 18.3788 10.8755 18.3788C9.00674 18.3788 7.25049 17.6507 5.92549 16.3288C4.60361 15.0038 3.87549 13.2475 3.87549 11.3788C3.87549 9.51003 4.60361 7.75066 5.92549 6.42878C7.25049 5.10691 9.00674 4.37878 10.8755 4.37878C12.7442 4.37878 14.5036 5.10378 15.8255 6.42878C17.1474 7.75378 17.8755 9.51003 17.8755 11.3788C17.8755 13.2475 17.1474 15.0069 15.8255 16.3288Z" fill="#D82596"/>
</svg>
