<svg width="28" height="29" viewBox="0 0 28 29" fill="none" xmlns="http://www.w3.org/2000/svg">
    <g clip-path="url(#clip0_256_1487)">
    <path d="M19.7498 13.5015H14.9998V8.75146C14.9998 8.61396 14.8873 8.50146 14.7498 8.50146H13.2498C13.1123 8.50146 12.9998 8.61396 12.9998 8.75146V13.5015H8.24976C8.11226 13.5015 7.99976 13.614 7.99976 13.7515V15.2515C7.99976 15.389 8.11226 15.5015 8.24976 15.5015H12.9998V20.2515C12.9998 20.389 13.1123 20.5015 13.2498 20.5015H14.7498C14.8873 20.5015 14.9998 20.389 14.9998 20.2515V15.5015H19.7498C19.8873 15.5015 19.9998 15.389 19.9998 15.2515V13.7515C19.9998 13.614 19.8873 13.5015 19.7498 13.5015Z" fill="#D82596"/>
    <path d="M14 0.5C6.26875 0.5 0 6.76875 0 14.5C0 22.2313 6.26875 28.5 14 28.5C21.7313 28.5 28 22.2313 28 14.5C28 6.76875 21.7313 0.5 14 0.5ZM14 26.125C7.58125 26.125 2.375 20.9188 2.375 14.5C2.375 8.08125 7.58125 2.875 14 2.875C20.4188 2.875 25.625 8.08125 25.625 14.5C25.625 20.9188 20.4188 26.125 14 26.125Z" fill="#D82596"/>
    </g>
    <defs>
    <clipPath id="clip0_256_1487">
    <rect width="28" height="28" fill="white" transform="translate(0 0.5)"/>
    </clipPath>
    </defs>
</svg>
