<svg width="28" height="29" viewBox="0 0 28 29" fill="none" xmlns="http://www.w3.org/2000/svg">
    <g clip-path="url(#clip0_256_1496)">
    <path d="M23.9993 0.5H3.99927C3.44614 0.5 2.99927 0.946875 2.99927 1.5V27.5C2.99927 28.0531 3.44614 28.5 3.99927 28.5H23.9993C24.5524 28.5 24.9993 28.0531 24.9993 27.5V1.5C24.9993 0.946875 24.5524 0.5 23.9993 0.5ZM5.24927 2.75H22.7493V9.25H5.24927V2.75ZM22.7493 17.75H5.24927V11.25H22.7493V17.75ZM22.7493 26.25H5.24927V19.75H22.7493V26.25ZM7.49927 6C7.49927 6.33152 7.63096 6.64946 7.86538 6.88388C8.09981 7.1183 8.41775 7.25 8.74927 7.25C9.08079 7.25 9.39873 7.1183 9.63315 6.88388C9.86757 6.64946 9.99927 6.33152 9.99927 6C9.99927 5.66848 9.86757 5.35054 9.63315 5.11612C9.39873 4.8817 9.08079 4.75 8.74927 4.75C8.41775 4.75 8.09981 4.8817 7.86538 5.11612C7.63096 5.35054 7.49927 5.66848 7.49927 6V6ZM7.49927 14.5C7.49927 14.8315 7.63096 15.1495 7.86538 15.3839C8.09981 15.6183 8.41775 15.75 8.74927 15.75C9.08079 15.75 9.39873 15.6183 9.63315 15.3839C9.86757 15.1495 9.99927 14.8315 9.99927 14.5C9.99927 14.1685 9.86757 13.8505 9.63315 13.6161C9.39873 13.3817 9.08079 13.25 8.74927 13.25C8.41775 13.25 8.09981 13.3817 7.86538 13.6161C7.63096 13.8505 7.49927 14.1685 7.49927 14.5V14.5ZM7.49927 23C7.49927 23.3315 7.63096 23.6495 7.86538 23.8839C8.09981 24.1183 8.41775 24.25 8.74927 24.25C9.08079 24.25 9.39873 24.1183 9.63315 23.8839C9.86757 23.6495 9.99927 23.3315 9.99927 23C9.99927 22.6685 9.86757 22.3505 9.63315 22.1161C9.39873 21.8817 9.08079 21.75 8.74927 21.75C8.41775 21.75 8.09981 21.8817 7.86538 22.1161C7.63096 22.3505 7.49927 22.6685 7.49927 23V23Z" fill="white"/>
    </g>
    <defs>
    <clipPath id="clip0_256_1496">
    <rect width="28" height="28" fill="white" transform="translate(0 0.5)"/>
    </clipPath>
    </defs>
    </svg>
    