<svg width="53" height="52" viewBox="0 0 53 52" fill="none" xmlns="http://www.w3.org/2000/svg">
    <path d="M49.5759 45.8843L34.504 30.8124C36.8429 27.7887 38.1081 24.0919 38.1081 20.2035C38.1081 15.549 36.2915 11.1847 33.0067 7.89409C29.7219 4.60347 25.346 2.79276 20.6973 2.79276C16.0487 2.79276 11.6728 4.60927 8.38796 7.89409C5.09734 11.1789 3.28662 15.549 3.28662 20.2035C3.28662 24.8521 5.10314 29.228 8.38796 32.5128C11.6728 35.8035 16.0429 37.6142 20.6973 37.6142C24.5857 37.6142 28.2768 36.349 31.3005 34.016L46.3723 49.082C46.4165 49.1263 46.469 49.1613 46.5268 49.1853C46.5845 49.2092 46.6464 49.2215 46.7089 49.2215C46.7715 49.2215 46.8334 49.2092 46.8911 49.1853C46.9489 49.1613 47.0014 49.1263 47.0456 49.082L49.5759 46.5575C49.6201 46.5133 49.6552 46.4608 49.6791 46.4031C49.7031 46.3453 49.7154 46.2834 49.7154 46.2209C49.7154 46.1584 49.7031 46.0965 49.6791 46.0387C49.6552 45.9809 49.6201 45.9285 49.5759 45.8843V45.8843ZM29.8902 29.3963C27.4295 31.8512 24.1679 33.2035 20.6973 33.2035C17.2268 33.2035 13.9652 31.8512 11.5045 29.3963C9.04957 26.9356 7.69734 23.674 7.69734 20.2035C7.69734 16.7329 9.04957 13.4655 11.5045 11.0106C13.9652 8.5557 17.2268 7.20347 20.6973 7.20347C24.1679 7.20347 27.4353 8.5499 29.8902 11.0106C32.3451 13.4713 33.6973 16.7329 33.6973 20.2035C33.6973 23.674 32.3451 26.9414 29.8902 29.3963Z" fill="white" fill-opacity="0.85"/>
    </svg>
    