<svg width="20" height="21" viewBox="0 0 20 21" fill="none" xmlns="http://www.w3.org/2000/svg">
    <path
        d="M4.98871 2.98632L0 5.48437V10.4922V15.5L5.00226 18.002L10.0045 20.5L15.0023 18.002L20 15.5039V10.4922V5.48046L15.0339 2.99805C12.3025 1.63371 10.0497 0.507828 10.0226 0.50001C10 0.496099 7.73363 1.61416 4.98871 2.98632ZM12.2619 4.49923C13.4898 5.80493 14.5011 6.8839 14.5056 6.90345C14.5147 6.91908 12.4876 6.93472 10 6.93472C7.51242 6.93472 5.48533 6.91908 5.49436 6.90345C5.52596 6.83699 9.9684 2.12628 10 2.12628C10.0181 2.12628 11.0384 3.19352 12.2619 4.49923ZM7.03386 3.38898C6.39729 4.08484 3.88262 6.73926 3.86456 6.73926C3.78781 6.73535 2.09932 5.85184 2.10835 5.82057C2.11738 5.7893 7.04289 3.29907 7.10158 3.29907C7.11061 3.29907 7.07901 3.33816 7.03386 3.38898ZM15.4582 4.56568C17.4402 5.55865 17.9413 5.82057 17.8916 5.85966C17.86 5.88312 17.4492 6.09422 16.9842 6.32878C16.2664 6.68453 16.1219 6.73926 16.0722 6.69625C16.0406 6.66498 15.3409 5.9183 14.5147 5.03871C13.6885 4.15521 12.9797 3.40071 12.9391 3.36162C12.8984 3.32253 12.8894 3.29516 12.9165 3.30298C12.9436 3.3108 14.0858 3.88156 15.4582 4.56568ZM2.24831 7.29047C2.72235 7.52893 3.13318 7.74004 3.15124 7.75567C3.18284 7.77913 1.41761 11.8761 1.34989 11.9347C1.34086 11.9425 1.33183 10.8049 1.33183 9.4054C1.33183 8.00196 1.34086 6.85653 1.3544 6.85653C1.36795 6.85653 1.76975 7.052 2.24831 7.29047ZM18.6682 9.4054C18.6682 10.8049 18.6591 11.9425 18.6501 11.9347C18.5959 11.8917 16.8126 7.78695 16.8352 7.7674C16.8804 7.72831 18.5959 6.86044 18.6366 6.86044C18.6546 6.85653 18.6682 8.00196 18.6682 9.4054ZM14.0948 9.13957C13.7156 9.70642 12.6456 11.3131 11.7156 12.7127C10.7856 14.1122 10.0135 15.2576 10 15.2576C9.98646 15.2576 8.95711 13.7252 7.70655 11.8487C6.4605 9.97225 5.386 8.36553 5.3228 8.2717L5.20993 8.10751H9.99549H14.781L14.0948 9.13957ZM6.45147 12.3061C7.68397 14.1513 8.69075 15.6642 8.69075 15.6681C8.69075 15.6759 1.63431 14.7025 1.61174 14.6908C1.60722 14.6908 2.17607 13.3812 2.87585 11.7901C3.58014 10.1951 4.16704 8.90501 4.1851 8.92065C4.19865 8.93628 5.22348 10.457 6.45147 12.3061ZM17.1512 11.8565C17.8375 13.4124 18.3928 14.6908 18.3883 14.6947C18.3657 14.7064 11.3318 15.6798 11.3183 15.672C11.3093 15.6642 14.5914 10.7307 15.6569 9.14739C15.8059 8.92065 15.842 8.88546 15.8691 8.95192C15.8871 8.99101 16.465 10.3006 17.1512 11.8565ZM6.83521 16.6102C8.16253 16.794 9.26411 16.9425 9.28668 16.9425C9.30474 16.9425 9.3228 17.3569 9.3228 17.8612C9.3228 18.3655 9.31377 18.7799 9.30023 18.7799C9.27314 18.7799 4.26185 16.2819 4.22122 16.2506C4.20767 16.2389 4.24831 16.2428 4.31151 16.2545C4.37472 16.2662 5.5079 16.4265 6.83521 16.6102ZM15.7743 16.2545C15.7427 16.2819 10.7991 18.7486 10.7359 18.7682C10.6907 18.7838 10.6772 18.6079 10.6772 17.8729V16.9543L11.6163 16.8253C12.1309 16.7549 13.2641 16.5946 14.1309 16.4734C15.9052 16.2193 15.8014 16.235 15.7743 16.2545Z"
        fill="white" />
</svg>
    