<svg width="80" height="80" viewBox="0 0 80 80" fill="none" xmlns="http://www.w3.org/2000/svg">
    <path
        d="M19.9549 9.9453L0 19.9375V39.9687V60L20.009 70.0078L40.0181 80L60.009 70.0078L80 60.0156V39.9687V19.9218L60.1354 9.99221C49.2099 4.53483 40.1986 0.031311 40.0903 3.8147e-05C40 -0.0156021 30.9345 4.45664 19.9549 9.9453ZM49.0474 15.9969C53.9594 21.2197 58.0045 25.5356 58.0226 25.6138C58.0587 25.6763 49.9503 25.7389 40 25.7389C30.0497 25.7389 21.9413 25.6763 21.9774 25.6138C22.1038 25.348 39.8736 6.50511 40 6.50511C40.0722 6.50511 44.1535 10.7741 49.0474 15.9969ZM28.1354 11.5559C25.5892 14.3394 15.5305 24.957 15.4582 24.957C15.1512 24.9414 8.39729 21.4074 8.43341 21.2823C8.46953 21.1572 28.1716 11.1963 28.4063 11.1963C28.4424 11.1963 28.316 11.3526 28.1354 11.5559ZM61.833 16.2627C69.7607 20.2346 71.7652 21.2823 71.5666 21.4386C71.4402 21.5325 69.7968 22.3769 67.9368 23.3151C65.0655 24.7381 64.4876 24.957 64.2889 24.785C64.1625 24.6599 61.3634 21.6732 58.0587 18.1548C54.754 14.6208 51.9187 11.6028 51.7562 11.4465C51.5937 11.2901 51.5576 11.1806 51.6659 11.2119C51.7743 11.2432 56.3431 13.5262 61.833 16.2627ZM8.99323 27.1619C10.8894 28.1157 12.5327 28.9601 12.605 29.0227C12.7314 29.1165 5.67043 45.5043 5.39955 45.7389C5.36343 45.7701 5.32731 41.2197 5.32731 35.6216C5.32731 30.0078 5.36343 25.4261 5.41761 25.4261C5.47178 25.4261 7.07901 26.208 8.99323 27.1619ZM74.6727 35.6216C74.6727 41.2197 74.6366 45.7701 74.6005 45.7389C74.3838 45.5669 67.2506 29.1478 67.3409 29.0696C67.5214 28.9132 74.3838 25.4418 74.5463 25.4418C74.6185 25.4261 74.6727 30.0078 74.6727 35.6216ZM56.3792 34.5583C54.8623 36.8257 50.5824 43.2526 46.8623 48.8507C43.1422 54.4488 40.0542 59.0305 40 59.0305C39.9458 59.0305 35.8284 52.9007 30.8262 45.3949C25.842 37.889 21.544 31.4621 21.2912 31.0868L20.8397 30.43H39.9819H59.1242L56.3792 34.5583ZM25.8059 47.2244C30.7359 54.6052 34.763 60.6568 34.763 60.6724C34.763 60.7037 6.53725 56.81 6.44695 56.7631C6.42889 56.7631 8.70429 51.5246 11.5034 45.1603C14.3205 38.7803 16.6682 33.62 16.7404 33.6826C16.7946 33.7451 20.8939 39.828 25.8059 47.2244ZM68.605 45.4261C71.3499 51.6497 73.5711 56.7631 73.553 56.7787C73.4628 56.8257 45.3273 60.7193 45.2731 60.688C45.237 60.6568 58.3657 40.9226 62.6275 34.5895C63.2235 33.6826 63.3679 33.5419 63.4763 33.8077C63.5485 33.9641 65.86 39.2025 68.605 45.4261ZM27.3409 64.441C32.6501 65.1759 37.0564 65.7701 37.1467 65.7701C37.219 65.7701 37.2912 67.4277 37.2912 69.4449C37.2912 71.4621 37.2551 73.1196 37.2009 73.1196C37.0926 73.1196 17.0474 63.1275 16.8849 63.0024C16.8307 62.9554 16.9932 62.9711 17.246 63.018C17.4989 63.0649 22.0316 63.706 27.3409 64.441ZM63.0971 63.018C62.9707 63.1275 43.1964 72.9945 42.9436 73.0727C42.763 73.1353 42.7088 72.4316 42.7088 69.4918V65.8171L46.465 65.301C48.5237 65.0196 53.0564 64.3784 56.5237 63.8937C63.6208 62.8773 63.2054 62.9398 63.0971 63.018Z"
        fill="black" />
</svg>
    