<svg width="20" height="21" viewBox="0 0 20 21" fill="none" xmlns="http://www.w3.org/2000/svg">
    <path
        d="M9.42553 0.553421C9.28511 0.58078 9.05957 0.647223 8.92766 0.701941C8.79149 0.756659 6.73191 1.87837 4.34043 3.19551L0 5.58746V10.5003V15.4132L4.34043 17.8052C6.73191 19.1223 8.78723 20.244 8.91489 20.2948C9.5617 20.5684 10.4383 20.5684 11.0851 20.2948C11.2128 20.244 13.2681 19.1223 15.6596 17.8052L20 15.4132V10.5003V5.58746L15.6596 3.19551C13.2681 1.87837 11.2128 0.756659 11.0851 0.705849C10.6128 0.506521 9.95319 0.443985 9.42553 0.553421ZM13.7957 4.11008C15.7106 5.16535 17.2723 6.03692 17.2766 6.04865C17.2766 6.06037 15.6383 6.97494 13.6383 8.07711L10 10.0821L6.3617 8.07711C4.3617 6.97494 2.7234 6.06037 2.7234 6.04865C2.72766 6.0252 9.09362 2.50763 9.54468 2.28094C9.73617 2.18323 9.80425 2.1715 10.0426 2.18323L10.3191 2.19886L13.7957 4.11008ZM5.62979 9.62094L9.10638 11.5361V15.0067C9.10638 16.9179 9.09362 18.4696 9.0766 18.4618C9.05532 18.4539 7.42128 17.5511 5.4383 16.4607L1.82979 14.4752V11.0006V7.52603L1.99149 7.61592C2.08511 7.66673 3.71915 8.56567 5.62979 9.62094ZM18.1702 11.0045V14.4752L14.566 16.4607C12.5787 17.5511 10.9447 18.4539 10.9277 18.4618C10.9064 18.4696 10.8936 16.9179 10.8936 15.0067V11.5361L14.5234 9.53495C16.5149 8.43278 18.1532 7.53384 18.1617 7.52994C18.166 7.52994 18.1702 9.0933 18.1702 11.0045Z"
        fill="white" />
</svg>
    