<svg width="80" height="80" viewBox="0 0 80 80" fill="none" xmlns="http://www.w3.org/2000/svg">
    <path
        d="M37.7021 0.213684C37.1404 0.32312 36.2383 0.58889 35.7106 0.807762C35.166 1.02663 26.9277 5.51349 17.3617 10.782L0 20.3498V40.0013V59.6528L17.3617 69.2206C26.9277 74.4891 35.1489 78.976 35.6596 79.1792C38.2468 80.2736 41.7532 80.2736 44.3404 79.1792C44.8511 78.976 53.0723 74.4891 62.6383 69.2206L80 59.6528V40.0013V20.3498L62.6383 10.782C53.0723 5.51349 44.8511 1.02663 44.3404 0.823395C42.4511 0.0260849 39.8128 -0.22406 37.7021 0.213684ZM55.183 14.4403C62.8426 18.6614 69.0894 22.1477 69.1064 22.1946C69.1064 22.2415 62.5532 25.8998 54.5532 30.3085L40 38.3285L25.4468 30.3085C17.4468 25.8998 10.8936 22.2415 10.8936 22.1946C10.9106 22.1008 36.3745 8.03051 38.1787 7.12376C38.9447 6.73292 39.217 6.68601 40.1702 6.73292L41.2766 6.79545L55.183 14.4403ZM22.5191 36.4837L36.4255 44.1442V58.0269C36.4255 65.6718 36.3745 71.8783 36.3064 71.8471C36.2213 71.8158 29.6851 68.2044 21.7532 63.8426L7.31915 55.9007V42.0024V28.1041L7.96596 28.4637C8.34043 28.6669 14.8766 32.2627 22.5191 36.4837ZM72.6808 42.0181V55.9007L58.2638 63.8426C50.3149 68.2044 43.7787 71.8158 43.7106 71.8471C43.6255 71.8783 43.5745 65.6718 43.5745 58.0269V44.1442L58.0936 36.1398C66.0596 31.7311 72.6128 28.1354 72.6468 28.1197C72.6638 28.1197 72.6808 34.3732 72.6808 42.0181Z"
        fill="black" />
</svg>
    