<svg width="37" height="36" viewBox="0 0 37 36" fill="none" xmlns="http://www.w3.org/2000/svg">
    <path opacity="0.957" fill-rule="evenodd" clip-rule="evenodd"
        d="M10.6601 3.33984C15.1964 3.04789 18.7004 4.78226 21.1718 8.54296C21.4564 9.06524 21.7025 9.60433 21.9101 10.1601C21.207 10.2539 20.5038 10.2539 19.8007 10.1601C18.3853 7.40031 16.1353 5.79484 13.0507 5.34374C9.22783 4.94132 6.23956 6.31241 4.08588 9.45702C2.43267 12.6595 2.73737 15.6595 4.99994 18.457C5.61814 19.0991 6.29783 19.6616 7.039 20.1445C6.79372 20.8585 6.47732 21.5499 6.08978 22.2187C7.16094 21.8657 8.22735 21.479 9.289 21.0586C10.1498 21.2936 11.0287 21.4109 11.9257 21.4101C11.9257 22.043 11.9257 22.6758 11.9257 23.3086C11.096 23.3433 10.2757 23.273 9.46478 23.0976C7.96241 23.6726 6.45072 24.2116 4.92963 24.7148C3.92456 24.5568 3.47925 23.9709 3.59369 22.957C3.92394 22.2379 4.26378 21.5231 4.61322 20.8125C1.53122 18.0347 0.488255 14.6246 1.48431 10.582C2.68407 7.15577 5.0161 4.89402 8.48041 3.79687C9.20786 3.60225 9.9344 3.44991 10.6601 3.33984Z"
        fill="black" />
    <path opacity="0.988" fill-rule="evenodd" clip-rule="evenodd"
        d="M16.2149 12.2695C22.0274 12.2578 27.8399 12.2695 33.6524 12.3047C34.8198 12.6049 35.5346 13.3431 35.7969 14.5195C35.8438 18.1524 35.8438 21.7851 35.7969 25.418C35.4433 26.8776 34.5176 27.6276 33.0195 27.668C33.0313 28.5121 33.0195 29.3558 32.9844 30.1992C32.5037 32.0871 31.2967 32.8488 29.3633 32.4844C29.0624 32.3808 28.7812 32.2402 28.5195 32.0625C27.0174 30.5837 25.494 29.1306 23.9492 27.7031C21.3711 27.6797 18.793 27.6562 16.2149 27.6328C14.9284 27.2841 14.1901 26.4521 14 25.1367C13.9531 21.6914 13.9531 18.2461 14 14.8008C14.2035 13.4843 14.9418 12.6406 16.2149 12.2695ZM19.3789 18.3164C20.5333 18.2408 21.2716 18.7564 21.5938 19.8633C21.6408 21.4334 20.8791 22.1717 19.3086 22.0781C18.2371 21.7288 17.7566 20.9905 17.8672 19.8633C18.1028 19.0771 18.6067 18.5614 19.3789 18.3164ZM24.582 18.3164C25.7564 18.2644 26.4947 18.8035 26.7969 19.9336C26.8567 21.044 26.3529 21.7588 25.2852 22.0781C23.715 22.1252 22.9767 21.3635 23.0703 19.793C23.2881 19.0009 23.792 18.5087 24.582 18.3164ZM29.7149 18.3164C31.0583 18.2537 31.8318 18.8865 32.0352 20.2149C31.8327 21.5545 31.0593 22.1756 29.7149 22.0781C28.7803 21.8111 28.2647 21.1899 28.168 20.2149C28.2777 19.2391 28.7933 18.6062 29.7149 18.3164Z"
        fill="black" />
</svg>