<svg width="27" height="27" viewBox="0 0 27 27" fill="none" xmlns="http://www.w3.org/2000/svg">
    <g clip-path="url(#clip0_158_718)">
        <path
            d="M13.7925 0.543823C9.19704 0.53177 5.15307 2.90934 2.84179 6.5013C2.73934 6.66101 2.85385 6.87195 3.04369 6.87195H5.16211C5.30675 6.87195 5.44235 6.80867 5.53275 6.69717C5.74369 6.44103 5.9697 6.19394 6.20775 5.95889C7.19012 4.97954 8.3322 4.20811 9.60385 3.67173C10.9177 3.11726 12.3159 2.834 13.7593 2.834C15.2027 2.834 16.6009 3.11425 17.9148 3.67173C19.1864 4.20811 20.3285 4.97954 21.3109 5.95889C22.2932 6.93824 23.0617 8.08032 23.6011 9.34896C24.1585 10.6628 24.4388 12.058 24.4388 13.5014C24.4388 14.9448 24.1555 16.34 23.6011 17.6539C23.0647 18.9225 22.2932 20.0646 21.3109 21.0439C20.3285 22.0233 19.1864 22.7947 17.9148 23.3311C16.5999 23.8865 15.1867 24.1714 13.7593 24.1688C12.3159 24.1688 10.9177 23.8856 9.60385 23.3311C8.33469 22.7953 7.1814 22.0186 6.20775 21.0439C5.9697 20.8059 5.74671 20.5588 5.53275 20.3057C5.44235 20.1942 5.30374 20.1309 5.16211 20.1309H3.04369C2.85385 20.1309 2.73633 20.3418 2.84179 20.5015C5.15005 24.0844 9.17595 26.459 13.7593 26.459C20.877 26.459 26.6566 20.7305 26.729 13.634C26.8013 6.42295 21.0126 0.561903 13.7925 0.543823ZM9.9751 16.8764V14.5862H0.513044C0.380455 14.5862 0.271973 14.4778 0.271973 14.3452V12.6577C0.271973 12.5251 0.380455 12.4166 0.513044 12.4166H9.9751V10.1264C9.9751 9.92452 10.2101 9.81001 10.3668 9.93657L14.6428 13.3116C14.6717 13.3341 14.695 13.3629 14.711 13.3958C14.727 13.4287 14.7353 13.4648 14.7353 13.5014C14.7353 13.538 14.727 13.5741 14.711 13.607C14.695 13.6399 14.6717 13.6687 14.6428 13.6913L10.3668 17.0663C10.2101 17.1898 9.9751 17.0783 9.9751 16.8764Z"
            fill="white" />
    </g>
    <defs>
        <clipPath id="clip0_158_718">
            <rect width="27" height="27" fill="white" />
        </clipPath>
    </defs>
</svg>