<svg width="52" height="52" viewBox="0 0 52 52" fill="none" xmlns="http://www.w3.org/2000/svg">
    <g clip-path="url(#clip0_154_761)">
        <rect width="52" height="52" rx="26" fill="#515151" />
        <path
            d="M34.9772 25.6216L20.7004 15.2912C20.6311 15.2408 20.5491 15.2107 20.4636 15.204C20.3781 15.1974 20.2925 15.2146 20.2161 15.2536C20.1398 15.2927 20.0758 15.3521 20.0312 15.4253C19.9866 15.4986 19.9631 15.5827 19.9634 15.6684V18.3903C19.9634 18.9823 20.2478 19.5452 20.7295 19.8934L29.1678 25.9988L20.7295 32.1042C20.2478 32.4524 19.9634 33.0095 19.9634 33.6073V36.3292C19.9634 36.7064 20.3928 36.9269 20.7004 36.7064L34.9772 26.376C35.2326 26.1903 35.2326 25.8073 34.9772 25.6216Z"
            fill="white" />
        <path
            d="M26 0C11.642 0 0 11.642 0 26C0 40.358 11.642 52 26 52C40.358 52 52 40.358 52 26C52 11.642 40.358 0 26 0ZM26 47.5893C14.0795 47.5893 4.41071 37.9205 4.41071 26C4.41071 14.0795 14.0795 4.41071 26 4.41071C37.9205 4.41071 47.5893 14.0795 47.5893 26C47.5893 37.9205 37.9205 47.5893 26 47.5893Z"
            fill="white" />
    </g>
    <defs>
        <clipPath id="clip0_154_761">
            <rect width="52" height="52" rx="26" fill="white" />
        </clipPath>
    </defs>
</svg>
    