<svg width="52" height="52" viewBox="0 0 52 52" fill="none" xmlns="http://www.w3.org/2000/svg">
    <g clip-path="url(#clip0_171_2761)">
        <rect width="52" height="52" rx="26" fill="#515151" />
        <path
            d="M31.2961 15.2936L17.0193 25.624C16.96 25.6667 16.9117 25.7229 16.8783 25.788C16.845 25.8531 16.8276 25.9252 16.8276 25.9983C16.8276 26.0714 16.845 26.1435 16.8783 26.2086C16.9117 26.2736 16.96 26.3299 17.0193 26.3726L31.2961 36.703C31.6037 36.9235 32.0331 36.703 32.0331 36.3257V33.6039C32.0331 33.0119 31.7488 32.449 31.2671 32.1007L22.8287 26.0012L31.2671 19.8958C31.7488 19.5476 32.0331 18.9905 32.0331 18.3927V15.6708C32.0331 15.2936 31.6037 15.0731 31.2961 15.2936Z"
            fill="white" />
        <path
            d="M26 0C11.642 0 0 11.642 0 26C0 40.358 11.642 52 26 52C40.358 52 52 40.358 52 26C52 11.642 40.358 0 26 0ZM26 47.5893C14.0795 47.5893 4.41071 37.9205 4.41071 26C4.41071 14.0795 14.0795 4.41071 26 4.41071C37.9205 4.41071 47.5893 14.0795 47.5893 26C47.5893 37.9205 37.9205 47.5893 26 47.5893Z"
            fill="white" />
    </g>
    <defs>
        <clipPath id="clip0_171_2761">
            <rect width="52" height="52" rx="26" fill="white" />
        </clipPath>
    </defs>
</svg>
    