<svg width="31" height="30" viewBox="0 0 31 30" fill="none" xmlns="http://www.w3.org/2000/svg">
    <path
        d="M13.8837 1.91551C14.6825 0.819475 16.3175 0.819475 17.1163 1.91551L20.6697 6.79116C21.1649 7.47053 21.8615 7.97663 22.6606 8.23759L28.3957 10.1105C29.6849 10.5315 30.1902 12.0864 29.3946 13.1848L25.8557 18.071C25.3626 18.7519 25.0965 19.5708 25.0952 20.4114L25.0863 26.4446C25.0842 27.8008 23.7615 28.7618 22.4711 28.3446L16.7304 26.4888C15.9305 26.2302 15.0695 26.2302 14.2696 26.4888L8.52894 28.3446C7.23846 28.7618 5.91576 27.8008 5.91374 26.4446L5.90477 20.4114C5.90352 19.5708 5.63745 18.7519 5.14433 18.071L1.60539 13.1848C0.80985 12.0864 1.31508 10.5315 2.60431 10.1105L8.33941 8.23759C9.13853 7.97663 9.83512 7.47053 10.3303 6.79116L13.8837 1.91551Z"
        stroke="black" stroke-width="2" />
</svg>