<svg width="30" height="30" viewBox="0 0 30 30" fill="none" xmlns="http://www.w3.org/2000/svg">
    <g clip-path="url(#clip0_171_2517)">
        <path
            d="M21.1605 13.927H8.83902C8.6917 13.927 8.57117 14.0475 8.57117 14.1949V15.802C8.57117 15.9493 8.6917 16.0699 8.83902 16.0699H21.1605C21.3078 16.0699 21.4283 15.9493 21.4283 15.802V14.1949C21.4283 14.0475 21.3078 13.927 21.1605 13.927Z"
            fill="#D82596" />
        <path
            d="M15 0C6.71652 0 0 6.71652 0 15C0 23.2835 6.71652 30 15 30C23.2835 30 30 23.2835 30 15C30 6.71652 23.2835 0 15 0ZM15 27.4554C8.12277 27.4554 2.54464 21.8772 2.54464 15C2.54464 8.12277 8.12277 2.54464 15 2.54464C21.8772 2.54464 27.4554 8.12277 27.4554 15C27.4554 21.8772 21.8772 27.4554 15 27.4554Z"
            fill="#D82596" />
    </g>
    <defs>
        <clipPath id="clip0_171_2517">
            <rect width="30" height="30" fill="white" />
        </clipPath>
    </defs>
</svg>
    