<svg width="30" height="30" viewBox="0 0 30 30" fill="none" xmlns="http://www.w3.org/2000/svg">
    <g clip-path="url(#clip0_171_2519)">
        <path
            d="M21.1605 13.9301H16.0712V8.84086C16.0712 8.69353 15.9506 8.573 15.8033 8.573H14.1962C14.0488 8.573 13.9283 8.69353 13.9283 8.84086V13.9301H8.83902C8.6917 13.9301 8.57117 14.0507 8.57117 14.198V15.8051C8.57117 15.9525 8.6917 16.073 8.83902 16.073H13.9283V21.1623C13.9283 21.3096 14.0488 21.4301 14.1962 21.4301H15.8033C15.9506 21.4301 16.0712 21.3096 16.0712 21.1623V16.073H21.1605C21.3078 16.073 21.4283 15.9525 21.4283 15.8051V14.198C21.4283 14.0507 21.3078 13.9301 21.1605 13.9301Z"
            fill="#D82596" />
        <path
            d="M15 0C6.71652 0 0 6.71652 0 15C0 23.2835 6.71652 30 15 30C23.2835 30 30 23.2835 30 15C30 6.71652 23.2835 0 15 0ZM15 27.4554C8.12277 27.4554 2.54464 21.8772 2.54464 15C2.54464 8.12277 8.12277 2.54464 15 2.54464C21.8772 2.54464 27.4554 8.12277 27.4554 15C27.4554 21.8772 21.8772 27.4554 15 27.4554Z"
            fill="#D82596" />
    </g>
    <defs>
        <clipPath id="clip0_171_2519">
            <rect width="30" height="30" fill="white" />
        </clipPath>
    </defs>
</svg>
    