<svg width="28" height="27" viewBox="0 0 28 27" fill="none" xmlns="http://www.w3.org/2000/svg">
    <g clip-path="url(#clip0_158_742)">
        <path opacity="0.976" fill-rule="evenodd" clip-rule="evenodd"
            d="M13.1299 -0.0263672C13.6924 -0.0263672 14.2549 -0.0263672 14.8174 -0.0263672C17.6173 0.426847 19.5772 1.95614 20.6973 4.56152C21.6745 7.53353 21.0857 10.1439 18.9307 12.3926C18.7373 12.5508 18.544 12.709 18.3506 12.8672C19.1985 13.1505 20.0071 13.5197 20.7764 13.9746C21.3389 14.5547 21.3389 15.1348 20.7764 15.7148C20.4662 15.8905 20.1322 15.9432 19.7744 15.873C15.5391 13.6723 11.4082 13.848 7.38184 16.4004C4.93218 18.1491 3.35894 20.4958 2.66211 23.4404C2.53992 24.2497 2.88269 24.7155 3.69043 24.8379C6.59388 24.8385 9.49427 24.8737 12.3916 24.9434C12.892 25.2301 13.0766 25.6607 12.9453 26.2354C12.8389 26.6141 12.6016 26.8601 12.2334 26.9736C9.19237 26.9736 6.15138 26.9736 3.11035 26.9736C1.68652 26.6397 0.807617 25.7607 0.473633 24.3369C0.473633 23.9502 0.473633 23.5635 0.473633 23.1768C1.53596 18.6878 4.13752 15.4271 8.27832 13.3945C8.71359 13.2084 9.15303 13.0327 9.59668 12.8672C7.13493 10.7902 6.29999 8.17984 7.0918 5.03613C8.10351 2.15215 10.1162 0.464652 13.1299 -0.0263672ZM13.2881 2.13574C15.4652 1.97192 17.1439 2.79809 18.3242 4.61426C19.0796 6.04283 19.1851 7.51939 18.6406 9.04395C17.5529 11.3065 15.7512 12.3348 13.2354 12.1289C11.399 11.7688 10.0894 10.7405 9.30664 9.04395C8.54669 6.80142 9.0301 4.87662 10.7568 3.26953C11.507 2.67454 12.3508 2.29661 13.2881 2.13574Z"
            fill="white" />
        <path opacity="0.971" fill-rule="evenodd" clip-rule="evenodd"
            d="M27.4736 19.0635C27.4736 19.4151 27.4736 19.7666 27.4736 20.1182C27.3396 20.5794 27.1198 21.0013 26.8144 21.3838C26.1377 22.0605 25.4609 22.7373 24.7842 23.4141C24.3612 23.7336 23.9041 23.7863 23.4131 23.5723C22.9205 23.1664 22.8063 22.6654 23.0703 22.0693C23.4993 21.5875 23.9476 21.1217 24.415 20.6719C22.3232 20.6367 20.2315 20.6367 18.1396 20.6719C16.9203 21.0618 16.3842 21.8967 16.5312 23.1768C16.7149 23.8704 17.128 24.3714 17.7705 24.6797C18.1905 24.7761 18.6124 24.864 19.0361 24.9434C19.5891 25.2837 19.7561 25.7671 19.5371 26.3936C19.3943 26.6794 19.1745 26.8728 18.8779 26.9736C18.5615 26.9736 18.2451 26.9736 17.9287 26.9736C16.1956 26.6208 15.0442 25.6013 14.4746 23.915C13.9977 21.6264 14.7799 19.9301 16.8213 18.8262C17.1782 18.6798 17.5474 18.5743 17.9287 18.5098C20.0908 18.4922 22.2529 18.4746 24.415 18.457C24.0035 18.0983 23.608 17.7204 23.2285 17.3232C22.8635 16.8268 22.8459 16.317 23.1758 15.7939C23.705 15.3829 24.2411 15.3741 24.7842 15.7676C25.6048 16.553 26.3871 17.3704 27.1308 18.2197C27.2724 18.4963 27.3867 18.7775 27.4736 19.0635Z"
            fill="white" />
    </g>
    <defs>
        <clipPath id="clip0_158_742">
            <rect width="27" height="27" fill="white" transform="translate(0.5)" />
        </clipPath>
    </defs>
</svg>