<svg width="60" height="61" viewBox="0 0 60 61" fill="none" xmlns="http://www.w3.org/2000/svg">
    <rect x="0.5" y="1" width="59" height="59" rx="29.5" fill="#A6A6A6" />
    <rect x="0.5" y="1" width="59" height="59" rx="29.5" stroke="black" />
    <g clip-path="url(#clip0_158_706)">
        <path opacity="0.992" fill-rule="evenodd" clip-rule="evenodd"
            d="M28.8398 12.4648C29.5898 12.4648 30.3397 12.4648 31.0898 12.4648C35.1622 13.1263 37.8457 15.4232 39.1405 19.3555C40.0571 23.2377 39.061 26.5307 36.1523 29.2344C33.2434 31.5118 30.0324 32.0508 26.5195 30.8516C23.0647 29.3885 21.0608 26.7987 20.5077 23.082C20.2067 19.0083 21.7653 15.8794 25.1835 13.6953C26.3377 13.0645 27.5564 12.6544 28.8398 12.4648Z"
            fill="#D82596" />
        <path opacity="0.995" fill-rule="evenodd" clip-rule="evenodd"
            d="M45.1523 48.4648C35.0273 48.4648 24.9023 48.4648 14.7773 48.4648C14.4976 48.3372 14.2983 48.1263 14.1797 47.832C14.1118 42.8233 16.0922 38.8507 20.1211 35.9141C23.1107 33.9633 26.392 33.1782 29.9648 33.5586C36.1295 33.0374 40.8287 35.3812 44.0625 40.5898C45.3149 42.8443 45.8774 45.2583 45.75 47.832C45.6313 48.1263 45.4321 48.3372 45.1523 48.4648Z"
            fill="#D82596" />
    </g>
    <defs>
        <clipPath id="clip0_158_706">
            <rect width="36" height="36" fill="white" transform="translate(12 12.5)" />
        </clipPath>
    </defs>
</svg>