<svg width="378" height="378" viewBox="0 0 378 378" fill="none" xmlns="http://www.w3.org/2000/svg">
  <path
    d="M304.931 85.8841C328.051 143.924 328.051 255.855 281.172 311.823C234.294 367.791 140.539 367.791 93.6603 311.982C46.7811 256.175 46.7814 144.56 70.5398 86.5203C94.2983 28.4805 141.813 24.0161 188.691 23.8567C235.57 23.6975 281.81 27.8448 304.931 85.8841Z"
    stroke="black" stroke-width="22.1728" />
  <path
    d="M65.517 128.555C65.3274 123.803 102.111 92.0972 124.761 91.7005C147.41 91.3038 182.668 122.826 182.82 126.645C182.973 130.465 148.852 155.302 127.402 155.678C105.952 156.054 65.7066 133.306 65.517 128.555Z"
    fill="black" />
  <path
    d="M78.3053 127.215C78.1712 123.208 107.139 101.335 125.145 101.106C143.152 100.878 168.913 121.726 169.057 126.036C169.201 130.346 143.883 149.078 126.83 149.294C109.778 149.511 78.4393 131.222 78.3053 127.215Z"
    fill="white" />
  <path
    d="M123.44 143.378C131.443 143.378 137.93 136.891 137.93 128.888C137.93 120.885 131.443 114.397 123.44 114.397C115.437 114.397 108.949 120.885 108.949 128.888C108.949 136.891 115.437 143.378 123.44 143.378Z"
    fill="#7C4A1B" />
  <path
    d="M122.943 136.277C127.157 136.277 130.573 132.861 130.573 128.647C130.573 124.433 127.157 121.018 122.943 121.018C118.729 121.018 115.313 124.433 115.313 128.647C115.313 132.861 118.729 136.277 122.943 136.277Z"
    fill="black" />
  <path
    d="M119.073 127.582C121.165 127.582 122.861 125.886 122.861 123.794C122.861 121.703 121.165 120.007 119.073 120.007C116.981 120.007 115.286 121.703 115.286 123.794C115.286 125.886 116.981 127.582 119.073 127.582Z"
    fill="white" />
  <path
    d="M189.147 127.736C188.958 122.985 225.741 91.2788 248.391 90.8821C271.04 90.4854 306.298 122.007 306.451 125.827C306.603 129.647 272.482 154.484 251.033 154.86C229.583 155.235 189.337 132.488 189.147 127.736Z"
    fill="black" />
  <path
    d="M201.936 126.397C201.801 122.39 230.769 100.517 248.776 100.288C266.782 100.06 292.543 120.908 292.687 125.218C292.831 129.528 267.513 148.26 250.461 148.476C233.408 148.693 202.07 130.404 201.936 126.397Z"
    fill="white" />
  <path
    d="M247.07 142.56C255.073 142.56 261.56 136.072 261.56 128.069C261.56 120.066 255.073 113.579 247.07 113.579C239.067 113.579 232.579 120.066 232.579 128.069C232.579 136.072 239.067 142.56 247.07 142.56Z"
    fill="#7C4A1B" />
  <path
    d="M246.573 135.459C250.787 135.459 254.203 132.043 254.203 127.829C254.203 123.615 250.787 120.199 246.573 120.199C242.36 120.199 238.944 123.615 238.944 127.829C238.944 132.043 242.36 135.459 246.573 135.459Z"
    fill="black" />
  <path
    d="M242.704 126.764C244.795 126.764 246.491 125.068 246.491 122.976C246.491 120.884 244.795 119.188 242.704 119.188C240.612 119.188 238.916 120.884 238.916 122.976C238.916 125.068 240.612 126.764 242.704 126.764Z"
    fill="white" />
  <path
    d="M42.0233 285.687C42.7097 230.899 115.509 152.282 185.996 152.662C256.484 153.043 324.653 232.42 323.966 287.209C323.279 341.998 253.737 372.193 183.25 371.813C112.764 371.431 41.3371 340.476 42.0233 285.687Z"
    fill="#241C1C" />
  <path
    d="M153.828 202.991C159.221 199.497 164.614 196.002 169.868 195.608C175.122 195.215 180.237 197.922 185.351 200.63"
    stroke="white" stroke-width="0.81623" stroke-linecap="round" />
  <path
    d="M185.576 200.669C190.269 197.833 194.961 194.996 200.073 195.26C205.184 195.524 210.713 198.889 216.242 202.254"
    stroke="white" stroke-width="0.81623" stroke-linecap="round" />
  <path
    d="M141.953 194.56C149.034 189.643 156.115 184.726 163.285 184.635C170.455 184.536 177.714 189.278 184.973 194.013"
    stroke="white" stroke-width="1.10936" stroke-linecap="round" />
  <path
    d="M185.219 194.175C192.299 189.258 199.38 184.341 206.55 184.25C213.72 184.151 220.979 188.893 228.238 193.628"
    stroke="white" stroke-width="1.10936" stroke-linecap="round" />
  <path
    d="M143.707 199.72C150.787 194.803 157.868 189.886 164.838 189.623C171.808 189.36 178.666 193.752 185.525 198.144"
    stroke="white" stroke-width="1.10936" stroke-linecap="round" />
  <path
    d="M185.735 198.091C192.244 193.46 198.752 188.829 205.636 188.881C212.521 188.931 219.779 193.668 227.038 198.402"
    stroke="white" stroke-width="1.10936" stroke-linecap="round" />
  <path
    d="M57.3417 290.464C66.8532 307.907 76.3649 325.351 90.9329 332.311C105.493 339.29 125.124 335.751 144.747 332.229"
    stroke="white" stroke-width="2.58488" stroke-linecap="round" />
  <path
    d="M141.292 341.767C157.202 353.667 173.112 365.567 189.255 365.832C205.399 366.116 221.774 354.725 238.15 343.354"
    stroke="white" stroke-width="2.58488" stroke-linecap="round" />
  <path
    d="M231.144 333.558C250.887 335.785 270.629 338.012 284.693 330.08C298.766 322.166 307.139 304.061 315.522 285.972"
    stroke="white" stroke-width="2.58488" stroke-linecap="round" />
  <path
    d="M152.105 322.291C163.846 331.022 175.588 339.754 187.477 339.915C199.367 340.091 211.403 331.669 223.44 323.261"
    stroke="white" stroke-width="1.90366" stroke-linecap="round" />
  <path
    d="M233.951 316.356C248.58 316.633 263.21 316.909 272.977 310.128C282.752 303.358 287.648 289.507 292.552 275.667"
    stroke="white" stroke-width="1.90366" stroke-linecap="round" />
  <path
    d="M166.535 340.181C173.61 345.442 180.684 350.703 187.848 350.8C195.012 350.906 202.264 345.832 209.517 340.765"
    stroke="white" stroke-width="1.14701" stroke-linecap="round" />
  <path
    d="M254.56 320.946C263.311 322.014 272.063 323.082 278.335 319.62C284.611 316.165 288.4 308.166 292.193 300.173"
    stroke="white" stroke-width="1.14701" stroke-linecap="round" />
  <path
    d="M81.5802 296.897C84.6901 305.147 87.8001 313.396 93.7753 317.349C99.7458 321.309 108.59 320.958 117.431 320.614"
    stroke="white" stroke-width="1.14701" stroke-linecap="round" />
  <path
    d="M81.6112 270.119C85.8562 284.122 90.1013 298.125 99.5627 305.327C109.016 312.54 123.701 312.929 138.378 313.33"
    stroke="white" stroke-width="1.90366" stroke-linecap="round" />
  <path
    d="M109.818 242.827C114.063 256.83 118.308 270.833 127.77 278.035C137.223 285.248 151.908 285.637 166.585 286.038"
    stroke="white" stroke-width="1.90366" stroke-linecap="round" />
  <path
    d="M205.415 285.488C220.042 285.86 234.669 286.231 244.48 279.513C254.299 272.807 259.285 258.988 264.279 245.181"
    stroke="white" stroke-width="1.90366" stroke-linecap="round" />
  <path
    d="M148.369 292.763C160.108 301.497 171.848 310.231 183.737 310.395C195.627 310.573 207.665 302.154 219.704 293.748"
    stroke="white" stroke-width="1.90366" stroke-linecap="round" />
  <path
    d="M221.017 219.559C209.21 210.917 197.402 202.275 185.512 202.204C173.621 202.119 161.649 210.632 149.676 219.132"
    stroke="white" stroke-width="0.732179" stroke-linecap="round" />
  <path
    d="M149.989 219.501C161.224 222.481 172.46 225.461 184.35 225.532C196.24 225.618 208.784 222.766 221.329 219.928"
    stroke="white" stroke-width="0.732179" stroke-linecap="round" />
</svg>